0
SECTION
2
HEADER
9
$INSUNITS
70
4
9
$ACADVER
1
AC1014
9
$HANDSEED
5
FFFF
0
ENDSEC
0
SECTION
2
TABLES
0
TABLE
2
VPORT
5
8
100
AcDbSymbolTable
0
ENDTAB
0
TABLE
2
LTYPE
5
5
100
AcDbSymbolTable
0
LTYPE
5
14
100
AcDbSymbolTableRecord
100
AcDbLinetypeTableRecord
2
BYBLOCK
70
0
0
LTYPE
5
15
100
AcDbSymbolTableRecord
100
AcDbLinetypeTableRecord
2
BYLAYER
70
0
0
ENDTAB
0
TABLE
2
LAYER
5
2
100
AcDbSymbolTable
70
2
0
LAYER
5
50
100
AcDbSymbolTableRecord
100
AcDbLayerTableRecord
2
0
70
0
6
CONTINUOUS
0
ENDTAB
0
TABLE
2
STYLE
5
3
100
AcDbSymbolTable
70
1
0
STYLE
5
11
100
AcDbSymbolTableRecord
100
AcDbTextStyleTableRecord
2
STANDARD
70
0
0
ENDTAB
0
TABLE
2
VIEW
5
6
100
AcDbSymbolTable
70
0
0
ENDTAB
0
TABLE
2
UCS
5
7
100
AcDbSymbolTable
70
0
0
ENDTAB
0
TABLE
2
APPID
5
9
100
AcDbSymbolTable
70
2
0
APPID
5
12
100
AcDbSymbolTableRecord
100
AcDbRegAppTableRecord
2
ACAD
70
0
0
ENDTAB
0
TABLE
2
DIMSTYLE
5
A
100
AcDbSymbolTable
70
1
0
ENDTAB
0
TABLE
2
BLOCK_RECORD
5
1
100
AcDbSymbolTable
70
1
0
BLOCK_RECORD
5
1F
100
AcDbSymbolTableRecord
100
AcDbBlockTableRecord
2
*MODEL_SPACE
0
BLOCK_RECORD
5
1B
100
AcDbSymbolTableRecord
100
AcDbBlockTableRecord
2
*PAPER_SPACE
0
ENDTAB
0
ENDSEC
0
SECTION
2
BLOCKS
0
BLOCK
5
20
100
AcDbEntity
100
AcDbBlockBegin
2
*MODEL_SPACE
0
ENDBLK
5
21
100
AcDbEntity
100
AcDbBlockEnd
0
BLOCK
5
1C
100
AcDbEntity
100
AcDbBlockBegin
2
*PAPER_SPACE
0
ENDBLK
5
1D
100
AcDbEntity
100
AcDbBlockEnd
0
ENDSEC
0
SECTION
2
ENTITIES
0
LWPOLYLINE
5
100
100
AcDbEntity
8
0
100
AcDbPolyline
90
13
70
1
43
0.0
10
359.14170902323565
20
-4.2116425951363867
42
-0.41421356237312279
10
360.64170902323582
20
-5.711642595136297
10
360.64170902324736
20
-162.71164259514066
42
-0.41421356237309503
10
359.14170902324747
20
-164.2116425951408
10
187.14170902324756
20
-164.21164259515308
42
-0.41421356237308815
10
185.64170902324747
20
-162.71164259515308
10
185.64170902323917
20
-49.211642595149968
10
40.981504189493876
20
-49.211642595160292
42
-0.17632698070849212
10
40.017322774964001
20
-48.860709259838785
10
11.17752760870771
20
-24.661247772607663
42
-0.22169466264297108
10
10.641709023237407
20
-23.512181107929202
10
10.641709023236089
20
-5.7116425951612095
42
-0.41421356237310719
10
12.141709023235947
20
-4.211642595161063
0
LWPOLYLINE
5
101
100
AcDbEntity
8
0
100
AcDbPolyline
90
6
70
1
43
0.0
10
205.64170902324605
20
-144.21164259515115
10
340.64170902324599
20
-144.21164259514154
10
340.64170902324054
20
-69.211642595139523
10
316.80663717135485
20
-49.211642595140653
10
229.47678087512321
20
-49.211642595146856
10
205.64170902324062
20
-69.211642595149087
0
CIRCLE
5
102
100
AcDbEntity
8
0
100
AcDbCircle
10
195.64170902324685
20
-154.21164259515211
30
0
40
2.2500000000000582
0
CIRCLE
5
103
100
AcDbEntity
8
0
100
AcDbCircle
10
350.64170902324679
20
-154.21164259514111
30
0
40
2.2500000000000582
0
CIRCLE
5
104
100
AcDbEntity
8
0
100
AcDbCircle
10
195.64170902323661
20
-14.211642595148298
30
0
40
2.2500000000000604
0
CIRCLE
5
105
100
AcDbEntity
8
0
100
AcDbCircle
10
350.64170902323644
20
-14.211642595137279
30
0
40
2.2500000000000604
0
CIRCLE
5
106
100
AcDbEntity
8
0
100
AcDbCircle
10
20.641709023236672
20
-14.211642595160736
30
0
40
2.2500000000000626
0
LWPOLYLINE
5
107
100
AcDbEntity
8
0
100
AcDbPolyline
90
13
70
1
43
0.0
10
4.3062954891574048
20
-215.38916197462828
42
-0.41421356237310053
10
2.8062954891574119
20
-213.88916197462834
10
2.8062954891578071
20
-56.889161974628436
42
-0.41421356237308443
10
4.3062954891577476
20
-55.389161974628472
10
176.30629548915732
20
-55.389161974629062
42
-0.41421356237312457
10
177.80629548915729
20
-56.889161974629054
10
177.80629548915704
20
-170.38916197462896
10
322.46650032290205
20
-170.38916197462942
42
-0.17632698070848893
10
323.43068173743183
20
-170.7400953099509
10
352.2704769036863
20
-194.93955679718351
42
-0.22169466264297108
10
352.80629548915647
20
-196.088623461862
10
352.80629548915647
20
-213.88916197462945
42
-0.41421356237311585
10
351.30629548915641
20
-215.38916197462947
0
LWPOLYLINE
5
108
100
AcDbEntity
8
0
100
AcDbPolyline
90
6
70
1
43
0.0
10
157.80629548915729
20
-75.389161974628948
10
22.806295489157684
20
-75.389161974628522
10
22.806295489157506
20
-150.38916197462842
10
46.641367341041601
20
-170.38916197462851
10
133.97122363727308
20
-170.38916197462882
10
157.80629548915715
20
-150.38916197462888
0
CIRCLE
5
109
100
AcDbEntity
8
0
100
AcDbCircle
10
167.80629548915729
20
-65.38916197462899
30
0
40
2.2499999999999947
0
CIRCLE
5
110
100
AcDbEntity
8
0
100
AcDbCircle
10
12.806295489157733
20
-65.389161974628507
30
0
40
2.2499999999999947
0
CIRCLE
5
111
100
AcDbEntity
8
0
100
AcDbCircle
10
167.80629548915698
20
-205.38916197462885
30
0
40
2.2499999999999969
0
CIRCLE
5
112
100
AcDbEntity
8
0
100
AcDbCircle
10
12.806295489157405
20
-205.38916197462837
30
0
40
2.2499999999999969
0
CIRCLE
5
113
100
AcDbEntity
8
0
100
AcDbCircle
10
342.80629548915647
20
-205.38916197462942
30
0
40
2.2499999999999991
0
CIRCLE
5
114
100
AcDbEntity
8
0
100
AcDbCircle
10
18.86850611514361
20
-232.1899135443312
30
0
40
2.2499999999999547
0
CIRCLE
5
115
100
AcDbEntity
8
0
100
AcDbCircle
10
18.868506115148158
20
-282.18991354433018
30
0
40
2.2499999999999503
0
CIRCLE
5
116
100
AcDbEntity
8
0
100
AcDbCircle
10
159.86850611514771
20
-307.18991354431705
30
0
40
2.2499999999999591
0
CIRCLE
5
117
100
AcDbEntity
8
0
100
AcDbCircle
10
159.8685061151499
20
-331.18991354431665
30
0
40
2.2499999999999503
0
CIRCLE
5
118
100
AcDbEntity
8
0
100
AcDbCircle
10
117.86850611514848
20
-307.1899135443208
30
0
40
2.2499999999999503
0
CIRCLE
5
119
100
AcDbEntity
8
0
100
AcDbCircle
10
117.86850611515064
20
-331.1899135443204
30
0
40
2.2499999999999503
0
LWPOLYLINE
5
120
100
AcDbEntity
8
0
100
AcDbPolyline
90
14
70
1
43
0.0
10
43.78761314313288
20
-274.18991354432814
10
57.65149818011772
20
-274.18991354432683
10
91.020598772757197
20
-302.1899135443233
10
182.14272378179916
20
-302.18991354431523
10
192.86850611514723
20
-311.18991354431409
10
192.86850611514961
20
-336.18991354431358
10
84.868506115151646
20
-336.18991354432325
10
46.732391152134582
20
-304.18991354432728
10
32.868506115149856
20
-304.18991354432853
10
4.8685061151483113
20
-280.69512387136768
10
4.8685061151430498
20
-222.68991354433265
10
18.86850611514275
20
-222.68991354433143
10
32.868506115143518
20
-234.43730838081188
10
32.868506115146296
20
-265.02769486436102
0
CIRCLE
5
121
100
AcDbEntity
8
0
100
AcDbCircle
10
217.91497314142811
20
-326.07473959565363
30
0
40
2.24999999999998
0
CIRCLE
5
122
100
AcDbEntity
8
0
100
AcDbCircle
10
217.91497314142356
20
-276.07473959565402
30
0
40
2.2499999999999756
0
CIRCLE
5
123
100
AcDbEntity
8
0
100
AcDbCircle
10
76.914973141422649
20
-251.07473959566698
30
0
40
2.2499999999999845
0
CIRCLE
5
124
100
AcDbEntity
8
0
100
AcDbCircle
10
76.914973141420475
20
-227.07473959566713
30
0
40
2.2499999999999756
0
CIRCLE
5
125
100
AcDbEntity
8
0
100
AcDbCircle
10
118.91497314142227
20
-251.0747395956632
30
0
40
2.2499999999999756
0
CIRCLE
5
126
100
AcDbEntity
8
0
100
AcDbCircle
10
118.91497314142009
20
-227.07473959566335
30
0
40
2.2499999999999756
0
LWPOLYLINE
5
127
100
AcDbEntity
8
0
100
AcDbPolyline
90
14
70
1
43
0.0
10
192.99586611343855
20
-284.07473959565618
10
179.13198107645357
20
-284.07473959565749
10
145.7628804838138
20
-256.07473959566073
10
54.640755474770927
20
-256.07473959566886
10
43.91497314142277
20
-247.07473959566988
10
43.914973141420376
20
-222.07473959567011
10
151.91497314141941
20
-222.07473959566045
10
190.05108810443684
20
-254.07473959565675
10
203.91497314142171
20
-254.0747395956555
10
231.91497314142353
20
-277.56952926861658
10
231.91497314142879
20
-335.5747395956522
10
217.91497314142896
20
-335.57473959565351
10
203.91497314142805
20
-323.82734475917295
10
203.91497314142524
20
-293.23695827562341
0
LWPOLYLINE
5
128
100
AcDbEntity
8
0
100
AcDbPolyline
90
24
70
1
43
0.0
10
459.91651381589463
20
-307.8579655036803
42
-0.17632698070850161
10
458.95233240136486
20
-307.50703216835871
10
446.85714574225614
20
-297.35796550368025
10
306.85714574225665
20
-297.35796550368002
10
294.76195908314787
20
-307.50703216835842
42
-0.17632698070849018
10
293.79777766861815
20
-307.85796550367996
10
244.85714574225682
20
-307.85796550367985
10
244.85714574225682
20
-296.35796550367991
10
258.85714574225682
20
-296.35796550367991
10
258.85714574225688
20
-236.35796550368008
10
244.85714574225688
20
-236.35796550368002
10
244.85714574225685
20
-224.85796550368005
10
293.79777766861815
20
-224.85796550368008
42
-0.17632698070848216
10
294.76195908314799
20
-225.20889883900165
10
306.85714574225671
20
-235.35796550368013
10
446.85714574225619
20
-235.35796550368042
10
458.95233240136486
20
-225.20889883900196
42
-0.17632698070851238
10
459.91651381589463
20
-224.85796550368042
10
489.85714574225602
20
-224.8579655036805
10
489.85714574225608
20
-236.35796550368048
10
475.85714574225614
20
-236.35796550368048
10
475.85714574225597
20
-296.3579655036803
10
489.85714574225597
20
-296.35796550368036
10
489.85714574225602
20
-307.85796550368036
0
CIRCLE
5
129
100
AcDbEntity
8
0
100
AcDbCircle
10
482.85714574225608
20
-230.35796550368048
30
0
40
2.249999999999996
0
CIRCLE
5
130
100
AcDbEntity
8
0
100
AcDbCircle
10
251.85714574225685
20
-230.35796550368005
30
0
40
2.2500000000000004
0
CIRCLE
5
131
100
AcDbEntity
8
0
100
AcDbCircle
10
459.85714574225619
20
-253.35796550368036
30
0
40
2.2499999999999916
0
CIRCLE
5
132
100
AcDbEntity
8
0
100
AcDbCircle
10
482.85714574225608
20
-302.3579655036803
30
0
40
2.249999999999996
0
CIRCLE
5
133
100
AcDbEntity
8
0
100
AcDbCircle
10
251.85714574225676
20
-302.35796550367991
30
0
40
2.2500000000000004
0
CIRCLE
5
134
100
AcDbEntity
8
0
100
AcDbCircle
10
459.85714574225608
20
-279.35796550368036
30
0
40
2.2499999999999916
0
CIRCLE
5
135
100
AcDbEntity
8
0
100
AcDbCircle
10
433.85714574225619
20
-279.3579655036803
30
0
40
2.2499999999999916
0
CIRCLE
5
136
100
AcDbEntity
8
0
100
AcDbCircle
10
433.85714574225625
20
-253.35796550368033
30
0
40
2.2499999999999916
0
CIRCLE
5
137
100
AcDbEntity
8
0
100
AcDbCircle
10
382.85714574225642
20
-253.35796550368025
30
0
40
2.249999999999996
0
CIRCLE
5
138
100
AcDbEntity
8
0
100
AcDbCircle
10
370.85714574225648
20
-253.35796550368025
30
0
40
2.249999999999996
0
CIRCLE
5
139
100
AcDbEntity
8
0
100
AcDbCircle
10
319.85714574225665
20
-253.35796550368013
30
0
40
2.2499999999999916
0
CIRCLE
5
140
100
AcDbEntity
8
0
100
AcDbCircle
10
319.85714574225659
20
-279.35796550368008
30
0
40
2.2499999999999916
0
CIRCLE
5
141
100
AcDbEntity
8
0
100
AcDbCircle
10
293.85714574225671
20
-279.35796550368002
30
0
40
2.2499999999999916
0
CIRCLE
5
142
100
AcDbEntity
8
0
100
AcDbCircle
10
293.85714574225676
20
-253.35796550368005
30
0
40
2.2499999999999916
0
LWPOLYLINE
5
143
100
AcDbEntity
8
0
100
AcDbPolyline
90
8
70
1
43
0.0
10
400.02403684854903
20
-330.08538293982315
42
-0.41421356237309503
10
398.52403684854903
20
-331.58538293982309
10
241.5240368485496
20
-331.58538293982218
42
-0.41421356237310197
10
240.0240368485496
20
-330.08538293982224
10
240.02403684854966
20
-313.0853829398223
42
-0.41421356237312279
10
241.52403684854966
20
-311.5853829398223
10
398.5240368485492
20
-311.58538293982315
42
-0.41421356237306034
10
400.02403684854914
20
-313.08538293982315
0
CIRCLE
5
144
100
AcDbEntity
8
0
100
AcDbCircle
10
250.0240368485496
20
-321.58538293982235
30
0
40
3.2499999999999933
0
CIRCLE
5
145
100
AcDbEntity
8
0
100
AcDbCircle
10
270.02403684854954
20
-321.58538293982247
30
0
40
3.2499999999999933
0
CIRCLE
5
146
100
AcDbEntity
8
0
100
AcDbCircle
10
370.0240368485492
20
-321.58538293982298
30
0
40
3.2499999999999933
0
CIRCLE
5
147
100
AcDbEntity
8
0
100
AcDbCircle
10
390.02403684854914
20
-321.58538293982309
30
0
40
3.2499999999999933
0
LWPOLYLINE
5
148
100
AcDbEntity
8
0
100
AcDbPolyline
90
8
70
1
43
0.0
10
565.55025853130451
20
-329.96154097567899
42
-0.41421356237309503
10
564.05025853130451
20
-331.46154097567893
10
407.05025853130797
20
-331.46154097567933
42
-0.41421356237308116
10
405.55025853130803
20
-329.96154097567938
10
405.55025853130792
20
-312.96154097567972
42
-0.41421356237309503
10
407.05025853130792
20
-311.46154097567972
10
564.05025853130451
20
-311.46154097567938
42
-0.41421356237306034
10
565.55025853130439
20
-312.96154097567933
0
CIRCLE
5
149
100
AcDbEntity
8
0
100
AcDbCircle
10
415.55025853130769
20
-321.4615409756795
30
0
40
3.2499999999999312
0
CIRCLE
5
150
100
AcDbEntity
8
0
100
AcDbCircle
10
435.55025853130729
20
-321.46154097567944
30
0
40
3.2499999999999312
0
CIRCLE
5
151
100
AcDbEntity
8
0
100
AcDbCircle
10
535.55025853130508
20
-321.46154097567921
30
0
40
3.2499999999999312
0
CIRCLE
5
152
100
AcDbEntity
8
0
100
AcDbCircle
10
555.55025853130462
20
-321.46154097567916
30
0
40
3.2499999999999312
0
LWPOLYLINE
5
153
100
AcDbEntity
8
0
100
AcDbPolyline
90
26
70
1
43
0.0
10
549.67694780611782
20
-297.89885201444145
42
-0.17632698070842859
10
548.71276639158805
20
-297.54791867912002
10
545.55573167693569
20
-294.89885201444173
10
527.05573167693592
20
-294.89885201444304
42
-0.41421356237312279
10
525.55573167693569
20
-293.39885201444315
10
525.55573167693444
20
-276.39885201444321
42
-0.41421356237306034
10
527.05573167693433
20
-274.89885201444315
10
684.05573167693342
20
-274.89885201443195
42
-0.41421356237303258
10
685.55573167693353
20
-276.39885201443172
10
685.55573167693501
20
-293.39885201443167
42
-0.41421356237312978
10
684.05573167693501
20
-294.89885201443178
10
665.55573167693512
20
-294.89885201443309
10
662.39869696228311
20
-297.54791867911177
42
-0.17632698070855313
10
661.43451554775322
20
-297.89885201443337
10
639.55573167693547
20
-297.89885201443496
10
630.55573167693603
20
-305.45074869503105
10
630.55573167693649
20
-312.53546801675645
42
-0.22169466264291901
10
630.01991309146638
20
-313.68453468143491
10
624.22395774006748
20
-318.54791867911445
42
-0.17632698070850278
10
623.2597763255377
20
-318.89885201443605
10
587.85168702833653
20
-318.89885201443855
42
-0.1763269807084232
10
586.88750561380675
20
-318.54791867911717
10
581.09155026240705
20
-313.68453468143844
42
-0.22169466264291784
10
580.55573167693672
20
-312.53546801676003
10
580.55573167693626
20
-305.45074869503469
10
571.55573167693569
20
-297.89885201443985
0
CIRCLE
5
154
100
AcDbEntity
8
0
100
AcDbCircle
10
623.80573167693592
20
-304.89885201443605
30
0
40
2.2499999999999911
0
CIRCLE
5
155
100
AcDbEntity
8
0
100
AcDbCircle
10
605.55573167693615
20
-304.89885201443735
30
0
40
4.9999999999999813
0
CIRCLE
5
156
100
AcDbEntity
8
0
100
AcDbCircle
10
555.5557316769349
20
-284.89885201444105
30
0
40
3.2499999999999876
0
CIRCLE
5
157
100
AcDbEntity
8
0
100
AcDbCircle
10
587.30573167693615
20
-304.89885201443872
30
0
40
2.2499999999999911
0
CIRCLE
5
158
100
AcDbEntity
8
0
100
AcDbCircle
10
535.55573167693501
20
-284.89885201444247
30
0
40
3.2499999999999876
0
CIRCLE
5
159
100
AcDbEntity
8
0
100
AcDbCircle
10
655.55573167693433
20
-284.89885201443383
30
0
40
3.2499999999999876
0
CIRCLE
5
160
100
AcDbEntity
8
0
100
AcDbCircle
10
675.55573167693422
20
-284.89885201443246
30
0
40
3.2499999999999876
0
LWPOLYLINE
5
161
100
AcDbEntity
8
0
100
AcDbPolyline
90
26
70
1
43
0.0
10
668.05611759458338
20
-240.51976134232322
42
-0.17632698070848069
10
669.02029900911327
20
-240.87069467764482
10
672.17733372376529
20
-243.51976134232331
10
690.67733372376506
20
-243.51976134232336
42
-0.41421356237310197
10
692.17733372376506
20
-245.01976134232333
10
692.17733372376506
20
-262.01976134232314
42
-0.41421356237310897
10
690.67733372376506
20
-263.51976134232308
10
533.67733372376722
20
-263.51976134232274
42
-0.41421356237306034
10
532.17733372376733
20
-262.01976134232279
10
532.17733372376733
20
-245.01976134232302
42
-0.41421356237309503
10
533.67733372376733
20
-243.51976134232302
10
552.17733372376699
20
-243.51976134232305
10
555.33436843841912
20
-240.87069467764462
42
-0.17632698070847427
10
556.2985498529489
20
-240.51976134232314
10
578.17733372376676
20
-240.51976134232314
10
587.17733372376654
20
-232.96786466172776
10
587.17733372376654
20
-225.8831453400025
42
-0.22169466264295315
10
587.71315230923676
20
-224.73407867532404
10
593.509107660636
20
-219.87069467764488
42
-0.1763269807084849
10
594.47328907516578
20
-219.51976134232342
10
629.88137837236661
20
-219.51976134232353
42
-0.1763269807085085
10
630.84555978689639
20
-219.87069467764502
10
636.64151513829563
20
-224.73407867532413
42
-0.22169466264295315
10
637.17733372376586
20
-225.88314534000259
10
637.17733372376597
20
-232.96786466172787
10
646.17733372376563
20
-240.51976134232325
0
CIRCLE
5
162
100
AcDbEntity
8
0
100
AcDbCircle
10
593.92733372376642
20
-233.51976134232328
30
0
40
2.2499999999999698
0
CIRCLE
5
163
100
AcDbEntity
8
0
100
AcDbCircle
10
612.1773337237662
20
-233.51976134232331
30
0
40
4.9999999999999352
0
CIRCLE
5
164
100
AcDbEntity
8
0
100
AcDbCircle
10
662.1773337237654
20
-253.51976134232314
30
0
40
3.2499999999999574
0
CIRCLE
5
165
100
AcDbEntity
8
0
100
AcDbCircle
10
630.42733372376597
20
-233.51976134232333
30
0
40
2.2499999999999698
0
CIRCLE
5
166
100
AcDbEntity
8
0
100
AcDbCircle
10
682.17733372376517
20
-253.51976134232319
30
0
40
3.2499999999999574
0
CIRCLE
5
167
100
AcDbEntity
8
0
100
AcDbCircle
10
562.17733372376688
20
-253.51976134232297
30
0
40
3.2499999999999574
0
CIRCLE
5
168
100
AcDbEntity
8
0
100
AcDbCircle
10
542.17733372376711
20
-253.51976134232291
30
0
40
3.2499999999999574
0
LWPOLYLINE
5
169
100
AcDbEntity
8
0
100
AcDbPolyline
90
13
70
1
43
0.0
10
368.30821861231345
20
-214.89583984548943
42
-0.41421356237310197
10
366.80821861231351
20
-213.39583984548949
10
366.80821861231317
20
-56.395839845489775
42
-0.41421356237309681
10
368.30821861231311
20
-54.895839845489789
10
540.30821861231198
20
-54.895839845489419
42
-0.41421356237307422
10
541.80821861231209
20
-56.395839845489434
10
541.80821861231243
20
-169.89583984548921
10
686.46842344605693
20
-169.89583984548892
42
-0.17632698070855096
10
687.43260486058671
20
-170.24677318081046
10
716.2724000268413
20
-194.44623466804276
42
-0.22169466264288362
10
716.80821861231141
20
-195.59530133272131
10
716.80821861231152
20
-213.39583984548878
42
-0.41421356237303952
10
715.30821861231152
20
-214.89583984548881
0
LWPOLYLINE
5
170
100
AcDbEntity
8
0
100
AcDbPolyline
90
6
70
1
43
0.0
10
521.8082186123122
20
-74.895839845489448
10
386.80821861231311
20
-74.895839845489718
10
386.80821861231328
20
-149.89583984548958
10
410.64329046419732
20
-169.89583984548946
10
497.97314676042851
20
-169.89583984548932
10
521.80821861231243
20
-149.89583984548929
0
CIRCLE
5
171
100
AcDbEntity
8
0
100
AcDbCircle
10
531.8082186123122
20
-64.895839845489434
30
0
40
2.2499999999999925
0
CIRCLE
5
172
100
AcDbEntity
8
0
100
AcDbCircle
10
376.80821861231311
20
-64.895839845489746
30
0
40
2.2499999999999925
0
CIRCLE
5
173
100
AcDbEntity
8
0
100
AcDbCircle
10
531.80821861231254
20
-204.89583984548918
30
0
40
2.2499999999999947
0
CIRCLE
5
174
100
AcDbEntity
8
0
100
AcDbCircle
10
376.80821861231345
20
-204.89583984548949
30
0
40
2.2499999999999947
0
CIRCLE
5
175
100
AcDbEntity
8
0
100
AcDbCircle
10
706.80821861231152
20
-204.89583984548884
30
0
40
2.2499999999999969
0
LWPOLYLINE
5
176
100
AcDbEntity
8
0
100
AcDbPolyline
90
13
70
1
43
0.0
10
722.04573910804572
20
-4.5676960795714363
42
-0.41421356237302198
10
723.54573910804606
20
-6.067696079571121
10
723.54573910806835
20
-163.06769607956932
42
-0.4142135623730257
10
722.04573910806857
20
-164.56769607956949
10
550.04573910807028
20
-164.56769607959404
42
-0.41421356237306034
10
548.54573910807005
20
-163.06769607959438
10
548.54573910805379
20
-49.567696079595756
10
403.88553427430986
20
-49.567696079616525
42
-0.17632698070847655
10
402.92135285977997
20
-49.216762744295096
10
374.0815576935222
20
-25.017301257067011
42
-0.22169466264296991
10
373.54573910805186
20
-23.868234592388653
10
373.54573910804936
20
-6.067696079621375
42
-0.41421356237309009
10
375.04573910804913
20
-4.567696079621177
0
LWPOLYLINE
5
177
100
AcDbEntity
8
0
100
AcDbPolyline
90
6
70
1
43
0.0
10
568.54573910806721
20
-144.56769607959174
10
703.54573910806596
20
-144.56769607957239
10
703.54573910805516
20
-69.567696079573295
10
679.71066725616834
20
-49.567696079576955
10
592.38081095993743
20
-49.567696079589467
10
568.54573910805652
20
-69.56769607959265
0
CIRCLE
5
178
100
AcDbEntity
8
0
100
AcDbCircle
10
558.54573910806869
20
-154.56769607959305
30
0
40
2.2499999999999751
0
CIRCLE
5
179
100
AcDbEntity
8
0
100
AcDbCircle
10
713.54573910806721
20
-154.56769607957082
30
0
40
2.2499999999999751
0
CIRCLE
5
180
100
AcDbEntity
8
0
100
AcDbCircle
10
558.54573910804879
20
-14.567696079594743
30
0
40
2.2499999999999778
0
CIRCLE
5
181
100
AcDbEntity
8
0
100
AcDbCircle
10
713.54573910804731
20
-14.567696079572517
30
0
40
2.2499999999999778
0
CIRCLE
5
182
100
AcDbEntity
8
0
100
AcDbCircle
10
383.54573910805044
20
-14.567696079619839
30
0
40
2.2499999999999796
0
LWPOLYLINE
5
183
100
AcDbEntity
8
0
100
AcDbPolyline
90
22
70
1
43
0.0
10
890.4389467025519
20
-308.09045019395865
42
-0.41421356237303952
10
888.93894670255179
20
-309.59045019395865
10
850.4389467025519
20
-309.59045019395853
10
850.43894670255213
20
-328.09045019395847
42
-0.41421356237315055
10
848.93894670255179
20
-329.59045019395842
10
771.93894670255213
20
-329.59045019395808
42
-0.41421356237303952
10
770.43894670255224
20
-328.09045019395819
10
770.43894670255224
20
-309.59045019395825
10
731.93894670255247
20
-309.59045019395813
42
-0.41421356237303952
10
730.43894670255236
20
-308.09045019395808
10
730.4389467025527
20
-171.09045019395842
42
-0.41421356237306034
10
731.93894670255293
20
-169.59045019395842
10
748.93894670255281
20
-169.59045019395862
42
-0.41421356237308815
10
750.4389467025527
20
-171.0904501939585
10
750.43894670255258
20
-252.80845757041266
10
770.43894670255224
20
-269.5904501939583
10
850.43894670255202
20
-269.59045019395859
10
870.4389467025519
20
-252.80845757041311
10
870.43894670255213
20
-171.0904501939589
42
-0.41421356237303952
10
871.93894670255213
20
-169.59045019395887
10
888.93894670255213
20
-169.59045019395904
42
-0.41421356237304652
10
890.43894670255202
20
-171.09045019395899
0
CIRCLE
5
184
100
AcDbEntity
8
0
100
AcDbCircle
10
833.93894670255213
20
-276.09045019395853
30
0
40
2.2499999999999911
0
CIRCLE
5
185
100
AcDbEntity
8
0
100
AcDbCircle
10
786.93894670255236
20
-276.09045019395836
30
0
40
2.2499999999999956
0
CIRCLE
5
186
100
AcDbEntity
8
0
100
AcDbCircle
10
880.4389467025519
20
-279.59045019395865
30
0
40
2.2499999999999956
0
CIRCLE
5
187
100
AcDbEntity
8
0
100
AcDbCircle
10
880.43894670255213
20
-179.5904501939589
30
0
40
2.2499999999999911
0
CIRCLE
5
188
100
AcDbEntity
8
0
100
AcDbCircle
10
833.9389467025519
20
-323.09045019395842
30
0
40
2.2499999999999911
0
CIRCLE
5
189
100
AcDbEntity
8
0
100
AcDbCircle
10
786.93894670255213
20
-323.09045019395825
30
0
40
2.2499999999999956
0
CIRCLE
5
190
100
AcDbEntity
8
0
100
AcDbCircle
10
740.4389467025527
20
-179.59045019395842
30
0
40
2.2499999999999911
0
CIRCLE
5
191
100
AcDbEntity
8
0
100
AcDbCircle
10
740.43894670255236
20
-279.59045019395819
30
0
40
2.2499999999999956
0
ARC
5
192
100
AcDbEntity
8
0
100
AcDbCircle
10
825.9389467025519
20
-315.09045019395836
30
0
40
2.0000000000000715
100
AcDbArc
50
-135
51
44.999999999998849
0
LINE
5
193
100
AcDbEntity
8
0
100
AcDbLine
10
824.5247331401788
20
-316.50466375633147
30
0
11
822.45622598349314
21
-314.43615659964564
31
0
0
ARC
5
194
100
AcDbEntity
8
0
100
AcDbCircle
10
810.43894670255224
20
-299.59045019395847
30
0
40
19.099999999999874
100
AcDbArc
50
231.01057632025598
51
308.98942367974331
0
LINE
5
195
100
AcDbEntity
8
0
100
AcDbLine
10
798.42166742161112
20
-314.43615659964553
30
0
11
796.35316026492535
21
-316.50466375633141
31
0
0
ARC
5
196
100
AcDbEntity
8
0
100
AcDbCircle
10
794.93894670255202
20
-315.09045019395836
30
0
40
1.9999999999998954
100
AcDbArc
50
134.99999999999426
51
315.00000000000574
0
LINE
5
197
100
AcDbEntity
8
0
100
AcDbLine
10
793.52473314017914
20
-313.6762366315852
30
0
11
795.59324029686491
21
-311.60772947489937
31
0
0
ARC
5
198
100
AcDbEntity
8
0
100
AcDbCircle
10
810.43894670255224
20
-299.59045019395847
30
0
40
19.100000000000072
100
AcDbArc
50
141.01057632025652
51
218.98942367974297
0
LINE
5
199
100
AcDbEntity
8
0
100
AcDbLine
10
795.59324029686491
20
-287.57317091301735
30
0
11
793.52473314017914
21
-285.50466375633147
31
0
0
ARC
5
200
100
AcDbEntity
8
0
100
AcDbCircle
10
794.93894670255236
20
-284.09045019395842
30
0
40
2.0000000000000715
100
AcDbArc
50
45.000000000001151
51
224.99999999999653
0
LINE
5
201
100
AcDbEntity
8
0
100
AcDbLine
10
796.35316026492546
20
-282.67623663158525
30
0
11
798.42166742161112
21
-284.74474378827108
31
0
0
ARC
5
202
100
AcDbEntity
8
0
100
AcDbCircle
10
810.43894670255224
20
-299.59045019395847
30
0
40
19.099999999999888
100
AcDbArc
50
51.010576320256924
51
128.98942367974342
0
LINE
5
203
100
AcDbEntity
8
0
100
AcDbLine
10
822.45622598349314
20
-284.74474378827119
30
0
11
824.52473314017891
21
-282.67623663158537
31
0
0
ARC
5
204
100
AcDbEntity
8
0
100
AcDbCircle
10
825.93894670255213
20
-284.09045019395847
30
0
40
1.9999999999999709
100
AcDbArc
50
-45.000000006934222
51
135.0000000000023
0
LINE
5
205
100
AcDbEntity
8
0
100
AcDbLine
10
827.35316026475402
20
-285.50466375650268
30
0
11
825.28465310823935
21
-287.57317091301741
31
0
0
ARC
5
206
100
AcDbEntity
8
0
100
AcDbCircle
10
810.43894670255224
20
-299.59045019395847
30
0
40
19.099999999999739
100
AcDbArc
50
-38.989423679743517
51
38.989423679743794
0
LINE
5
207
100
AcDbEntity
8
0
100
AcDbLine
10
825.28465310823935
20
-311.60772947489943
30
0
11
827.35316026492512
21
-313.6762366315852
31
0
0
CIRCLE
5
208
100
AcDbEntity
8
0
100
AcDbCircle
10
796.05752108726949
20
-130.73462994249823
30
0
40
2.2499999999999893
0
CIRCLE
5
209
100
AcDbEntity
8
0
100
AcDbCircle
10
776.05752108726938
20
-245.73462994249783
30
0
40
2.2500000000000071
0
CIRCLE
5
210
100
AcDbEntity
8
0
100
AcDbCircle
10
796.05752108726938
20
-205.73462994249803
30
0
40
2.2499999999999893
0
CIRCLE
5
211
100
AcDbEntity
8
0
100
AcDbCircle
10
796.05752108726961
20
-90.734629942498358
30
0
40
2.2499999999999916
0
CIRCLE
5
212
100
AcDbEntity
8
0
100
AcDbCircle
10
776.05752108726972
20
-90.734629942498302
30
0
40
2.2499999999999916
0
CIRCLE
5
213
100
AcDbEntity
8
0
100
AcDbCircle
10
796.05752108726938
20
-245.73462994249786
30
0
40
2.2500000000000071
0
LWPOLYLINE
5
214
100
AcDbEntity
8
0
100
AcDbPolyline
90
8
70
1
43
0.0
10
767.55752108726938
20
-255.73462994249783
42
-0.41421356237303952
10
766.05752108726938
20
-254.23462994249775
10
766.05752108726972
20
-82.234629942498302
42
-0.41421356237306034
10
767.55752108726961
20
-80.734629942498302
10
804.55752108726961
20
-80.734629942498543
42
-0.4142135623730257
10
806.05752108726949
20
-82.234629942498401
10
806.05752108726938
20
-254.23462994249789
42
-0.41421356237303258
10
804.55752108726927
20
-255.73462994249786
0
CIRCLE
5
215
100
AcDbEntity
8
0
100
AcDbCircle
10
844.89028693790578
20
-128.61138141069912
30
0
40
2.2499999999999893
0
CIRCLE
5
216
100
AcDbEntity
8
0
100
AcDbCircle
10
824.89028693790556
20
-243.61138141069875
30
0
40
2.2500000000000071
0
CIRCLE
5
217
100
AcDbEntity
8
0
100
AcDbCircle
10
844.89028693790556
20
-203.61138141069887
30
0
40
2.2499999999999893
0
CIRCLE
5
218
100
AcDbEntity
8
0
100
AcDbCircle
10
844.89028693790578
20
-88.611381410699238
30
0
40
2.2499999999999916
0
CIRCLE
5
219
100
AcDbEntity
8
0
100
AcDbCircle
10
824.8902869379059
20
-88.611381410699209
30
0
40
2.2499999999999916
0
CIRCLE
5
220
100
AcDbEntity
8
0
100
AcDbCircle
10
844.89028693790556
20
-243.61138141069881
30
0
40
2.2500000000000071
0
LWPOLYLINE
5
221
100
AcDbEntity
8
0
100
AcDbPolyline
90
8
70
1
43
0.0
10
816.39028693790567
20
-253.61138141069861
42
-0.41421356237312279
10
814.89028693790556
20
-252.1113814106987
10
814.8902869379059
20
-80.111381410699209
42
-0.41421356237306034
10
816.39028693790578
20
-78.611381410699224
10
853.39028693790567
20
-78.611381410699366
42
-0.41421356237303952
10
854.89028693790556
20
-80.111381410699281
10
854.89028693790578
20
-252.11138141069878
42
-0.41421356237312279
10
853.39028693790556
20
-253.61138141069875
0
LWPOLYLINE
5
222
100
AcDbEntity
8
0
100
AcDbPolyline
90
22
70
1
43
0.0
10
730.19781670633233
20
-26.08210409260122
42
-0.41421356237312978
10
731.69781670633245
20
-24.582104092601025
10
770.19781670633211
20
-24.582104092595792
10
770.19781670632926
20
-6.0821040925959213
42
-0.4142135623731022
10
771.69781670632915
20
-4.5821040925957215
10
848.69781670632869
20
-4.5821040925853946
42
-0.41421356237301532
10
850.19781670632881
20
-6.0821040925850429
10
850.19781670633142
20
-24.58210409258492
10
888.6978167063312
20
-24.582104092579907
42
-0.41421356237305951
10
890.1978167063312
20
-26.082104092579499
10
890.19781670635007
20
-163.08210409257862
42
-0.41421356237313667
10
888.69781670635018
20
-164.58210409257876
10
871.6978167063503
20
-164.58210409258089
42
-0.41421356237306034
10
870.1978167063503
20
-163.08210409258129
10
870.19781670633904
20
-81.36409671612742
10
850.19781670633688
20
-64.582104092584657
10
770.19781670633745
20
-64.582104092595515
10
750.19781670633984
20
-81.364096716143763
10
750.19781670635109
20
-163.0821040925976
42
-0.41421356237306733
10
748.69781670635132
20
-164.5821040925978
10
731.69781670635143
20
-164.58210409260008
42
-0.41421356237306733
10
730.1978167063512
20
-163.0821040926003
0
CIRCLE
5
223
100
AcDbEntity
8
0
100
AcDbCircle
10
786.69781670633643
20
-58.082104092593326
30
0
40
2.2499999999999813
0
CIRCLE
5
224
100
AcDbEntity
8
0
100
AcDbCircle
10
833.6978167063362
20
-58.082104092586953
30
0
40
2.2499999999999862
0
CIRCLE
5
225
100
AcDbEntity
8
0
100
AcDbCircle
10
740.19781670633631
20
-54.582104092599678
30
0
40
2.2499999999999862
0
CIRCLE
5
226
100
AcDbEntity
8
0
100
AcDbCircle
10
740.19781670634995
20
-154.58210409259902
30
0
40
2.2499999999999813
0
CIRCLE
5
227
100
AcDbEntity
8
0
100
AcDbCircle
10
786.69781670633006
20
-11.082104092593639
30
0
40
2.2499999999999813
0
CIRCLE
5
228
100
AcDbEntity
8
0
100
AcDbCircle
10
833.69781670632972
20
-11.082104092587258
30
0
40
2.2499999999999862
0
CIRCLE
5
229
100
AcDbEntity
8
0
100
AcDbCircle
10
880.19781670634893
20
-154.58210409258001
30
0
40
2.2499999999999813
0
CIRCLE
5
230
100
AcDbEntity
8
0
100
AcDbCircle
10
880.19781670633529
20
-54.58210409258065
30
0
40
2.2499999999999862
0
ARC
5
231
100
AcDbEntity
8
0
100
AcDbCircle
10
794.69781670633108
20
-19.082104092592481
30
0
40
1.9999999999999756
100
AcDbArc
50
45.000000000007979
51
225.0000000000081
0
LINE
5
232
100
AcDbEntity
8
0
100
AcDbLine
10
796.11203026870396
20
-17.667890530219207
30
0
11
798.18053742539007
21
-19.736397686904748
31
0
0
ARC
5
233
100
AcDbEntity
8
0
100
AcDbCircle
10
810.19781670633301
20
-34.582104092590235
30
0
40
19.099999999999749
100
AcDbArc
50
51.010576320264185
51
128.98942367975121
0
LINE
5
234
100
AcDbEntity
8
0
100
AcDbLine
10
822.21509598727198
20
-19.736397686901498
30
0
11
824.28360314395763
21
-17.667890530215388
31
0
0
ARC
5
235
100
AcDbEntity
8
0
100
AcDbCircle
10
825.69781670633074
20
-19.082104092588288
30
0
40
1.9999999999999929
100
AcDbArc
50
-44.999999999990692
51
135.00000000000418
0
LINE
5
236
100
AcDbEntity
8
0
100
AcDbLine
10
827.11203026870407
20
-20.496317654961164
30
0
11
825.04352311201853
21
-22.564824811647281
31
0
0
ARC
5
237
100
AcDbEntity
8
0
100
AcDbCircle
10
810.19781670633301
20
-34.582104092590235
30
0
40
19.099999999999852
100
AcDbArc
50
-38.989423679735786
51
38.989423679751198
0
LINE
5
238
100
AcDbEntity
8
0
100
AcDbLine
10
825.04352311202183
20
-46.59938337352925
30
0
11
827.11203026870794
21
-48.667890530214819
31
0
0
ARC
5
239
100
AcDbEntity
8
0
100
AcDbCircle
10
825.69781670633506
20
-50.082104092588096
30
0
40
1.9999999999999709
100
AcDbArc
50
-134.99999999999196
51
45.000000000008065
0
LINE
5
240
100
AcDbEntity
8
0
100
AcDbLine
10
824.28360314396218
20
-51.496317654961373
30
0
11
822.21509598727607
21
-49.427810498275839
31
0
0
ARC
5
241
100
AcDbEntity
8
0
100
AcDbCircle
10
810.19781670633301
20
-34.582104092590235
30
0
40
19.099999999999845
100
AcDbArc
50
231.01057632026462
51
308.98942367975127
0
LINE
5
242
100
AcDbEntity
8
0
100
AcDbLine
10
798.18053742539416
20
-49.427810498279086
30
0
11
796.11203026870851
21
-51.496317654965196
31
0
0
ARC
5
243
100
AcDbEntity
8
0
100
AcDbCircle
10
794.69781670633552
20
-50.082104092592267
30
0
40
2.000000000000103
100
AcDbArc
50
134.99999999307946
51
315.00000000000131
0
LINE
5
244
100
AcDbEntity
8
0
100
AcDbLine
10
793.28360314413317
20
-48.667890530048282
30
0
11
795.35211030064761
21
-46.599383373533307
31
0
0
ARC
5
245
100
AcDbEntity
8
0
100
AcDbCircle
10
810.19781670633301
20
-34.582104092590235
30
0
40
19.099999999999781
100
AcDbArc
50
141.01057632026428
51
218.9894236797517
0
LINE
5
246
100
AcDbEntity
8
0
100
AcDbLine
10
795.35211030064431
20
-22.564824811651334
30
0
11
793.2836031439582
21
-20.496317654965761
31
0
0
LWPOLYLINE
5
247
100
AcDbEntity
8
0
100
AcDbPolyline
90
24
70
1
43
0.0
10
919.69842943237745
20
-162.8223322290826
42
-0.41421356237312279
10
918.19842943237734
20
-164.32233222908263
10
901.19842943237722
20
-164.32233222908326
42
-0.4142135623730257
10
899.69842943237722
20
-162.82233222908329
10
899.69842943237165
20
-5.8223322290832886
42
-0.41421356237306622
10
901.19842943237154
20
-4.3223322290832353
10
923.69842943237177
20
-4.3223322290824502
10
923.698429432372
20
-14.32233222908245
42
0.99999999999999989
10
935.69842943237188
20
-14.322332229082043
10
935.69842943237154
20
-4.3223322290820363
10
1023.6984294323714
20
-4.3223322290789934
10
1023.6984294323718
20
-14.322332229078995
42
0.99999999999999989
10
1035.6984294323715
20
-14.322332229078585
10
1035.6984294323711
20
-4.3223322290785813
10
1058.1984294323713
20
-4.3223322290777801
42
-0.41421356237308055
10
1059.6984294323713
20
-5.8223322290777624
10
1059.698429432377
20
-162.82233222907774
42
-0.41421356237303952
10
1058.198429432377
20
-164.32233222907774
10
1041.198429432377
20
-164.32233222907843
42
-0.41421356237303258
10
1039.698429432377
20
-162.82233222907843
10
1039.6984294323736
20
-69.322332229078441
10
1015.8633575804889
20
-49.322332229079258
10
943.53350128425734
20
-49.322332229081809
10
919.69842943237393
20
-69.322332229082591
0
CIRCLE
5
248
100
AcDbEntity
8
0
100
AcDbCircle
10
909.69842943237336
20
-54.322332229082946
30
0
40
2.2500000000000009
0
CIRCLE
5
249
100
AcDbEntity
8
0
100
AcDbCircle
10
909.698429432377
20
-154.32233222908292
30
0
40
2.2499999999999964
0
CIRCLE
5
250
100
AcDbEntity
8
0
100
AcDbCircle
10
1049.6984294323765
20
-154.32233222907809
30
0
40
2.2499999999999964
0
CIRCLE
5
251
100
AcDbEntity
8
0
100
AcDbCircle
10
1049.6984294323731
20
-54.3223322290781
30
0
40
2.2500000000000009
0
CIRCLE
5
252
100
AcDbEntity
8
0
100
AcDbCircle
10
1049.6984294323718
20
-14.3223322290781
30
0
40
3.2499999999999996
0
CIRCLE
5
253
100
AcDbEntity
8
0
100
AcDbCircle
10
909.698429432372
20
-14.322332229082939
30
0
40
3.2499999999999996
0
LWPOLYLINE
5
254
100
AcDbEntity
8
0
100
AcDbPolyline
90
24
70
1
43
0.0
10
1039.3374572656462
20
-169.61452784873075
42
-0.41421356237303258
10
1040.8374572656462
20
-168.11452784873075
10
1057.8374572656462
20
-168.11452784873094
42
-0.41421356237312978
10
1059.3374572656462
20
-169.61452784873075
10
1059.3374572656467
20
-326.61452784873086
42
-0.41421356237312279
10
1057.8374572656464
20
-328.11452784873086
10
1035.3374572656464
20
-328.11452784873086
10
1035.3374572656464
20
-318.11452784873086
42
0.99999999999999989
10
1023.3374572656464
20
-318.11452784873086
10
1023.3374572656464
20
-328.11452784873086
10
935.33745726564666
20
-328.11452784873092
10
935.33745726564666
20
-318.11452784873092
42
0.99999999999999989
10
923.33745726564666
20
-318.11452784873097
10
923.33745726564666
20
-328.11452784873097
10
900.83745726564666
20
-328.11452784873103
42
-0.41421356237303952
10
899.33745726564666
20
-326.61452784873097
10
899.33745726564644
20
-169.61452784873086
42
-0.41421356237303952
10
900.83745726564644
20
-168.11452784873083
10
917.83745726564644
20
-168.11452784873094
42
-0.41421356237308815
10
919.33745726564644
20
-169.6145278487308
10
919.33745726564666
20
-263.11452784873086
10
943.17252911753076
20
-283.11452784873086
10
1015.5023854137623
20
-283.1145278487308
10
1039.3374572656464
20
-263.11452784873086
0
CIRCLE
5
255
100
AcDbEntity
8
0
100
AcDbCircle
10
1049.3374572656464
20
-278.1145278487308
30
0
40
2.2500000000000027
0
CIRCLE
5
256
100
AcDbEntity
8
0
100
AcDbCircle
10
1049.3374572656462
20
-178.11452784873072
30
0
40
2.2499999999999982
0
CIRCLE
5
257
100
AcDbEntity
8
0
100
AcDbCircle
10
909.33745726564644
20
-178.11452784873083
30
0
40
2.2499999999999982
0
CIRCLE
5
258
100
AcDbEntity
8
0
100
AcDbCircle
10
909.33745726564666
20
-278.11452784873092
30
0
40
2.2500000000000027
0
CIRCLE
5
259
100
AcDbEntity
8
0
100
AcDbCircle
10
909.33745726564666
20
-318.11452784873092
30
0
40
3.2500000000000022
0
CIRCLE
5
260
100
AcDbEntity
8
0
100
AcDbCircle
10
1049.3374572656464
20
-318.11452784873086
30
0
40
3.2500000000000022
0
CIRCLE
5
261
100
AcDbEntity
8
0
100
AcDbCircle
10
964.84943045730006
20
-136.52274329255482
30
0
40
2.2499999999999925
0
CIRCLE
5
262
100
AcDbEntity
8
0
100
AcDbCircle
10
944.84943045729983
20
-251.52274329255459
30
0
40
2.2500000000000102
0
CIRCLE
5
263
100
AcDbEntity
8
0
100
AcDbCircle
10
964.84943045729983
20
-211.52274329255471
30
0
40
2.2499999999999925
0
CIRCLE
5
264
100
AcDbEntity
8
0
100
AcDbCircle
10
964.84943045730006
20
-96.522743292554907
30
0
40
2.2499999999999947
0
CIRCLE
5
265
100
AcDbEntity
8
0
100
AcDbCircle
10
944.84943045730017
20
-96.52274329255485
30
0
40
2.2499999999999947
0
CIRCLE
5
266
100
AcDbEntity
8
0
100
AcDbCircle
10
964.84943045729983
20
-251.52274329255462
30
0
40
2.2500000000000102
0
LWPOLYLINE
5
267
100
AcDbEntity
8
0
100
AcDbPolyline
90
8
70
1
43
0.0
10
936.34943045729983
20
-261.52274329255459
42
-0.41421356237303952
10
934.84943045729983
20
-260.02274329255448
10
934.84943045730017
20
-88.022743292554836
42
-0.41421356237306034
10
936.34943045730006
20
-86.522743292554836
10
973.34943045730006
20
-86.522743292554793
42
-0.4142135623730257
10
974.84943045730017
20
-88.022743292554935
10
974.84943045729983
20
-260.02274329255465
42
-0.41421356237303258
10
973.34943045729972
20
-261.52274329255465
0
CIRCLE
5
268
100
AcDbEntity
8
0
100
AcDbCircle
10
1007.3880628346685
20
-140.49169224594803
30
0
40
2.2499999999999964
0
CIRCLE
5
269
100
AcDbEntity
8
0
100
AcDbCircle
10
987.38806283466886
20
-255.49169224594806
30
0
40
2.2500000000000142
0
CIRCLE
5
270
100
AcDbEntity
8
0
100
AcDbCircle
10
1007.3880628346687
20
-215.49169224594803
30
0
40
2.2499999999999964
0
CIRCLE
5
271
100
AcDbEntity
8
0
100
AcDbCircle
10
1007.3880628346684
20
-100.49169224594803
30
0
40
2.2499999999999987
0
CIRCLE
5
272
100
AcDbEntity
8
0
100
AcDbCircle
10
987.3880628346684
20
-100.49169224594806
30
0
40
2.2499999999999987
0
CIRCLE
5
273
100
AcDbEntity
8
0
100
AcDbCircle
10
1007.3880628346689
20
-255.49169224594803
30
0
40
2.2500000000000142
0
LWPOLYLINE
5
274
100
AcDbEntity
8
0
100
AcDbPolyline
90
8
70
1
43
0.0
10
978.88806283466897
20
-265.49169224594817
42
-0.41421356237303952
10
977.38806283466886
20
-263.99169224594812
10
977.3880628346684
20
-91.991692245948087
42
-0.41421356237308815
10
978.88806283466852
20
-90.491692245948087
10
1015.8880628346684
20
-90.491692245948087
42
-0.41421356237311585
10
1017.3880628346684
20
-91.991692245947974
10
1017.3880628346689
20
-263.991692245948
42
-0.41421356237303258
10
1015.8880628346687
20
-265.491692245948
0
CIRCLE
5
275
100
AcDbEntity
8
0
100
AcDbCircle
10
1119.8036584615161
20
-249.90857218796864
30
0
40
2.2499999999999978
0
CIRCLE
5
276
100
AcDbEntity
8
0
100
AcDbCircle
10
1076.3036584615181
20
-296.40857218797021
30
0
40
3.2499999999999951
0
CIRCLE
5
277
100
AcDbEntity
8
0
100
AcDbCircle
10
1076.3036584615174
20
-276.40857218797026
30
0
40
3.2499999999999951
0
LWPOLYLINE
5
278
100
AcDbEntity
8
0
100
AcDbPolyline
90
16
70
1
43
0.0
10
1111.1493648672019
20
-214.391292907028
10
1113.2178720238878
20
-212.32278575034212
42
0.99999999999999989
10
1110.3894448991414
20
-209.49435862559608
10
1108.3209377424557
20
-211.56286578228196
42
0.35401470622887793
10
1084.2863791805735
20
-211.56286578228293
10
1082.2178720238876
20
-209.49435862559716
42
0.99999999999999989
10
1079.3894448991414
20
-212.32278575034348
10
1081.4579520558275
20
-214.39129290702925
42
0.35401470622887576
10
1081.4579520558284
20
-238.42585146891133
10
1079.3894448991427
20
-240.49435862559721
42
0.99999999999999989
10
1082.217872023889
20
-243.32278575034326
10
1084.2863791805748
20
-241.25427859365738
42
0.35401470622887793
10
1108.3209377424569
20
-241.25427859365641
10
1110.3894448991427
20
-243.32278575034218
42
0.99999999999999989
10
1113.217872023889
20
-240.49435862559585
10
1111.1493648672031
20
-238.42585146891008
42
0.35401470622887576
0
CIRCLE
5
279
100
AcDbEntity
8
0
100
AcDbCircle
10
1076.3036584615124
20
-156.40857218797072
30
0
40
3.2499999999999951
0
CIRCLE
5
280
100
AcDbEntity
8
0
100
AcDbCircle
10
1170.303658461507
20
-27.408572187967479
30
0
40
2.2500000000000022
0
CIRCLE
5
281
100
AcDbEntity
8
0
100
AcDbCircle
10
1170.3036584615095
20
-84.408572187967238
30
0
40
2.2499999999999929
0
CIRCLE
5
282
100
AcDbEntity
8
0
100
AcDbCircle
10
1170.3036584615083
20
-58.408572187967351
30
0
40
2.2499999999999929
0
CIRCLE
5
283
100
AcDbEntity
8
0
100
AcDbCircle
10
1144.3036584615083
20
-58.408572187968382
30
0
40
2.2499999999999929
0
CIRCLE
5
284
100
AcDbEntity
8
0
100
AcDbCircle
10
1144.3036584615095
20
-84.408572187968289
30
0
40
2.2499999999999929
0
CIRCLE
5
285
100
AcDbEntity
8
0
100
AcDbCircle
10
1170.3036584615065
20
-15.408572187967557
30
0
40
2.2500000000000022
0
CIRCLE
5
286
100
AcDbEntity
8
0
100
AcDbCircle
10
1076.3036584615131
20
-176.40857218797066
30
0
40
3.2499999999999951
0
CIRCLE
5
287
100
AcDbEntity
8
0
100
AcDbCircle
10
1119.8036584615143
20
-202.90857218796879
30
0
40
2.2499999999999929
0
CIRCLE
5
288
100
AcDbEntity
8
0
100
AcDbCircle
10
1072.8036584615143
20
-202.90857218797072
30
0
40
2.2499999999999929
0
CIRCLE
5
289
100
AcDbEntity
8
0
100
AcDbCircle
10
1072.8036584615163
20
-249.90857218797055
30
0
40
2.2499999999999978
0
LWPOLYLINE
5
290
100
AcDbEntity
8
0
100
AcDbPolyline
90
19
70
1
43
0.0
10
1126.3036584615068
20
-21.954527539368549
42
-0.17632698070839722
10
1126.6545917968283
20
-20.990346124838709
10
1140.5382968296628
20
-4.4443907734388812
42
-0.22169466264294102
10
1141.6873634943413
20
-3.9085721879687041
10
1186.8036584615061
20
-3.9085721879669535
42
-0.41421356237302154
10
1188.3036584615061
20
-5.4085721879667759
10
1188.3036584615113
20
-125.31732370735064
42
-0.17632698070841257
10
1187.9527251261898
20
-126.28150512188046
10
1126.303658461514
20
-199.7520017995933
10
1126.303658461517
20
-270.11000905874266
42
-0.17632698070841257
10
1125.9527251261954
20
-271.07419047327249
10
1096.7532636389644
20
-305.87275360249913
42
-0.22169466264296037
10
1095.604196974286
20
-306.40857218796941
10
1067.8036584615186
20
-306.40857218797055
42
-0.4142135623730257
10
1066.3036584615184
20
-304.90857218797055
10
1066.303658461512
20
-147.90857218797117
42
-0.41421356237300833
10
1067.8036584615118
20
-146.40857218797112
10
1092.7396732144209
20
-146.40857218797012
10
1126.3036584615104
20
-106.40857218796893
0
CIRCLE
5
291
100
AcDbEntity
8
0
100
AcDbCircle
10
1263.5153014742714
20
-40.09998089580197
30
0
40
2.2499999999999947
0
CIRCLE
5
292
100
AcDbEntity
8
0
100
AcDbCircle
10
1263.5153014742739
20
-109.09998089580154
30
0
40
2.2499999999999858
0
CIRCLE
5
293
100
AcDbEntity
8
0
100
AcDbCircle
10
1263.5153014742716
20
-52.099980895801856
30
0
40
2.2499999999999947
0
CIRCLE
5
294
100
AcDbEntity
8
0
100
AcDbCircle
10
1263.515301474273
20
-83.09998089580165
30
0
40
2.2499999999999858
0
CIRCLE
5
295
100
AcDbEntity
8
0
100
AcDbCircle
10
1169.5153014742771
20
-181.09998089580472
30
0
40
3.249999999999984
0
CIRCLE
5
296
100
AcDbEntity
8
0
100
AcDbCircle
10
1169.515301474278
20
-201.09998089580461
30
0
40
3.249999999999984
0
CIRCLE
5
297
100
AcDbEntity
8
0
100
AcDbCircle
10
1237.515301474273
20
-83.099980895802616
30
0
40
2.2499999999999858
0
CIRCLE
5
298
100
AcDbEntity
8
0
100
AcDbCircle
10
1237.5153014742741
20
-109.09998089580253
30
0
40
2.2499999999999858
0
CIRCLE
5
299
100
AcDbEntity
8
0
100
AcDbCircle
10
1189.5153014742805
20
-269.34998089580347
30
0
40
2.2499999999999885
0
CIRCLE
5
300
100
AcDbEntity
8
0
100
AcDbCircle
10
1189.5153014742791
20
-232.8499808958037
30
0
40
2.2499999999999885
0
CIRCLE
5
301
100
AcDbEntity
8
0
100
AcDbCircle
10
1169.5153014742818
20
-301.09998089580409
30
0
40
3.249999999999984
0
CIRCLE
5
302
100
AcDbEntity
8
0
100
AcDbCircle
10
1169.5153014742825
20
-321.09998089580404
30
0
40
3.249999999999984
0
CIRCLE
5
303
100
AcDbEntity
8
0
100
AcDbCircle
10
1189.5153014742798
20
-251.09998089580358
30
0
40
4.999999999999976
0
LWPOLYLINE
5
304
100
AcDbEntity
8
0
100
AcDbPolyline
90
19
70
1
43
0.0
10
1219.5153014742716
20
-46.645936247202833
42
-0.1763269807083947
10
1219.8662348095932
20
-45.681754832673008
10
1233.7499398424277
20
-29.135799481273203
42
-0.22169466264296153
10
1234.8990065071062
20
-28.599980895803032
10
1280.0153014742707
20
-28.599980895801217
42
-0.41421356237297452
10
1281.5153014742709
20
-30.099980895801224
10
1281.5153014742757
20
-150.00873241518488
42
-0.17632698070839242
10
1281.1643681389542
20
-150.97291382971468
10
1219.5153014742787
20
-224.44341050742736
10
1219.5153014742814
20
-294.80141776657661
42
-0.17632698070841257
10
1219.1643681389598
20
-295.76559918110644
10
1189.9649066517286
20
-330.56416231033296
42
-0.22169466264285692
10
1188.8158399870504
20
-331.09998089580313
10
1161.015301474283
20
-331.09998089580421
42
-0.41421356237306733
10
1159.5153014742828
20
-329.59998089580432
10
1159.5153014742768
20
-172.59998089580517
42
-0.41421356237309503
10
1161.0153014742768
20
-171.09998089580512
10
1185.9513162271855
20
-171.09998089580415
10
1219.515301474275
20
-131.09998089580307
0
ENDSEC
0
SECTION
2
OBJECTS
0
DICTIONARY
5
C
100
AcDbDictionary
3
ACAD_GROUP
350
D
3
ACAD_MLINESTYLE
350
17
0
DICTIONARY
5
D
100
AcDbDictionary
0
DICTIONARY
5
1A
330
C
100
AcDbDictionary
0
DICTIONARY
5
17
100
AcDbDictionary
0
ENDSEC
0
EOF
