0
SECTION
2
HEADER
9
$INSUNITS
70
4
9
$ACADVER
1
AC1014
9
$HANDSEED
5
FFFF
0
ENDSEC
0
SECTION
2
TABLES
0
TABLE
2
VPORT
5
8
100
AcDbSymbolTable
0
ENDTAB
0
TABLE
2
LTYPE
5
5
100
AcDbSymbolTable
0
LTYPE
5
14
100
AcDbSymbolTableRecord
100
AcDbLinetypeTableRecord
2
BYBLOCK
70
0
0
LTYPE
5
15
100
AcDbSymbolTableRecord
100
AcDbLinetypeTableRecord
2
BYLAYER
70
0
0
ENDTAB
0
TABLE
2
LAYER
5
2
100
AcDbSymbolTable
70
2
0
LAYER
5
50
100
AcDbSymbolTableRecord
100
AcDbLayerTableRecord
2
0
70
0
6
CONTINUOUS
0
ENDTAB
0
TABLE
2
STYLE
5
3
100
AcDbSymbolTable
70
1
0
STYLE
5
11
100
AcDbSymbolTableRecord
100
AcDbTextStyleTableRecord
2
STANDARD
70
0
0
ENDTAB
0
TABLE
2
VIEW
5
6
100
AcDbSymbolTable
70
0
0
ENDTAB
0
TABLE
2
UCS
5
7
100
AcDbSymbolTable
70
0
0
ENDTAB
0
TABLE
2
APPID
5
9
100
AcDbSymbolTable
70
2
0
APPID
5
12
100
AcDbSymbolTableRecord
100
AcDbRegAppTableRecord
2
ACAD
70
0
0
ENDTAB
0
TABLE
2
DIMSTYLE
5
A
100
AcDbSymbolTable
70
1
0
ENDTAB
0
TABLE
2
BLOCK_RECORD
5
1
100
AcDbSymbolTable
70
1
0
BLOCK_RECORD
5
1F
100
AcDbSymbolTableRecord
100
AcDbBlockTableRecord
2
*MODEL_SPACE
0
BLOCK_RECORD
5
1B
100
AcDbSymbolTableRecord
100
AcDbBlockTableRecord
2
*PAPER_SPACE
0
ENDTAB
0
ENDSEC
0
SECTION
2
BLOCKS
0
BLOCK
5
20
100
AcDbEntity
100
AcDbBlockBegin
2
*MODEL_SPACE
0
ENDBLK
5
21
100
AcDbEntity
100
AcDbBlockEnd
0
BLOCK
5
1C
100
AcDbEntity
100
AcDbBlockBegin
2
*PAPER_SPACE
0
ENDBLK
5
1D
100
AcDbEntity
100
AcDbBlockEnd
0
ENDSEC
0
SECTION
2
ENTITIES
0
LWPOLYLINE
5
100
100
AcDbEntity
8
0
100
AcDbPolyline
90
4
70
1
43
0.0
10
28.261117509423023
20
47.988409470856553
10
47.891026661870129
20
47.988409470856496
10
38.076072085646665
20
64.988409470856453
10
28.261117509423094
20
64.988409470856482
0
LWPOLYLINE
5
101
100
AcDbEntity
8
0
100
AcDbPolyline
90
5
70
1
43
0.0
10
28.261117509423247
20
104.98840947085623
10
28.261117509423119
20
70.988409470856368
10
38.076072085646658
20
70.98840947085634
10
47.891026661870285
20
87.98840947085624
10
38.076072085646807
20
104.98840947085618
0
LWPOLYLINE
5
102
100
AcDbEntity
8
0
100
AcDbPolyline
90
4
70
1
43
0.0
10
28.261117509423343
20
127.98840947085606
10
28.261117509423279
20
110.98840947085613
10
38.0760720856468
20
110.98840947085611
10
47.891026661870441
20
127.988409470856
0
LWPOLYLINE
5
103
100
AcDbEntity
8
0
100
AcDbPolyline
90
4
70
1
43
0.0
10
115.39102666186966
20
127.98840947085579
10
76.131208356975449
20
127.98840947085588
10
85.946162933198949
20
110.98840947085593
10
105.57607208564606
20
110.9884094708559
0
LWPOLYLINE
5
104
100
AcDbEntity
8
0
100
AcDbPolyline
90
4
70
1
43
0.0
10
163.26111750942178
20
127.98840947085564
10
143.6312083569747
20
127.98840947085567
10
153.4461629331982
20
110.98840947085574
10
163.26111750942175
20
110.9884094708557
0
LWPOLYLINE
5
105
100
AcDbEntity
8
0
100
AcDbPolyline
90
5
70
1
43
0.0
10
163.26111750942158
20
70.988409470855956
10
163.26111750942172
20
104.98840947085581
10
153.4461629331982
20
104.98840947085584
10
143.63120835697455
20
87.988409470855927
10
153.44616293319805
20
70.98840947085597
0
LWPOLYLINE
5
106
100
AcDbEntity
8
0
100
AcDbPolyline
90
4
70
1
43
0.0
10
163.2611175094215
20
47.988409470856126
10
163.26111750942158
20
64.988409470856055
10
153.44616293319805
20
64.988409470856098
10
143.63120835697441
20
47.98840947085619
0
LWPOLYLINE
5
107
100
AcDbEntity
8
0
100
AcDbPolyline
90
6
70
1
43
0.0
10
52.641671008888061
20
84.216766848581003
10
43.272224508353325
20
67.98840947085634
10
52.641671008887982
20
51.760052093131691
10
71.380564009957425
20
51.760052093131677
10
80.75001051049216
20
67.988409470856311
10
71.38056400995751
20
84.21676684858096
0
LWPOLYLINE
5
108
100
AcDbEntity
8
0
100
AcDbPolyline
90
6
70
1
43
0.0
10
85.946162933198806
20
70.988409470856183
10
105.5760720856459
20
70.988409470856126
10
115.39102666186952
20
87.988409470856027
10
105.57607208564605
20
104.98840947085598
10
85.946162933198949
20
104.98840947085606
10
76.131208356975307
20
87.988409470856141
0
LWPOLYLINE
5
109
100
AcDbEntity
8
0
100
AcDbPolyline
90
6
70
1
43
0.0
10
120.14167100888743
20
124.21676684858056
10
110.77222450835268
20
107.98840947085588
10
120.14167100888739
20
91.760052093131264
10
138.88056400995683
20
91.760052093131236
10
148.25001051049156
20
107.98840947085583
10
138.88056400995691
20
124.21676684858048
0
LWPOLYLINE
5
110
100
AcDbEntity
8
0
100
AcDbPolyline
90
6
70
1
43
0.0
10
120.14167100888729
20
84.216766848580789
10
110.77222450835254
20
67.988409470856126
10
120.14167100888724
20
51.760052093131492
10
138.88056400995666
20
51.760052093131463
10
148.25001051049139
20
67.988409470856098
10
138.88056400995674
20
84.216766848580733
0
LWPOLYLINE
5
111
100
AcDbEntity
8
0
100
AcDbPolyline
90
6
70
1
43
0.0
10
52.641671008888203
20
124.21676684858078
10
43.272224508353467
20
107.9884094708561
10
52.641671008888139
20
91.760052093131478
10
71.380564009957567
20
91.760052093131449
10
80.750010510492302
20
107.98840947085606
10
71.380564009957652
20
124.21676684858069
0
LWPOLYLINE
5
112
100
AcDbEntity
8
0
100
AcDbPolyline
90
13
70
1
43
0.0
10
333.88009030613608
20
47.988409470855601
42
-0.1763269807084675
10
334.84427172066592
20
47.637476135534072
10
357.72529892394908
20
28.438014648301596
42
-0.22169466264297738
10
358.26111750941925
20
27.288947983623132
10
358.26111750941925
20
9.488409470855764
42
-0.41421356237310181
10
356.76111750941914
20
7.9884094708557774
10
9.7611175094230802
20
7.9884094708568796
42
-0.41421356237309986
10
8.2611175094231175
20
9.4884094708568689
10
8.2611175094236309
20
146.488409470856
42
-0.41421356237310636
10
9.7611175094235847
20
147.98840947085597
10
181.76111750942164
20
147.98840947085543
42
-0.41421356237309853
10
183.26111750942164
20
146.48840947085546
10
183.2611175094213
20
47.988409470856077
0
LWPOLYLINE
5
113
100
AcDbEntity
8
0
100
AcDbPolyline
90
4
70
1
43
0.0
10
85.946162933198792
20
64.988409470856283
10
76.131208356975151
20
47.988409470856396
10
115.39102666186938
20
47.988409470856283
10
105.5760720856459
20
64.98840947085624
0
CIRCLE
5
114
100
AcDbEntity
8
0
100
AcDbCircle
10
18.261117509423492
20
137.98840947085603
30
0
40
2.2500000000000004
0
CIRCLE
5
115
100
AcDbEntity
8
0
100
AcDbCircle
10
173.26111750942172
20
137.98840947085554
30
0
40
2.2500000000000004
0
CIRCLE
5
116
100
AcDbEntity
8
0
100
AcDbCircle
10
173.2611175094213
20
17.98840947085629
30
0
40
2.7499999999999818
0
CIRCLE
5
117
100
AcDbEntity
8
0
100
AcDbCircle
10
348.26111750941925
20
17.988409470855743
30
0
40
2.7499999999999818
0
CIRCLE
5
118
100
AcDbEntity
8
0
100
AcDbCircle
10
18.26111750942303
20
17.988409470856773
30
0
40
2.7499999999999818
0
LWPOLYLINE
5
119
100
AcDbEntity
8
0
100
AcDbPolyline
90
4
70
1
43
0.0
10
346.29810830159789
20
161.43988656272171
10
326.66819914915084
20
161.43988656272234
10
336.48315372537377
20
144.43988656272208
10
346.29810830159727
20
144.4398865627218
0
LWPOLYLINE
5
120
100
AcDbEntity
8
0
100
AcDbPolyline
90
5
70
1
43
0.0
10
346.29810830159602
20
104.43988656272205
10
346.29810830159715
20
138.43988656272191
10
336.48315372537354
20
138.43988656272222
10
326.66819914914947
20
121.43988656272259
10
336.4831537253724
20
104.43988656272238
0
LWPOLYLINE
5
121
100
AcDbEntity
8
0
100
AcDbPolyline
90
4
70
1
43
0.0
10
346.29810830159528
20
81.439886562722222
10
346.29810830159585
20
98.439886562722151
10
336.48315372537229
20
98.439886562722464
10
326.66819914914817
20
81.439886562722847
0
LWPOLYLINE
5
122
100
AcDbEntity
8
0
100
AcDbPolyline
90
4
70
1
43
0.0
10
259.16819914914896
20
81.439886562725007
10
298.42801745404313
20
81.439886562723771
10
288.6130628778202
20
98.439886562724013
10
268.98315372537309
20
98.43988656272461
0
LWPOLYLINE
5
123
100
AcDbEntity
8
0
100
AcDbPolyline
90
4
70
1
43
0.0
10
211.29810830159687
20
81.439886562726542
10
230.92801745404398
20
81.439886562725945
10
221.11306287782097
20
98.439886562726159
10
211.29810830159744
20
98.439886562726485
0
LWPOLYLINE
5
124
100
AcDbEntity
8
0
100
AcDbPolyline
90
5
70
1
43
0.0
10
211.29810830159872
20
138.4398865627262
10
211.29810830159761
20
104.43988656272637
10
221.11306287782114
20
104.43988656272606
10
230.92801745404529
20
121.43988656272568
10
221.11306287782227
20
138.43988656272589
0
LWPOLYLINE
5
125
100
AcDbEntity
8
0
100
AcDbPolyline
90
4
70
1
43
0.0
10
211.29810830159948
20
161.439886562726
10
211.29810830159892
20
144.43988656272612
10
221.11306287782244
20
144.43988656272577
10
230.92801745404657
20
161.43988656272543
0
LWPOLYLINE
5
126
100
AcDbEntity
8
0
100
AcDbPolyline
90
6
70
1
43
0.0
10
321.9175548021318
20
125.21152918499797
10
331.28700130266702
20
141.43988656272236
10
321.91755480213288
20
157.66824394044727
10
303.17866180106341
20
157.66824394044784
10
293.80921530052819
20
141.43988656272347
10
303.17866180106239
20
125.21152918499858
0
LWPOLYLINE
5
127
100
AcDbEntity
8
0
100
AcDbPolyline
90
6
70
1
43
0.0
10
288.61306287782151
20
138.43988656272376
10
268.98315372537439
20
138.43988656272438
10
259.16819914915027
20
121.43988656272475
10
268.98315372537326
20
104.43988656272452
10
288.61306287782037
20
104.43988656272388
10
298.42801745404449
20
121.4398865627235
0
LWPOLYLINE
5
128
100
AcDbEntity
8
0
100
AcDbPolyline
90
6
70
1
43
0.0
10
254.41755480213132
20
85.211529185000387
10
263.78700130266657
20
101.43988656272478
10
254.41755480213232
20
117.66824394044966
10
235.6786618010629
20
117.66824394045022
10
226.30921530052768
20
101.4398865627259
10
235.67866180106188
20
85.211529185001012
0
LWPOLYLINE
5
129
100
AcDbEntity
8
0
100
AcDbPolyline
90
6
70
1
43
0.0
10
254.4175548021326
20
125.21152918500013
10
263.78700130266782
20
141.43988656272452
10
254.41755480213362
20
157.66824394044943
10
235.67866180106421
20
157.66824394044997
10
226.30921530052899
20
141.43988656272563
10
235.67866180106313
20
125.21152918500073
0
LWPOLYLINE
5
130
100
AcDbEntity
8
0
100
AcDbPolyline
90
6
70
1
43
0.0
10
321.91755480213055
20
85.211529184998227
10
331.28700130266571
20
101.43988656272262
10
321.91755480213152
20
117.6682439404475
10
303.17866180106205
20
117.66824394044806
10
293.80921530052689
20
101.43988656272376
10
303.17866180106108
20
85.211529184998852
0
LWPOLYLINE
5
131
100
AcDbEntity
8
0
100
AcDbPolyline
90
13
70
1
43
0.0
10
40.679135504884954
20
161.43988656273149
42
-0.17632698070844049
10
39.714954090355185
20
161.79081989805303
10
16.833926887072575
20
180.99028138528615
42
-0.22169466264294732
10
16.298108301602444
20
182.13934804996461
10
16.298108301602984
20
199.939886562732
42
-0.41421356237309592
10
17.798108301603008
20
201.43988656273194
10
364.79810830159897
20
201.43988656272086
42
-0.41421356237309503
10
366.29810830159892
20
199.9398865627208
10
366.29810830159443
20
62.939886562721711
42
-0.41421356237310719
10
364.79810830159443
20
61.439886562721775
10
192.79810830159641
20
61.439886562727288
42
-0.4142135623730846
10
191.29810830159653
20
62.939886562727324
10
191.29810830159968
20
161.43988656272668
0
LWPOLYLINE
5
132
100
AcDbEntity
8
0
100
AcDbPolyline
90
4
70
1
43
0.0
10
288.61306287782168
20
144.43988656272364
10
298.4280174540458
20
161.43988656272327
10
259.16819914915158
20
161.4398865627245
10
268.98315372537456
20
144.43988656272427
0
CIRCLE
5
133
100
AcDbEntity
8
0
100
AcDbCircle
10
356.29810830159488
20
71.439886562721981
30
0
40
2.2499999999999996
0
CIRCLE
5
134
100
AcDbEntity
8
0
100
AcDbCircle
10
201.29810830159667
20
71.43988656272694
30
0
40
2.2499999999999996
0
CIRCLE
5
135
100
AcDbEntity
8
0
100
AcDbCircle
10
201.29810830160056
20
191.43988656272614
30
0
40
2.7499999999999813
0
CIRCLE
5
136
100
AcDbEntity
8
0
100
AcDbCircle
10
26.298108301602632
20
191.43988656273172
30
0
40
2.7499999999999813
0
CIRCLE
5
137
100
AcDbEntity
8
0
100
AcDbCircle
10
356.29810830159869
20
191.4398865627212
30
0
40
2.7499999999999813
0
CIRCLE
5
138
100
AcDbEntity
8
0
100
AcDbCircle
10
29.37905668628806
20
309.97235481473928
30
0
40
2.1169999999999671
0
CIRCLE
5
139
100
AcDbEntity
8
0
100
AcDbCircle
10
170.3790566862852
20
234.97235481474013
30
0
40
1.9999999999999709
0
CIRCLE
5
140
100
AcDbEntity
8
0
100
AcDbCircle
10
29.37905668628791
20
259.97235481474002
30
0
40
2.1169999999999671
0
CIRCLE
5
141
100
AcDbEntity
8
0
100
AcDbCircle
10
128.37905668628588
20
210.97235481474053
30
0
40
1.9999999999999709
0
CIRCLE
5
142
100
AcDbEntity
8
0
100
AcDbCircle
10
128.37905668628594
20
234.97235481474021
30
0
40
1.9999999999999709
0
CIRCLE
5
143
100
AcDbEntity
8
0
100
AcDbCircle
10
170.37905668628511
20
210.97235481474044
30
0
40
1.9999999999999709
0
LWPOLYLINE
5
144
100
AcDbEntity
8
0
100
AcDbPolyline
90
14
70
1
43
0.0
10
95.379056686286376
20
205.97235481474064
10
57.242941723272295
20
237.9723548147403
10
43.379056686287555
20
237.97235481474033
10
15.3790566862882
20
261.46714448770388
10
15.379056686288383
20
319.47235481473916
10
29.379056686288099
20
319.47235481473911
10
43.379056686287775
20
307.72495997825735
10
43.379056686287676
20
277.13457349470804
10
54.298163714273414
20
267.97235481473984
10
68.162048751258254
20
267.97235481473984
10
101.53114934389512
20
239.97235481474024
10
192.65327435293713
20
239.97235481473993
10
203.37905668628434
20
230.97235481474002
10
203.37905668628446
20
205.97235481474036
0
LWPOLYLINE
5
145
100
AcDbEntity
8
0
100
AcDbPolyline
90
30
70
1
43
0.0
10
70.67595279968144
20
327.11182888550286
42
-0.41421356237309503
10
72.175952799681426
20
328.6118288855028
10
192.08470431906426
20
328.61182888550246
42
-0.17632698070841851
10
193.04888573359406
20
328.26089555018092
10
266.10115634817305
20
266.96276222082429
42
0.1763269807084635
10
267.06533776270282
20
266.6118288855028
10
341.76089685564057
20
266.61182888550263
42
-0.17632698070849132
10
342.72507827017046
20
266.26089555018109
10
375.14013421420708
20
239.06143406294862
42
-0.22169466264298832
10
375.67595279967719
20
237.91236739827025
10
375.67595279967713
20
220.11182888550292
42
-0.41421356237308116
10
374.17595279967719
20
218.61182888550292
10
361.51773570655462
20
218.61182888550297
42
0.1763269807084635
10
360.55355429202484
20
218.26089555018143
10
347.08896330715555
20
206.9627622208246
42
-0.17632698070844896
10
346.12478189262572
20
206.61182888550309
10
245.22712370673059
20
206.61182888550331
42
-0.17632698070846292
10
244.26294229220076
20
206.96276222082486
10
230.79835130733159
20
218.26089555018171
42
0.1763269807084574
10
229.83416989280184
20
218.61182888550326
10
217.17595279967924
20
218.61182888550326
42
-0.41421356237308815
10
215.67595279967921
20
220.11182888550331
10
215.67595279967929
20
230.25063307323632
42
0.22169466264294141
10
215.1401342142091
20
231.39969973791477
10
173.59417886281045
20
266.26089555018149
42
0.1763269807084635
10
172.62999744828065
20
266.61182888550297
10
88.721908151080342
20
266.6118288855032
42
-0.17632698070847988
10
87.757726736550552
20
266.96276222082474
10
71.211771385151522
20
280.84646725365951
42
-0.22169466264293941
10
70.67595279968134
20
281.99553391833797
0
CIRCLE
5
146
100
AcDbEntity
8
0
100
AcDbCircle
10
365.67595279967736
20
228.61182888550289
30
0
40
2.9999999999999742
0
CIRCLE
5
147
100
AcDbEntity
8
0
100
AcDbCircle
10
345.67595279967753
20
228.61182888550292
30
0
40
2.9999999999999698
0
CIRCLE
5
148
100
AcDbEntity
8
0
100
AcDbCircle
10
245.6759527996789
20
228.61182888550314
30
0
40
2.9999999999999742
0
CIRCLE
5
149
100
AcDbEntity
8
0
100
AcDbCircle
10
82.175952799681241
20
310.61182888550286
30
0
40
2.4999999999999805
0
CIRCLE
5
150
100
AcDbEntity
8
0
100
AcDbCircle
10
225.67595279967915
20
228.61182888550317
30
0
40
2.9999999999999742
0
CIRCLE
5
151
100
AcDbEntity
8
0
100
AcDbCircle
10
125.17595279968063
20
284.61182888550297
30
0
40
2.4999999999999805
0
CIRCLE
5
152
100
AcDbEntity
8
0
100
AcDbCircle
10
151.17595279968037
20
310.61182888550269
30
0
40
2.4999999999999805
0
CIRCLE
5
153
100
AcDbEntity
8
0
100
AcDbCircle
10
125.1759527996807
20
310.61182888550275
30
0
40
2.4999999999999805
0
CIRCLE
5
154
100
AcDbEntity
8
0
100
AcDbCircle
10
277.4259527996785
20
236.611828885503
30
0
40
2.4999999999999805
0
CIRCLE
5
155
100
AcDbEntity
8
0
100
AcDbCircle
10
94.175952799681113
20
310.61182888550286
30
0
40
2.4999999999999805
0
CIRCLE
5
156
100
AcDbEntity
8
0
100
AcDbCircle
10
313.92595279967799
20
236.61182888550292
30
0
40
2.4999999999999805
0
CIRCLE
5
157
100
AcDbEntity
8
0
100
AcDbCircle
10
295.67595279967827
20
236.61182888550297
30
0
40
4.9999999999999609
0
CIRCLE
5
158
100
AcDbEntity
8
0
100
AcDbCircle
10
151.17595279968029
20
284.61182888550292
30
0
40
2.4999999999999782
0
LWPOLYLINE
5
159
100
AcDbEntity
8
0
100
AcDbPolyline
90
30
70
1
43
0.0
10
262.5792190133451
20
332.11029956230402
42
-0.41421356237310197
10
264.07921901334504
20
333.61029956230414
10
383.98797053272835
20
333.61029956230368
42
-0.17632698070855349
10
384.95215194725813
20
333.25936622698214
10
458.00442256183737
20
271.96123289762522
42
0.1763269807084635
10
458.96860397636715
20
271.61029956230368
10
533.66416306930523
20
271.61029956230351
42
-0.17632698070851102
10
534.62834448383501
20
271.25936622698191
10
567.04340042787169
20
244.05990473974941
42
-0.22169466264296259
10
567.57921901334191
20
242.91083807507093
10
567.5792190133418
20
225.11029956230351
42
-0.41421356237307422
10
566.07921901334191
20
223.61029956230351
10
553.42100192021928
20
223.61029956230354
42
0.17632698070845959
10
552.45682050568939
20
223.25936622698205
10
538.99222952082005
20
211.96123289762522
42
-0.17632698070844896
10
538.02804810629027
20
211.61029956230368
10
437.13038992039469
20
211.61029956230405
42
-0.17632698070849223
10
436.16620850586503
20
211.96123289762554
10
422.70161752099568
20
223.25936622698248
42
0.1763269807084635
10
421.73743610646591
20
223.61029956230399
10
409.07921901334333
20
223.61029956230399
42
-0.41421356237309503
10
407.57921901334328
20
225.11029956230405
10
407.57921901334333
20
235.24910375003714
42
0.22169466264294141
10
407.04340042787317
20
236.39817041471559
10
365.49744507647438
20
271.25936622698248
42
0.1763269807084635
10
364.5332636619446
20
271.61029956230402
10
280.625174364744
20
271.61029956230431
42
-0.17632698070845812
10
279.66099295021417
20
271.96123289762585
10
263.11503759881509
20
285.84493793046067
42
-0.22169466264296409
10
262.57921901334493
20
286.99400459513913
0
CIRCLE
5
160
100
AcDbEntity
8
0
100
AcDbCircle
10
537.57921901334214
20
233.61029956230357
30
0
40
2.9999999999999813
0
CIRCLE
5
161
100
AcDbEntity
8
0
100
AcDbCircle
10
511.07921901334237
20
218.11029956230371
30
0
40
2.4999999999999898
0
CIRCLE
5
162
100
AcDbEntity
8
0
100
AcDbCircle
10
557.57921901334203
20
233.61029956230351
30
0
40
2.9999999999999858
0
CIRCLE
5
163
100
AcDbEntity
8
0
100
AcDbCircle
10
317.07921901334441
20
289.61029956230414
30
0
40
2.4999999999999898
0
CIRCLE
5
164
100
AcDbEntity
8
0
100
AcDbCircle
10
317.07921901334453
20
315.61029956230402
30
0
40
2.4999999999999898
0
CIRCLE
5
165
100
AcDbEntity
8
0
100
AcDbCircle
10
437.57921901334305
20
233.61029956230394
30
0
40
2.9999999999999858
0
CIRCLE
5
166
100
AcDbEntity
8
0
100
AcDbCircle
10
464.07921901334299
20
265.11029956230368
30
0
40
2.4999999999999862
0
CIRCLE
5
167
100
AcDbEntity
8
0
100
AcDbCircle
10
511.07921901334248
20
265.11029956230351
30
0
40
2.4999999999999862
0
CIRCLE
5
168
100
AcDbEntity
8
0
100
AcDbCircle
10
274.07921901334487
20
315.61029956230414
30
0
40
2.4999999999999898
0
CIRCLE
5
169
100
AcDbEntity
8
0
100
AcDbCircle
10
343.07921901334419
20
289.61029956230402
30
0
40
2.4999999999999876
0
LINE
5
170
100
AcDbEntity
8
0
100
AcDbLine
10
502.42492541902976
20
229.59302028136264
30
0
11
504.99343257571553
21
227.02451312467684
31
0
0
ARC
5
171
100
AcDbEntity
8
0
100
AcDbCircle
10
503.57921901334242
20
225.61029956230371
30
0
40
1.999999999999996
100
AcDbArc
50
-134.99999999999943
51
45.000000000000568
0
LINE
5
172
100
AcDbEntity
8
0
100
AcDbLine
10
502.16500545096937
20
224.19608599993063
30
0
11
499.59649829428361
21
226.76459315661643
31
0
0
ARC
5
173
100
AcDbEntity
8
0
100
AcDbCircle
10
487.57921901334259
20
241.61029956230391
30
0
40
19.099999999999994
100
AcDbArc
50
231.01057632025638
51
308.98942367974297
0
LINE
5
174
100
AcDbEntity
8
0
100
AcDbLine
10
475.56193973240147
20
226.76459315661663
30
0
11
472.99343257571581
21
224.19608599993074
31
0
0
ARC
5
175
100
AcDbEntity
8
0
100
AcDbCircle
10
471.57921901334277
20
225.61029956230382
30
0
40
1.9999999999999709
100
AcDbArc
50
134.99999999999827
51
314.99999999999943
0
LINE
5
176
100
AcDbEntity
8
0
100
AcDbLine
10
470.16500545096972
20
227.02451312467696
30
0
11
472.73351260765543
21
229.59302028136278
31
0
0
ARC
5
177
100
AcDbEntity
8
0
100
AcDbCircle
10
487.57921901334259
20
241.61029956230391
30
0
40
19.099999999999675
100
AcDbArc
50
141.01057632025672
51
218.98942367974379
0
LINE
5
178
100
AcDbEntity
8
0
100
AcDbLine
10
472.73351260765548
20
253.62757884324475
30
0
11
470.16500545096983
21
256.19608599993063
31
0
0
ARC
5
179
100
AcDbEntity
8
0
100
AcDbCircle
10
471.57921901334294
20
257.61029956230368
30
0
40
1.999999999999996
100
AcDbArc
50
45.000000000001151
51
224.99999999999883
0
LINE
5
180
100
AcDbEntity
8
0
100
AcDbLine
10
472.99343257571599
20
259.02451312467679
30
0
11
475.5619397324017
21
256.45600596799102
31
0
0
ARC
5
181
100
AcDbEntity
8
0
100
AcDbCircle
10
487.57921901334259
20
241.61029956230391
30
0
40
19.09999999999981
100
AcDbArc
50
51.01057632025551
51
128.98942367974342
0
LINE
5
182
100
AcDbEntity
8
0
100
AcDbLine
10
499.59649829428378
20
256.45600596799079
30
0
11
502.16500545096949
21
259.02451312467667
31
0
0
ARC
5
183
100
AcDbEntity
8
0
100
AcDbCircle
10
503.57921901334259
20
257.61029956230357
30
0
40
1.9999999999999709
100
AcDbArc
50
-44.999999999998835
51
135
0
LINE
5
184
100
AcDbEntity
8
0
100
AcDbLine
10
504.9934325757157
20
256.19608599993052
30
0
11
502.42492541902982
21
253.62757884324469
31
0
0
ARC
5
185
100
AcDbEntity
8
0
100
AcDbCircle
10
487.57921901334259
20
241.61029956230391
30
0
40
19.100000000000051
100
AcDbArc
50
-38.989423679744128
51
38.989423679742913
0
CIRCLE
5
186
100
AcDbEntity
8
0
100
AcDbCircle
10
286.07921901334481
20
315.61029956230408
30
0
40
2.4999999999999898
0
CIRCLE
5
187
100
AcDbEntity
8
0
100
AcDbCircle
10
343.07921901334424
20
315.61029956230391
30
0
40
2.4999999999999898
0
CIRCLE
5
188
100
AcDbEntity
8
0
100
AcDbCircle
10
464.07921901334277
20
218.11029956230385
30
0
40
2.4999999999999898
0
CIRCLE
5
189
100
AcDbEntity
8
0
100
AcDbCircle
10
417.57921901334328
20
233.61029956230399
30
0
40
2.9999999999999858
0
LWPOLYLINE
5
190
100
AcDbEntity
8
0
100
AcDbPolyline
90
4
70
1
43
0.0
10
714.829232231682
20
158.26824847689869
10
695.199323079235
20
158.26824847689932
10
705.01427765545805
20
141.26824847689912
10
714.82923223168143
20
141.2682484768988
0
LWPOLYLINE
5
191
100
AcDbEntity
8
0
100
AcDbPolyline
90
5
70
1
43
0.0
10
714.82923223168018
20
101.2682484768992
10
714.82923223168132
20
135.26824847689895
10
705.0142776554577
20
135.26824847689923
10
695.19932307923364
20
118.2682484768997
10
705.01427765545668
20
101.26824847689952
0
LWPOLYLINE
5
192
100
AcDbEntity
8
0
100
AcDbPolyline
90
4
70
1
43
0.0
10
714.8292322316795
20
78.26824847689943
10
714.82923223167995
20
95.268248476899302
10
705.01427765545645
20
95.268248476899629
10
695.19932307923239
20
78.268248476900069
0
LWPOLYLINE
5
193
100
AcDbEntity
8
0
100
AcDbPolyline
90
4
70
1
43
0.0
10
627.69932307923364
20
78.268248476902244
10
666.95914138412763
20
78.268248476900993
10
657.14418680790459
20
95.268248476901192
10
637.51427765545759
20
95.268248476901789
0
LWPOLYLINE
5
194
100
AcDbEntity
8
0
100
AcDbPolyline
90
4
70
1
43
0.0
10
579.82923223168177
20
78.268248476903779
10
599.45914138412877
20
78.268248476903167
10
589.64418680790584
20
95.268248476903338
10
579.82923223168223
20
95.268248476903651
0
LWPOLYLINE
5
195
100
AcDbEntity
8
0
100
AcDbPolyline
90
5
70
1
43
0.0
10
579.82923223168359
20
135.26824847690327
10
579.82923223168245
20
101.26824847690352
10
589.64418680790595
20
101.26824847690322
10
599.45914138413002
20
118.26824847690276
10
589.64418680790709
20
135.26824847690295
0
LWPOLYLINE
5
196
100
AcDbEntity
8
0
100
AcDbPolyline
90
4
70
1
43
0.0
10
579.82923223168439
20
158.26824847690301
10
579.82923223168382
20
141.26824847690312
10
589.6441868079072
20
141.26824847690284
10
599.45914138413127
20
158.26824847690239
0
LWPOLYLINE
5
197
100
AcDbEntity
8
0
100
AcDbPolyline
90
6
70
1
43
0.0
10
690.44867873221608
20
122.03989109917504
10
699.8181252327513
20
138.26824847689937
10
690.44867873221722
20
154.49660585462425
10
671.7097857311478
20
154.49660585462479
10
662.34033923061247
20
138.26824847690051
10
671.70978573114667
20
122.03989109917565
0
LWPOLYLINE
5
198
100
AcDbEntity
8
0
100
AcDbPolyline
90
6
70
1
43
0.0
10
657.14418680790584
20
135.26824847690079
10
637.51427765545895
20
135.26824847690142
10
627.69932307923489
20
118.26824847690187
10
637.51427765545782
20
101.26824847690166
10
657.14418680790482
20
101.26824847690105
10
666.95914138412888
20
118.26824847690062
0
LWPOLYLINE
5
199
100
AcDbEntity
8
0
100
AcDbPolyline
90
6
70
1
43
0.0
10
622.94867873221597
20
82.039891099177581
10
632.31812523275107
20
98.268248476901917
10
622.94867873221699
20
114.49660585462678
10
604.20978573114769
20
114.49660585462732
10
594.84033923061247
20
98.268248476903054
10
604.20978573114667
20
82.039891099178206
0
LWPOLYLINE
5
200
100
AcDbEntity
8
0
100
AcDbPolyline
90
6
70
1
43
0.0
10
622.94867873221722
20
122.03989109917721
10
632.31812523275244
20
138.26824847690153
10
622.94867873221824
20
154.49660585462641
10
604.20978573114894
20
154.49660585462698
10
594.84033923061372
20
138.26824847690267
10
604.20978573114792
20
122.03989109917782
0
LWPOLYLINE
5
201
100
AcDbEntity
8
0
100
AcDbPolyline
90
6
70
1
43
0.0
10
690.44867873221483
20
82.039891099175435
10
699.81812523274994
20
98.268248476899771
10
690.44867873221574
20
114.4966058546246
10
671.70978573114655
20
114.49660585462516
10
662.34033923061122
20
98.268248476900894
10
671.70978573114542
20
82.039891099176032
0
LWPOLYLINE
5
202
100
AcDbEntity
8
0
100
AcDbPolyline
90
13
70
1
43
0.0
10
409.21025943497079
20
158.26824847690847
42
-0.1763269807084627
10
408.24607802044102
20
158.61918181223007
10
385.36505081715848
20
177.81864329946313
42
-0.22169466264289955
10
384.82923223168837
20
178.96770996414159
10
384.82923223168893
20
196.76824847690887
42
-0.41421356237310897
10
386.32923223168893
20
198.26824847690884
10
733.32923223168291
20
198.26824847689761
42
-0.41421356237315748
10
734.82923223168291
20
196.76824847689767
10
734.82923223167836
20
59.768248476898968
42
-0.41421356237306733
10
733.32923223167859
20
58.268248476899046
10
561.32923223168143
20
58.268248476904532
42
-0.41421356237309853
10
559.82923223168154
20
59.768248476904603
10
559.82923223168473
20
158.26824847690364
0
LWPOLYLINE
5
203
100
AcDbEntity
8
0
100
AcDbPolyline
90
4
70
1
43
0.0
10
657.14418680790618
20
141.26824847690068
10
666.95914138413013
20
158.26824847690023
10
627.69932307923614
20
158.26824847690145
10
637.51427765545907
20
141.26824847690128
0
CIRCLE
5
204
100
AcDbEntity
8
0
100
AcDbCircle
10
724.82923223167882
20
68.268248476899217
30
0
40
2.2499999999999925
0
CIRCLE
5
205
100
AcDbEntity
8
0
100
AcDbCircle
10
569.82923223168154
20
68.268248476904191
30
0
40
2.2499999999999925
0
CIRCLE
5
206
100
AcDbEntity
8
0
100
AcDbCircle
10
569.82923223168552
20
188.26824847690304
30
0
40
2.7499999999999725
0
CIRCLE
5
207
100
AcDbEntity
8
0
100
AcDbCircle
10
394.82923223168848
20
188.26824847690864
30
0
40
2.7499999999999725
0
CIRCLE
5
208
100
AcDbEntity
8
0
100
AcDbCircle
10
724.82923223168291
20
188.26824847689807
30
0
40
2.7499999999999725
0
LWPOLYLINE
5
209
100
AcDbEntity
8
0
100
AcDbPolyline
90
4
70
1
43
0.0
10
395.52533476091384
20
49.066198158990929
10
415.15524391336112
20
49.066198158990872
10
405.34028933713756
20
66.066198158990915
10
395.52533476091389
20
66.066198158990943
0
LWPOLYLINE
5
210
100
AcDbEntity
8
0
100
AcDbPolyline
90
5
70
1
43
0.0
10
395.52533476091412
20
106.06619815899089
10
395.52533476091401
20
72.066198158990858
10
405.34028933713756
20
72.066198158990844
10
415.15524391336129
20
89.066198158990801
10
405.34028933713773
20
106.06619815899086
0
LWPOLYLINE
5
211
100
AcDbEntity
8
0
100
AcDbPolyline
90
4
70
1
43
0.0
10
395.52533476091418
20
129.06619815899086
10
395.52533476091412
20
112.06619815899083
10
405.34028933713773
20
112.0661981589908
10
415.15524391336146
20
129.06619815899077
0
LWPOLYLINE
5
212
100
AcDbEntity
8
0
100
AcDbPolyline
90
4
70
1
43
0.0
10
482.65524391336146
20
129.06619815899057
10
443.39542560846678
20
129.06619815899069
10
453.21038018469039
20
112.06619815899063
10
472.84028933713762
20
112.06619815899059
0
LWPOLYLINE
5
213
100
AcDbEntity
8
0
100
AcDbPolyline
90
4
70
1
43
0.0
10
530.52533476091401
20
129.06619815899043
10
510.89542560846667
20
129.06619815899046
10
520.71038018469028
20
112.06619815899045
10
530.52533476091389
20
112.06619815899039
0
LWPOLYLINE
5
214
100
AcDbEntity
8
0
100
AcDbPolyline
90
5
70
1
43
0.0
10
530.52533476091378
20
72.06619815899046
10
530.52533476091389
20
106.06619815899049
10
520.71038018469028
20
106.0661981589905
10
510.89542560846655
20
89.066198158990503
10
520.71038018469017
20
72.066198158990474
0
LWPOLYLINE
5
215
100
AcDbEntity
8
0
100
AcDbPolyline
90
4
70
1
43
0.0
10
530.52533476091367
20
49.066198158990503
10
530.52533476091378
20
66.066198158990517
10
520.71038018469017
20
66.066198158990545
10
510.89542560846638
20
49.066198158990566
0
LWPOLYLINE
5
216
100
AcDbEntity
8
0
100
AcDbPolyline
90
6
70
1
43
0.0
10
419.90588826037913
20
85.294555536715563
10
410.53644175984431
20
69.066198158990815
10
419.90588826037907
20
52.837840781266095
10
438.64478126144866
20
52.837840781266074
10
448.01422776198353
20
69.066198158990773
10
438.64478126144883
20
85.294555536715521
0
LWPOLYLINE
5
217
100
AcDbEntity
8
0
100
AcDbPolyline
90
6
70
1
43
0.0
10
453.21038018469017
20
72.066198158990687
10
472.84028933713751
20
72.066198158990616
10
482.65524391336123
20
89.066198158990616
10
472.84028933713773
20
106.06619815899066
10
453.21038018469039
20
106.06619815899072
10
443.39542560846667
20
89.066198158990716
0
LWPOLYLINE
5
218
100
AcDbEntity
8
0
100
AcDbPolyline
90
6
70
1
43
0.0
10
487.40588826037924
20
125.29455553671532
10
478.03644175984437
20
109.06619815899057
10
487.40588826037913
20
92.837840781265868
10
506.14478126144877
20
92.837840781265854
10
515.51422776198365
20
109.06619815899052
10
506.14478126144888
20
125.29455553671525
0
LWPOLYLINE
5
219
100
AcDbEntity
8
0
100
AcDbPolyline
90
6
70
1
43
0.0
10
487.40588826037907
20
85.294555536715364
10
478.03644175984425
20
69.066198158990616
10
487.40588826037902
20
52.837840781265896
10
506.1447812614486
20
52.837840781265861
10
515.51422776198342
20
69.066198158990559
10
506.14478126144877
20
85.294555536715308
0
LWPOLYLINE
5
220
100
AcDbEntity
8
0
100
AcDbPolyline
90
6
70
1
43
0.0
10
419.9058882603793
20
125.29455553671554
10
410.53644175984448
20
109.06619815899079
10
419.9058882603793
20
92.837840781266081
10
438.64478126144883
20
92.837840781266067
10
448.01422776198365
20
109.06619815899074
10
438.64478126144894
20
125.29455553671546
0
LWPOLYLINE
5
221
100
AcDbEntity
8
0
100
AcDbPolyline
90
13
70
1
43
0.0
10
701.1443075576301
20
49.066198158989998
42
-0.1763269807083663
10
702.10848897215999
20
48.715264823668456
10
724.98951617544321
20
29.515803336435734
42
-0.22169466264288012
10
725.52533476091344
20
28.366736671757401
10
725.52533476091344
20
10.566198158989943
42
-0.41421356237308943
10
724.02533476091332
20
9.0661981589899501
10
377.02533476091378
20
9.0661981589910479
42
-0.41421356237309681
10
375.52533476091378
20
10.566198158991043
10
375.52533476091418
20
147.56619815899089
42
-0.41421356237309853
10
377.02533476091418
20
149.06619815899086
10
549.02533476091412
20
149.06619815899032
42
-0.41421356237309159
10
550.52533476091401
20
147.56619815899035
10
550.52533476091378
20
49.066198158990446
0
LWPOLYLINE
5
222
100
AcDbEntity
8
0
100
AcDbPolyline
90
4
70
1
43
0.0
10
453.21038018469017
20
66.066198158990758
10
443.39542560846644
20
49.066198158990773
10
482.65524391336106
20
49.066198158990659
10
472.84028933713756
20
66.066198158990701
0
CIRCLE
5
223
100
AcDbEntity
8
0
100
AcDbCircle
10
385.52533476091418
20
139.06619815899086
30
0
40
2.2500000000000115
0
CIRCLE
5
224
100
AcDbEntity
8
0
100
AcDbCircle
10
540.52533476091401
20
139.06619815899037
30
0
40
2.2500000000000115
0
CIRCLE
5
225
100
AcDbEntity
8
0
100
AcDbCircle
10
540.52533476091355
20
19.06619815899051
30
0
40
2.7499999999999964
0
CIRCLE
5
226
100
AcDbEntity
8
0
100
AcDbCircle
10
715.52533476091344
20
19.066198158989963
30
0
40
2.7499999999999964
0
CIRCLE
5
227
100
AcDbEntity
8
0
100
AcDbCircle
10
385.52533476091367
20
19.066198158990993
30
0
40
2.7499999999999964
0
LWPOLYLINE
5
228
100
AcDbEntity
8
0
100
AcDbPolyline
90
28
70
1
43
0.0
10
796.80557589910586
20
14.271765664449152
42
-0.41421356237307161
10
795.30557589910609
20
12.771765664449168
10
774.30557589910654
20
12.771765664449127
42
-0.41421356237307511
10
772.80557589910654
20
14.271765664449223
10
772.80557589910688
20
151.27176566444814
42
-0.41421356237314017
10
774.30557589910688
20
152.77176566444811
10
791.30557589910666
20
152.77176566444834
42
-0.41421356237307771
10
792.80557589910677
20
151.27176566444808
10
792.80557589910643
20
72.771765664448679
10
812.80557589910597
20
55.989773040903181
10
892.80557589910495
20
55.989773040902989
10
912.80557589910484
20
72.771765664448395
10
912.80557589910529
20
151.2717656644478
42
-0.41421356237307422
10
914.30557589910507
20
152.77176566444777
10
931.30557589910484
20
152.77176566444777
42
-0.41421356237314705
10
932.80557589910484
20
151.27176566444771
10
932.80557589910416
20
14.271765664448818
42
-0.41421356237307161
10
931.30557589910438
20
12.771765664448836
10
910.30557589910472
20
12.77176566444879
42
-0.41421356237307339
10
908.80557589910484
20
14.271765664448877
10
908.80557589910484
20
22.771765664448814
42
0.99999999999999989
10
896.80557589910495
20
22.771765664448843
10
896.80557589910495
20
14.271765664448907
42
-0.41421356237314144
10
895.30557589910484
20
12.771765664448925
10
810.30557589910597
20
12.771765664449251
42
-0.41421356237314277
10
808.80557589910609
20
14.271765664449125
10
808.80557589910609
20
22.77176566444906
42
0.99999999999999989
10
796.8055758991062
20
22.771765664449084
0
CIRCLE
5
229
100
AcDbEntity
8
0
100
AcDbCircle
10
782.80557589910643
20
22.77176566444912
30
0
40
2.7499999999999796
0
CIRCLE
5
230
100
AcDbEntity
8
0
100
AcDbCircle
10
782.80557589910654
20
62.7717656644488
30
0
40
2.7499999999999818
0
CIRCLE
5
231
100
AcDbEntity
8
0
100
AcDbCircle
10
922.80557589910461
20
22.771765664448775
30
0
40
2.7499999999999796
0
CIRCLE
5
232
100
AcDbEntity
8
0
100
AcDbCircle
10
922.80557589910472
20
62.771765664448466
30
0
40
2.7499999999999818
0
CIRCLE
5
233
100
AcDbEntity
8
0
100
AcDbCircle
10
782.80557589910677
20
142.77176566444817
30
0
40
2.7499999999999818
0
CIRCLE
5
234
100
AcDbEntity
8
0
100
AcDbCircle
10
922.80557589910495
20
142.77176566444783
30
0
40
2.7499999999999818
0
LWPOLYLINE
5
235
100
AcDbEntity
8
0
100
AcDbPolyline
90
28
70
1
43
0.0
10
881.94055427870535
20
212.83328990561739
42
-0.41421356237316442
10
883.44055427870546
20
214.33328990561728
10
904.44055427870524
20
214.33328990561606
42
-0.41421356237312279
10
905.94055427870501
20
212.83328990561586
10
905.94055427869637
20
75.833289905616738
42
-0.41421356237314538
10
904.44055427869648
20
74.33328990561688
10
887.44055427869637
20
74.333289905618017
42
-0.41421356237313667
10
885.9405542786966
20
75.833289905618003
10
885.9405542787016
20
154.33328990561751
10
865.94055427870285
20
171.11528252916426
10
785.94055427870387
20
171.11528252916926
10
765.94055427870308
20
154.33328990562504
10
765.94055427869785
20
75.83328990562552
42
-0.41421356237317308
10
764.44055427869785
20
74.333289905625648
10
747.44055427869807
20
74.333289905626657
42
-0.41421356237314189
10
745.94055427869819
20
75.833289905626799
10
745.94055427870694
20
212.83328990562592
42
-0.41421356237313667
10
747.44055427870694
20
214.3332899056258
10
768.44055427870671
20
214.33328990562472
42
-0.41421356237312279
10
769.9405542787066
20
212.83328990562438
10
769.94055427870603
20
204.33328990562447
42
0.99999999999999989
10
781.94055427870592
20
204.3332899056237
10
781.94055427870649
20
212.83328990562367
42
-0.41421356237317136
10
783.4405542787066
20
214.33328990562356
10
868.44055427870569
20
214.33328990561819
42
-0.41421356237315055
10
869.94055427870546
20
212.83328990561813
10
869.94055427870489
20
204.33328990561822
42
0.99999999999999989
10
881.94055427870478
20
204.33328990561745
0
CIRCLE
5
236
100
AcDbEntity
8
0
100
AcDbCircle
10
895.94055427870455
20
204.33328990561654
30
0
40
2.7499999999999836
0
CIRCLE
5
237
100
AcDbEntity
8
0
100
AcDbCircle
10
895.94055427870217
20
164.33328990561679
30
0
40
2.7499999999999858
0
CIRCLE
5
238
100
AcDbEntity
8
0
100
AcDbCircle
10
755.94055427870626
20
204.33328990562532
30
0
40
2.7499999999999836
0
CIRCLE
5
239
100
AcDbEntity
8
0
100
AcDbCircle
10
755.94055427870376
20
164.33328990562558
30
0
40
2.7499999999999858
0
CIRCLE
5
240
100
AcDbEntity
8
0
100
AcDbCircle
10
895.94055427869705
20
84.333289905617335
30
0
40
2.7499999999999858
0
CIRCLE
5
241
100
AcDbEntity
8
0
100
AcDbCircle
10
755.94055427869864
20
84.333289905626117
30
0
40
2.7499999999999858
0
LWPOLYLINE
5
242
100
AcDbEntity
8
0
100
AcDbPolyline
90
32
70
1
43
0.0
10
982.27292996983783
20
219.06362744905317
42
-0.22169466264306822
10
982.80874855530806
20
220.21269411373163
10
996.15574701783714
20
231.4121556009643
42
-0.17632698070840833
10
997.11992843236703
20
231.76308893628587
10
1047.4259315073064
20
231.7630889362872
42
-0.17632698070846201
10
1048.3901129218361
20
231.41215560096572
10
1061.7371113843658
20
220.21269411373382
42
-0.22169466264283083
10
1062.2729299698362
20
219.06362744905533
10
1062.2729299698367
20
201.26308893628814
42
0.41421356237308815
10
1063.7729299698365
20
199.76308893628817
10
1100.7729299698358
20
199.76308893628925
42
-0.41421356237312279
10
1102.2729299698358
20
198.26308893628934
10
1102.272929969839
20
81.263088936291155
42
-0.41421356237311585
10
1100.772929969839
20
79.763088936291155
10
1063.7729299698399
20
79.763088936290032
42
-0.41421356237306034
10
1062.2729299698399
20
81.263088936290046
10
1062.2729299698376
20
159.06362744905633
42
0.22169466264292967
10
1061.7371113843676
20
160.21269411373478
10
1048.3901129218377
20
171.41215560096668
42
0.17632698070845421
10
1047.425931507308
20
171.76308893628823
10
997.11992843236874
20
171.76308893628686
42
0.17632698070848071
10
996.15574701783885
20
171.41215560096526
10
982.80874855530965
20
160.21269411373265
42
0.22169466264293297
10
982.27292996983942
20
159.0636274490542
10
982.27292996984147
20
81.263088936287872
42
-0.41421356237311585
10
980.77292996984158
20
79.763088936287886
10
943.77292996984238
20
79.763088936286763
42
-0.41421356237306384
10
942.27292996984249
20
81.263088936286806
10
942.27292996983942
20
198.26308893628493
42
-0.41421356237307422
10
943.7729299698392
20
199.76308893628496
10
980.7729299698384
20
199.76308893628595
42
0.41421356237310197
10
982.27292996983829
20
201.26308893628595
0
CIRCLE
5
243
100
AcDbEntity
8
0
100
AcDbCircle
10
952.27292996983965
20
179.7630889362855
30
0
40
2.249999999999964
0
LINE
5
244
100
AcDbEntity
8
0
100
AcDbLine
10
1037.1186363755246
20
189.74580965534656
30
0
11
1039.6871435322105
21
187.17730249866082
31
0
0
ARC
5
245
100
AcDbEntity
8
0
100
AcDbCircle
10
1038.2729299698376
20
185.76308893628772
30
0
40
2.0000000000000466
100
AcDbArc
50
-135
51
45.000000000004604
0
LINE
5
246
100
AcDbEntity
8
0
100
AcDbLine
10
1036.8587164074645
20
184.34887537391461
30
0
11
1034.2902092507788
21
186.91738253060035
31
0
0
ARC
5
247
100
AcDbEntity
8
0
100
AcDbCircle
10
1022.2729299698375
20
201.76308893628709
30
0
40
19.09999999999971
100
AcDbArc
50
231.01057632025774
51
308.98942367974519
0
LINE
5
248
100
AcDbEntity
8
0
100
AcDbLine
10
1010.2556506888969
20
186.91738253059978
30
0
11
1007.6871435322113
21
184.34887537391378
31
0
0
ARC
5
249
100
AcDbEntity
8
0
100
AcDbCircle
10
1006.2729299698381
20
185.76308893628681
30
0
40
1.9999999999998705
100
AcDbArc
50
134.99999999999483
51
315.00000000000404
0
LINE
5
250
100
AcDbEntity
8
0
100
AcDbLine
10
1004.8587164074652
20
187.17730249865994
30
0
11
1007.4272235641507
21
189.74580965534579
31
0
0
ARC
5
251
100
AcDbEntity
8
0
100
AcDbCircle
10
1022.2729299698375
20
201.76308893628709
30
0
40
19.099999999999579
100
AcDbArc
50
141.01057632025837
51
218.98942367974496
0
LINE
5
252
100
AcDbEntity
8
0
100
AcDbLine
10
1007.4272235641502
20
213.78036821722742
30
0
11
1004.8587164074643
21
216.34887537391324
31
0
0
ARC
5
253
100
AcDbEntity
8
0
100
AcDbCircle
10
1006.2729299698373
20
217.76308893628638
30
0
40
2.0000000000000466
100
AcDbArc
50
44.999999999997115
51
225.0000000000029
0
LINE
5
254
100
AcDbEntity
8
0
100
AcDbLine
10
1007.6871435322105
20
219.17730249865946
30
0
11
1010.2556506888964
21
216.60879534197377
31
0
0
ARC
5
255
100
AcDbEntity
8
0
100
AcDbCircle
10
1022.2729299698375
20
201.76308893628709
30
0
40
19.099999999999653
100
AcDbArc
50
51.01057632025735
51
128.98942367974473
0
LINE
5
256
100
AcDbEntity
8
0
100
AcDbLine
10
1034.2902092507782
20
216.60879534197431
30
0
11
1036.8587164074638
21
219.17730249866028
31
0
0
ARC
5
257
100
AcDbEntity
8
0
100
AcDbCircle
10
1038.2729299698369
20
217.76308893628732
30
0
40
1.9999999999998705
100
AcDbArc
50
-45.000000000005194
51
135.0000000000029
0
LINE
5
258
100
AcDbEntity
8
0
100
AcDbLine
10
1039.6871435322098
20
216.34887537391418
30
0
11
1037.1186363755241
21
213.7803682172283
31
0
0
ARC
5
259
100
AcDbEntity
8
0
100
AcDbCircle
10
1022.2729299698375
20
201.76308893628709
30
0
40
19.099999999999582
100
AcDbArc
50
-38.989423679742551
51
38.989423679744981
0
CIRCLE
5
260
100
AcDbEntity
8
0
100
AcDbCircle
10
1045.7729299698376
20
178.26308893628806
30
0
40
2.249999999999964
0
CIRCLE
5
261
100
AcDbEntity
8
0
100
AcDbCircle
10
998.77292996983851
20
178.26308893628678
30
0
40
2.249999999999964
0
CIRCLE
5
262
100
AcDbEntity
8
0
100
AcDbCircle
10
1092.272929969839
20
89.763088936290757
30
0
40
2.24999999999996
0
CIRCLE
5
263
100
AcDbEntity
8
0
100
AcDbCircle
10
1045.7729299698362
20
225.26308893628732
30
0
40
2.249999999999964
0
CIRCLE
5
264
100
AcDbEntity
8
0
100
AcDbCircle
10
1092.2729299698365
20
179.76308893628931
30
0
40
2.249999999999964
0
CIRCLE
5
265
100
AcDbEntity
8
0
100
AcDbCircle
10
952.27292996984204
20
89.763088936286948
30
0
40
2.24999999999996
0
CIRCLE
5
266
100
AcDbEntity
8
0
100
AcDbCircle
10
998.77292996983738
20
225.26308893628601
30
0
40
2.249999999999964
0
LWPOLYLINE
5
267
100
AcDbEntity
8
0
100
AcDbPolyline
90
32
70
1
43
0.0
10
1109.5991626153327
20
19.077002567039326
42
-0.22169466264289259
10
1109.0633440298627
20
17.927935902360872
10
1095.7163455673331
20
6.7284744151285523
42
-0.17632698070851535
10
1094.7521641528031
20
6.3775410798069512
10
1044.4461610778635
20
6.3775410798072008
42
-0.1763269807084801
10
1043.4819796633337
20
6.7284744151286286
10
1030.1349812008041
20
17.927935902361245
42
-0.22169466264287557
10
1029.5991626153341
20
19.07700256703955
10
1029.5991626153339
20
36.87754107980691
42
0.41421356237309592
10
1028.0991626153341
20
38.377541079806903
10
991.09916261533454
20
38.377541079806988
42
-0.41421356237314017
10
989.59916261533454
20
39.877541079806988
10
989.59916261533522
20
156.87754107980618
42
-0.41421356237307422
10
991.09916261533499
20
158.37754107980612
10
1028.0991626153345
20
158.37754107980604
42
-0.41421356237314017
10
1029.5991626153345
20
156.87754107980604
10
1029.5991626153343
20
79.077002567039074
42
0.2216946626429494
10
1030.1349812008043
20
77.92793590236063
10
1043.481979663334
20
66.728474415128204
42
0.17632698070847583
10
1044.4461610778637
20
66.377541079806662
10
1094.7521641528035
20
66.377541079806505
42
0.17632698070845421
10
1095.7163455673331
20
66.728474415128034
10
1109.0633440298629
20
77.927935902360332
42
0.22169466264295692
10
1109.5991626153332
20
79.077002567038846
10
1109.5991626153334
20
156.87754107980581
42
-0.41421356237311585
10
1111.0991626153332
20
158.37754107980578
10
1148.0991626153329
20
158.37754107980589
42
-0.41421356237307422
10
1149.5991626153329
20
156.87754107980567
10
1149.5991626153325
20
39.877541079806534
42
-0.414213562373141
10
1148.0991626153325
20
38.377541079806555
10
1111.0991626153329
20
38.377541079806662
42
0.4142135623730942
10
1109.5991626153329
20
36.877541079806676
0
CIRCLE
5
268
100
AcDbEntity
8
0
100
AcDbCircle
10
1139.5991626153327
20
58.377541079806434
30
0
40
2.2499999999999836
0
LINE
5
269
100
AcDbEntity
8
0
100
AcDbLine
10
1054.7534562096464
20
48.394820360747836
30
0
11
1052.1849490529607
21
50.963327517433669
31
0
0
ARC
5
270
100
AcDbEntity
8
0
100
AcDbCircle
10
1053.5991626153339
20
52.377541079806704
30
0
40
1.9999999999999458
100
AcDbArc
50
44.999999999999709
51
224.99999999999855
0
LINE
5
271
100
AcDbEntity
8
0
100
AcDbLine
10
1055.013376177707
20
53.791754642179797
30
0
11
1057.5818833343926
21
51.223247485494014
31
0
0
ARC
5
272
100
AcDbEntity
8
0
100
AcDbCircle
10
1069.5991626153336
20
36.377541079807123
30
0
40
19.099999999999547
100
AcDbArc
50
51.010576320256192
51
128.98942367974408
0
LINE
5
273
100
AcDbEntity
8
0
100
AcDbLine
10
1081.6164418962744
20
51.223247485493872
30
0
11
1084.1849490529603
21
53.791754642179754
31
0
0
ARC
5
274
100
AcDbEntity
8
0
100
AcDbCircle
10
1085.5991626153334
20
52.377541079806669
30
0
40
1.999999999999883
100
AcDbArc
50
-45.00000000000535
51
135.00000000000043
0
LINE
5
275
100
AcDbEntity
8
0
100
AcDbLine
10
1087.0133761777063
20
50.963327517433527
30
0
11
1084.4448690210206
21
48.394820360747737
31
0
0
ARC
5
276
100
AcDbEntity
8
0
100
AcDbCircle
10
1069.5991626153336
20
36.377541079807123
30
0
40
19.099999999999969
100
AcDbArc
50
-38.989423679744533
51
38.989423679742941
0
LINE
5
277
100
AcDbEntity
8
0
100
AcDbLine
10
1084.4448690210206
20
24.360261798865817
30
0
11
1087.0133761777063
21
21.791754642179932
31
0
0
ARC
5
278
100
AcDbEntity
8
0
100
AcDbCircle
10
1085.5991626153332
20
20.377541079806889
30
0
40
1.9999999999999383
100
AcDbArc
50
-135.00000000000051
51
44.999999146229968
0
LINE
5
279
100
AcDbEntity
8
0
100
AcDbLine
10
1084.1849490529601
20
18.963327517433807
30
0
11
1081.6164418962744
21
21.531834674119594
31
0
0
ARC
5
280
100
AcDbEntity
8
0
100
AcDbCircle
10
1069.5991626153336
20
36.377541079807123
30
0
40
19.100000000000041
100
AcDbArc
50
231.01057632025635
51
308.98942367974234
0
LINE
5
281
100
AcDbEntity
8
0
100
AcDbLine
10
1057.5818833343924
20
21.53183467411974
30
0
11
1055.0133761777067
21
18.963327517433839
31
0
0
ARC
5
282
100
AcDbEntity
8
0
100
AcDbCircle
10
1053.5991626153336
20
20.377541079806932
30
0
40
1.9999999999998799
100
AcDbArc
50
134.99999999999469
51
315.00000000000028
0
LINE
5
283
100
AcDbEntity
8
0
100
AcDbLine
10
1052.1849490529607
20
21.791754642180074
30
0
11
1054.7534562096464
21
24.360261798865857
31
0
0
ARC
5
284
100
AcDbEntity
8
0
100
AcDbCircle
10
1069.5991626153336
20
36.377541079807123
30
0
40
19.099999999999596
100
AcDbArc
50
141.01057632025729
51
218.98942367974402
0
CIRCLE
5
285
100
AcDbEntity
8
0
100
AcDbCircle
10
1046.0991626153339
20
59.87754107980669
30
0
40
2.2499999999999836
0
CIRCLE
5
286
100
AcDbEntity
8
0
100
AcDbCircle
10
1093.0991626153334
20
59.877541079806555
30
0
40
2.2499999999999836
0
CIRCLE
5
287
100
AcDbEntity
8
0
100
AcDbCircle
10
999.59916261533476
20
148.37754107980618
30
0
40
2.2499999999999791
0
CIRCLE
5
288
100
AcDbEntity
8
0
100
AcDbCircle
10
1046.0991626153336
20
12.877541079807049
30
0
40
2.2499999999999836
0
CIRCLE
5
289
100
AcDbEntity
8
0
100
AcDbCircle
10
999.59916261533454
20
58.377541079806846
30
0
40
2.2499999999999836
0
CIRCLE
5
290
100
AcDbEntity
8
0
100
AcDbCircle
10
1139.5991626153329
20
148.37754107980578
30
0
40
2.2499999999999791
0
CIRCLE
5
291
100
AcDbEntity
8
0
100
AcDbCircle
10
1093.0991626153332
20
12.877541079806921
30
0
40
2.2499999999999836
0
CIRCLE
5
292
100
AcDbEntity
8
0
100
AcDbCircle
10
1211.1715239185896
20
127.64718574099254
30
0
40
2.4999999999999729
0
CIRCLE
5
293
100
AcDbEntity
8
0
100
AcDbCircle
10
1211.1715239185851
20
115.64718574099271
30
0
40
2.4999999999999729
0
CIRCLE
5
294
100
AcDbEntity
8
0
100
AcDbCircle
10
1185.1715239185662
20
64.647185741003099
30
0
40
1.9999999999999876
0
CIRCLE
5
295
100
AcDbEntity
8
0
100
AcDbCircle
10
1185.1715239185564
20
38.647185741003383
30
0
40
1.9999999999999876
0
CIRCLE
5
296
100
AcDbEntity
8
0
100
AcDbCircle
10
1211.171523918566
20
64.647185740993351
30
0
40
1.9999999999999876
0
CIRCLE
5
297
100
AcDbEntity
8
0
100
AcDbCircle
10
1211.1715239185562
20
38.647185740993628
30
0
40
1.9999999999999876
0
CIRCLE
5
298
100
AcDbEntity
8
0
100
AcDbCircle
10
1211.1715239186087
20
178.64718574099192
30
0
40
1.9999999999999829
0
CIRCLE
5
299
100
AcDbEntity
8
0
100
AcDbCircle
10
1185.1715239186187
20
204.64718574100132
30
0
40
1.9999999999999829
0
CIRCLE
5
300
100
AcDbEntity
8
0
100
AcDbCircle
10
1211.1715239186185
20
204.64718574099157
30
0
40
1.9999999999999829
0
CIRCLE
5
301
100
AcDbEntity
8
0
100
AcDbCircle
10
1185.171523918609
20
178.64718574100166
30
0
40
1.9999999999999829
0
CIRCLE
5
302
100
AcDbEntity
8
0
100
AcDbCircle
10
1162.1715239186344
20
246.64718574100945
30
0
40
2.1169999999999916
0
CIRCLE
5
303
100
AcDbEntity
8
0
100
AcDbCircle
10
1234.1715239186342
20
246.64718574098237
30
0
40
2.1169999999999916
0
CIRCLE
5
304
100
AcDbEntity
8
0
100
AcDbCircle
10
1162.171523918548
20
15.647185741012271
30
0
40
2.1169999999999822
0
CIRCLE
5
305
100
AcDbEntity
8
0
100
AcDbCircle
10
1234.1715239185473
20
15.647185740985286
30
0
40
2.1169999999999822
0
LWPOLYLINE
5
306
100
AcDbEntity
8
0
100
AcDbPolyline
90
20
70
1
43
0.0
10
1229.1715239186155
20
197.64718574098498
10
1229.171523918566
20
64.6471857409866
10
1239.6715239185612
20
52.133773018743625
10
1239.6715239185448
20
8.6471857409833248
10
1228.1715239185448
20
8.6471857409876325
10
1228.1715239185501
20
22.647185740987435
10
1168.1715239185507
20
22.647185741009924
10
1168.1715239185455
20
8.6471857410101212
10
1156.6715239185455
20
8.6471857410144271
10
1156.6715239185619
20
52.133773018774704
10
1167.1715239185662
20
64.647185741009864
10
1167.1715239186162
20
197.64718574100823
10
1156.671523918621
20
210.1605984632512
10
1156.6715239186369
20
253.64718574101144
10
1168.1715239186369
20
253.64718574100715
10
1168.1715239186317
20
239.64718574100729
10
1228.1715239186315
20
239.6471857409847
10
1228.1715239186367
20
253.64718574098458
10
1239.6715239186367
20
253.64718574098023
10
1239.6715239186201
20
210.16059846322014
0
CIRCLE
5
307
100
AcDbEntity
8
0
100
AcDbCircle
10
1201.1469721056758
20
271.67962410295837
30
0
40
2.7499999999999818
0
CIRCLE
5
308
100
AcDbEntity
8
0
100
AcDbCircle
10
1221.1469721056758
20
271.67962410295547
30
0
40
2.7499999999999818
0
CIRCLE
5
309
100
AcDbEntity
8
0
100
AcDbCircle
10
1169.3969721056774
20
279.67962410296286
30
0
40
2.4999999999999845
0
CIRCLE
5
310
100
AcDbEntity
8
0
100
AcDbCircle
10
1132.8969721056776
20
279.67962410296821
30
0
40
2.4999999999999845
0
CIRCLE
5
311
100
AcDbEntity
8
0
100
AcDbCircle
10
1081.1469721056767
20
271.67962410297582
30
0
40
2.7499999999999831
0
CIRCLE
5
312
100
AcDbEntity
8
0
100
AcDbCircle
10
1151.1469721056774
20
279.67962410296553
30
0
40
4.9999999999999734
0
CIRCLE
5
313
100
AcDbEntity
8
0
100
AcDbCircle
10
1101.1469721056765
20
271.67962410297292
30
0
40
2.7499999999999831
0
LWPOLYLINE
5
314
100
AcDbEntity
8
0
100
AcDbPolyline
90
18
70
1
43
0.0
10
1170.8459289945492
20
295.17962410296252
42
-0.17632698070848193
10
1171.8101104090788
20
294.82869076764081
10
1185.6929274570771
20
283.17962410296053
10
1209.3593417167863
20
283.17962410295701
10
1211.1469721056774
20
281.67962410295678
10
1229.6469721056772
20
281.67962410295399
42
-0.41421356237301876
10
1231.1469721056769
20
280.17962410295388
10
1231.1469721056744
20
263.17962410295411
42
-0.41421356237310197
10
1229.6469721056742
20
261.67962410295434
10
1072.6469721056753
20
261.67962410297741
42
-0.41421356237299795
10
1071.1469721056756
20
263.17962410297741
10
1071.1469721056778
20
280.17962410297719
42
-0.41421356237310197
10
1072.6469721056783
20
281.67962410297696
10
1091.1469721056781
20
281.67962410297429
10
1092.9346024945696
20
283.179624102974
10
1116.6010167542788
20
283.17962410297059
10
1130.4838338022805
20
294.82869076764695
42
-0.17632698070846167
10
1131.4480152168103
20
295.17962410296826
0
LWPOLYLINE
5
315
100
AcDbEntity
8
0
100
AcDbPolyline
90
14
70
1
43
0.0
10
1220.0156002775582
20
286.77212914235366
42
-0.41421356237312279
10
1218.5156002775582
20
288.27212914235355
10
1218.515600277558
20
306.77212914235332
10
1083.5156002775586
20
306.77212914235236
10
1083.5156002775591
20
288.27212914235258
42
-0.41421356237315055
10
1082.0156002775589
20
286.77212914235258
10
1065.0156002775589
20
286.77212914235253
42
-0.41421356237304652
10
1063.5156002775589
20
288.27212914235247
10
1063.5156002775584
20
325.27212914235207
42
-0.41421356237308116
10
1065.0156002775586
20
326.77212914235207
10
1237.0156002775577
20
326.77212914235304
42
-0.41421356237312279
10
1238.5156002775577
20
325.27212914235326
10
1238.5156002775582
20
288.27212914235366
42
-0.41421356237308815
10
1237.015600277558
20
286.77212914235372
0
CIRCLE
5
316
100
AcDbEntity
8
0
100
AcDbCircle
10
1228.5156002775577
20
316.77212914235332
30
0
40
2.749999999999972
0
CIRCLE
5
317
100
AcDbEntity
8
0
100
AcDbCircle
10
1228.515600277558
20
296.77212914235349
30
0
40
2.749999999999972
0
CIRCLE
5
318
100
AcDbEntity
8
0
100
AcDbCircle
10
1113.5156002775584
20
316.77212914235247
30
0
40
2.7499999999999898
0
CIRCLE
5
319
100
AcDbEntity
8
0
100
AcDbCircle
10
1188.5156002775582
20
316.77212914235304
30
0
40
2.749999999999972
0
CIRCLE
5
320
100
AcDbEntity
8
0
100
AcDbCircle
10
1073.5156002775589
20
296.77212914235241
30
0
40
2.7499999999999853
0
CIRCLE
5
321
100
AcDbEntity
8
0
100
AcDbCircle
10
1073.5156002775586
20
316.77212914235218
30
0
40
2.7499999999999853
0
LWPOLYLINE
5
322
100
AcDbEntity
8
0
100
AcDbPolyline
90
14
70
1
43
0.0
10
1028.460743851168
20
281.10742839068917
42
-0.41421356237312279
10
1026.960743851168
20
282.60742839068905
10
1026.960743851168
20
301.10742839068882
10
891.96074385116901
20
301.10742839068752
10
891.96074385116935
20
282.60742839068774
42
-0.41421356237312279
10
890.46074385116913
20
281.10742839068774
10
873.46074385116924
20
281.10742839068769
42
-0.41421356237308815
10
871.96074385116935
20
282.60742839068757
10
871.96074385116867
20
319.60742839068706
42
-0.41421356237309503
10
873.46074385116879
20
321.10742839068706
10
1045.4607438511675
20
321.10742839068882
42
-0.41421356237303258
10
1046.9607438511675
20
319.60742839068882
10
1046.960743851168
20
282.60742839068928
42
-0.41421356237308815
10
1045.460743851168
20
281.10742839068928
0
CIRCLE
5
323
100
AcDbEntity
8
0
100
AcDbCircle
10
1036.9607438511678
20
311.10742839068882
30
0
40
2.7499999999999658
0
CIRCLE
5
324
100
AcDbEntity
8
0
100
AcDbCircle
10
1036.960743851168
20
291.10742839068905
30
0
40
2.7499999999999658
0
CIRCLE
5
325
100
AcDbEntity
8
0
100
AcDbCircle
10
921.96074385116856
20
311.10742839068769
30
0
40
2.7499999999999836
0
CIRCLE
5
326
100
AcDbEntity
8
0
100
AcDbCircle
10
996.96074385116799
20
311.10742839068843
30
0
40
2.7499999999999658
0
CIRCLE
5
327
100
AcDbEntity
8
0
100
AcDbCircle
10
881.96074385116913
20
291.10742839068752
30
0
40
2.7499999999999791
0
CIRCLE
5
328
100
AcDbEntity
8
0
100
AcDbCircle
10
881.9607438511689
20
311.10742839068729
30
0
40
2.7499999999999791
0
LWPOLYLINE
5
329
100
AcDbEntity
8
0
100
AcDbPolyline
90
14
70
1
43
0.0
10
860.624867363818
20
295.14789374670704
42
-0.41421356237308116
10
862.12486736381845
20
293.6478937467075
10
862.12486736382448
20
275.14789374670778
10
997.12486736382357
20
275.14789374675217
10
997.12486736381743
20
293.64789374675195
42
-0.41421356237306034
10
998.62486736381697
20
295.14789374675246
10
1015.624867363817
20
295.14789374675797
42
-0.41421356237308116
10
1017.1248673638173
20
293.64789374675854
10
1017.1248673638297
20
256.647893746759
42
-0.41421356237308815
10
1015.62486736383
20
255.14789374675854
10
843.62486736383107
20
255.14789374670201
42
-0.41421356237308116
10
842.12486736383073
20
256.64789374670141
10
842.12486736381834
20
293.64789374670102
42
-0.41421356237308815
10
843.624867363818
20
295.14789374670147
0
CIRCLE
5
330
100
AcDbEntity
8
0
100
AcDbCircle
10
852.12486736382789
20
265.1478937467046
30
0
40
2.7499999999999685
0
CIRCLE
5
331
100
AcDbEntity
8
0
100
AcDbCircle
10
852.12486736382118
20
285.14789374670437
30
0
40
2.7499999999999685
0
CIRCLE
5
332
100
AcDbEntity
8
0
100
AcDbCircle
10
967.12486736382721
20
265.14789374674245
30
0
40
2.7499999999999862
0
CIRCLE
5
333
100
AcDbEntity
8
0
100
AcDbCircle
10
892.12486736382755
20
265.14789374671778
30
0
40
2.7499999999999685
0
CIRCLE
5
334
100
AcDbEntity
8
0
100
AcDbCircle
10
1007.1248673638204
20
285.14789374675536
30
0
40
2.7499999999999818
0
CIRCLE
5
335
100
AcDbEntity
8
0
100
AcDbCircle
10
1007.1248673638269
20
265.14789374675559
30
0
40
2.7499999999999818
0
LWPOLYLINE
5
336
100
AcDbEntity
8
0
100
AcDbPolyline
90
8
70
1
43
0.0
10
821.50843206406307
20
246.48872150613039
42
-0.41421356237310897
10
823.00843206406296
20
247.98872150613036
10
980.00843206406046
20
247.98872150613101
42
-0.41421356237307422
10
981.50843206406057
20
246.48872150613076
10
981.50843206406023
20
229.48872150613113
42
-0.41421356237303952
10
980.00843206406057
20
227.98872150613118
10
823.00843206406307
20
227.9887215061305
42
-0.41421356237307422
10
821.50843206406307
20
229.48872150613073
0
CIRCLE
5
337
100
AcDbEntity
8
0
100
AcDbCircle
10
831.50843206406296
20
237.98872150613056
30
0
40
2.7499999999999565
0
CIRCLE
5
338
100
AcDbEntity
8
0
100
AcDbCircle
10
971.50843206406068
20
237.98872150613093
30
0
40
2.7499999999999565
0
CIRCLE
5
339
100
AcDbEntity
8
0
100
AcDbCircle
10
851.50843206406262
20
237.98872150613062
30
0
40
2.7499999999999565
0
CIRCLE
5
340
100
AcDbEntity
8
0
100
AcDbCircle
10
951.50843206406091
20
237.9887215061309
30
0
40
2.7499999999999565
0
CIRCLE
5
341
100
AcDbEntity
8
0
100
AcDbCircle
10
779.53714106583732
20
230.30089740243181
30
0
40
2.7499999999999796
0
CIRCLE
5
342
100
AcDbEntity
8
0
100
AcDbCircle
10
799.5371410658372
20
230.30089740242889
30
0
40
2.7499999999999796
0
CIRCLE
5
343
100
AcDbEntity
8
0
100
AcDbCircle
10
747.78714106583857
20
238.30089740243636
30
0
40
2.4999999999999818
0
CIRCLE
5
344
100
AcDbEntity
8
0
100
AcDbCircle
10
711.28714106583902
20
238.30089740244173
30
0
40
2.4999999999999818
0
CIRCLE
5
345
100
AcDbEntity
8
0
100
AcDbCircle
10
659.53714106583811
20
230.30089740244938
30
0
40
2.7499999999999805
0
CIRCLE
5
346
100
AcDbEntity
8
0
100
AcDbCircle
10
729.53714106583891
20
238.30089740243903
30
0
40
4.999999999999968
0
CIRCLE
5
347
100
AcDbEntity
8
0
100
AcDbCircle
10
679.537141065838
20
230.30089740244648
30
0
40
2.7499999999999805
0
LWPOLYLINE
5
348
100
AcDbEntity
8
0
100
AcDbPolyline
90
18
70
1
43
0.0
10
749.23609795471066
20
253.80089740243596
42
-0.17632698070848593
10
750.20027936924043
20
253.44996406711425
10
764.08309641723827
20
241.80089740243398
10
787.74951067694758
20
241.80089740243045
10
789.5371410658388
20
240.30089740243022
10
808.03714106583857
20
240.30089740242755
42
-0.41421356237301876
10
809.53714106583834
20
238.80089740242732
10
809.53714106583584
20
221.80089740242752
42
-0.41421356237307422
10
808.03714106583573
20
220.30089740242775
10
651.03714106583664
20
220.3008974024508
42
-0.41421356237300488
10
649.53714106583686
20
221.80089740245097
10
649.53714106583959
20
238.80089740245074
42
-0.41421356237310197
10
651.03714106583982
20
240.30089740245049
10
669.53714106583959
20
240.30089740244784
10
671.32477145473104
20
241.80089740244753
10
694.99118571444023
20
241.80089740244409
10
708.87400276244182
20
253.44996406712039
42
-0.17632698070852143
10
709.83818417697171
20
253.80089740244173
0
LWPOLYLINE
5
349
100
AcDbEntity
8
0
100
AcDbPolyline
90
14
70
1
43
0.0
10
796.94166004357373
20
245.94182476065893
42
-0.41421356237308815
10
795.44166004357362
20
247.44182476065896
10
795.44166004357362
20
265.94182476065873
10
660.44166004357453
20
265.94182476065794
10
660.44166004357464
20
247.44182476065814
42
-0.41421356237303952
10
658.94166004357453
20
245.94182476065814
10
641.94166004357476
20
245.94182476065814
42
-0.41421356237303258
10
640.44166004357476
20
247.44182476065802
10
640.44166004357464
20
284.4418247606576
42
-0.41421356237306034
10
641.94166004357442
20
285.9418247606576
10
813.94166004357339
20
285.94182476065856
42
-0.41421356237304652
10
815.44166004357339
20
284.44182476065862
10
815.44166004357385
20
247.44182476065905
42
-0.41421356237303952
10
813.94166004357373
20
245.94182476065907
0
CIRCLE
5
350
100
AcDbEntity
8
0
100
AcDbCircle
10
805.44166004357351
20
275.94182476065868
30
0
40
2.7499999999999685
0
CIRCLE
5
351
100
AcDbEntity
8
0
100
AcDbCircle
10
805.44166004357362
20
255.94182476065893
30
0
40
2.7499999999999685
0
CIRCLE
5
352
100
AcDbEntity
8
0
100
AcDbCircle
10
690.44166004357419
20
275.94182476065799
30
0
40
2.7499999999999862
0
CIRCLE
5
353
100
AcDbEntity
8
0
100
AcDbCircle
10
765.44166004357385
20
275.94182476065845
30
0
40
2.7499999999999685
0
CIRCLE
5
354
100
AcDbEntity
8
0
100
AcDbCircle
10
650.44166004357464
20
255.94182476065799
30
0
40
2.7499999999999818
0
CIRCLE
5
355
100
AcDbEntity
8
0
100
AcDbCircle
10
650.44166004357453
20
275.94182476065777
30
0
40
2.7499999999999818
0
LWPOLYLINE
5
356
100
AcDbEntity
8
0
100
AcDbPolyline
90
8
70
1
43
0.0
10
596.03679747684862
20
317.83364568045437
42
-0.41421356237309503
10
597.53679747684851
20
319.33364568045431
10
754.53679747684771
20
319.33364568045471
42
-0.41421356237308815
10
756.03679747684782
20
317.83364568045471
10
756.03679747684794
20
300.83364568045482
42
-0.41421356237306034
10
754.53679747684771
20
299.33364568045488
10
597.53679747684851
20
299.33364568045459
42
-0.41421356237308815
10
596.03679747684862
20
300.83364568045448
0
CIRCLE
5
357
100
AcDbEntity
8
0
100
AcDbCircle
10
606.03679747684851
20
309.33364568045442
30
0
40
2.749999999999988
0
CIRCLE
5
358
100
AcDbEntity
8
0
100
AcDbCircle
10
746.03679747684782
20
309.33364568045477
30
0
40
2.749999999999988
0
CIRCLE
5
359
100
AcDbEntity
8
0
100
AcDbCircle
10
626.03679747684839
20
309.33364568045448
30
0
40
2.749999999999988
0
CIRCLE
5
360
100
AcDbEntity
8
0
100
AcDbCircle
10
726.03679747684794
20
309.33364568045471
30
0
40
2.749999999999988
0
CIRCLE
5
361
100
AcDbEntity
8
0
100
AcDbCircle
10
619.20930065443304
20
217.50191135196195
30
0
40
2.1169999999999862
0
CIRCLE
5
362
100
AcDbEntity
8
0
100
AcDbCircle
10
478.20930065441956
20
292.50191135193342
30
0
40
1.9999999999999889
0
CIRCLE
5
363
100
AcDbEntity
8
0
100
AcDbCircle
10
619.20930065442326
20
267.50191135196167
30
0
40
2.1169999999999862
0
CIRCLE
5
364
100
AcDbEntity
8
0
100
AcDbCircle
10
520.20930065441451
20
316.50191135194166
30
0
40
1.9999999999999889
0
CIRCLE
5
365
100
AcDbEntity
8
0
100
AcDbCircle
10
520.20930065441917
20
292.50191135194177
30
0
40
1.9999999999999889
0
CIRCLE
5
366
100
AcDbEntity
8
0
100
AcDbCircle
10
478.20930065441485
20
316.5019113519333
30
0
40
1.9999999999999889
0
LWPOLYLINE
5
367
100
AcDbEntity
8
0
100
AcDbPolyline
90
14
70
1
43
0.0
10
553.20930065441325
20
321.50191135194825
10
591.34541561743413
20
289.50191135195598
10
605.20930065441905
20
289.50191135195871
10
633.20930065442337
20
266.00712167900059
10
633.20930065443486
20
208.00191135196482
10
619.20930065443497
20
208.00191135196204
10
605.20930065443281
20
219.74930618844112
10
605.20930065442678
20
250.33969267199069
10
594.29019362643908
20
259.50191135195672
10
580.42630858945404
20
259.50191135195394
10
547.05720799681126
20
287.50191135194711
10
455.9350829877684
20
287.5019113519291
10
445.20930065441928
20
296.50191135192688
10
445.20930065441416
20
321.50191135192676
0
ENDSEC
0
SECTION
2
OBJECTS
0
DICTIONARY
5
C
100
AcDbDictionary
3
ACAD_GROUP
350
D
3
ACAD_MLINESTYLE
350
17
0
DICTIONARY
5
D
100
AcDbDictionary
0
DICTIONARY
5
1A
330
C
100
AcDbDictionary
0
DICTIONARY
5
17
100
AcDbDictionary
0
ENDSEC
0
EOF
