0
SECTION
2
HEADER
9
$INSUNITS
70
4
9
$ACADVER
1
AC1014
9
$HANDSEED
5
FFFF
0
ENDSEC
0
SECTION
2
TABLES
0
TABLE
2
VPORT
5
8
100
AcDbSymbolTable
0
ENDTAB
0
TABLE
2
LTYPE
5
5
100
AcDbSymbolTable
0
LTYPE
5
14
100
AcDbSymbolTableRecord
100
AcDbLinetypeTableRecord
2
BYBLOCK
70
0
0
LTYPE
5
15
100
AcDbSymbolTableRecord
100
AcDbLinetypeTableRecord
2
BYLAYER
70
0
0
ENDTAB
0
TABLE
2
LAYER
5
2
100
AcDbSymbolTable
70
2
0
LAYER
5
50
100
AcDbSymbolTableRecord
100
AcDbLayerTableRecord
2
0
70
0
6
CONTINUOUS
0
ENDTAB
0
TABLE
2
STYLE
5
3
100
AcDbSymbolTable
70
1
0
STYLE
5
11
100
AcDbSymbolTableRecord
100
AcDbTextStyleTableRecord
2
STANDARD
70
0
0
ENDTAB
0
TABLE
2
VIEW
5
6
100
AcDbSymbolTable
70
0
0
ENDTAB
0
TABLE
2
UCS
5
7
100
AcDbSymbolTable
70
0
0
ENDTAB
0
TABLE
2
APPID
5
9
100
AcDbSymbolTable
70
2
0
APPID
5
12
100
AcDbSymbolTableRecord
100
AcDbRegAppTableRecord
2
ACAD
70
0
0
ENDTAB
0
TABLE
2
DIMSTYLE
5
A
100
AcDbSymbolTable
70
1
0
ENDTAB
0
TABLE
2
BLOCK_RECORD
5
1
100
AcDbSymbolTable
70
1
0
BLOCK_RECORD
5
1F
100
AcDbSymbolTableRecord
100
AcDbBlockTableRecord
2
*MODEL_SPACE
0
BLOCK_RECORD
5
1B
100
AcDbSymbolTableRecord
100
AcDbBlockTableRecord
2
*PAPER_SPACE
0
ENDTAB
0
ENDSEC
0
SECTION
2
BLOCKS
0
BLOCK
5
20
100
AcDbEntity
100
AcDbBlockBegin
2
*MODEL_SPACE
0
ENDBLK
5
21
100
AcDbEntity
100
AcDbBlockEnd
0
BLOCK
5
1C
100
AcDbEntity
100
AcDbBlockBegin
2
*PAPER_SPACE
0
ENDBLK
5
1D
100
AcDbEntity
100
AcDbBlockEnd
0
ENDSEC
0
SECTION
2
ENTITIES
0
LWPOLYLINE
5
100
100
AcDbEntity
8
0
100
AcDbPolyline
90
13
70
1
43
0.0
10
359.14170902323565
20
-4.2116425951363867
42
-0.41421356237312279
10
360.64170902323582
20
-5.711642595136297
10
360.64170902324736
20
-162.71164259514066
42
-0.41421356237309503
10
359.14170902324747
20
-164.2116425951408
10
187.14170902324756
20
-164.21164259515308
42
-0.41421356237308815
10
185.64170902324747
20
-162.71164259515308
10
185.64170902323917
20
-49.211642595149968
10
40.981504189493876
20
-49.211642595160292
42
-0.17632698070849212
10
40.017322774964001
20
-48.860709259838785
10
11.17752760870771
20
-24.661247772607663
42
-0.22169466264297108
10
10.641709023237407
20
-23.512181107929202
10
10.641709023236089
20
-5.7116425951612095
42
-0.41421356237310719
10
12.141709023235947
20
-4.211642595161063
0
LWPOLYLINE
5
101
100
AcDbEntity
8
0
100
AcDbPolyline
90
6
70
1
43
0.0
10
205.64170902324605
20
-144.21164259515115
10
340.64170902324599
20
-144.21164259514154
10
340.64170902324054
20
-69.211642595139523
10
316.80663717135485
20
-49.211642595140653
10
229.47678087512321
20
-49.211642595146856
10
205.64170902324062
20
-69.211642595149087
0
CIRCLE
5
102
100
AcDbEntity
8
0
100
AcDbCircle
10
195.64170902324685
20
-154.21164259515211
30
0
40
2.2500000000000582
0
CIRCLE
5
103
100
AcDbEntity
8
0
100
AcDbCircle
10
350.64170902324679
20
-154.21164259514111
30
0
40
2.2500000000000582
0
CIRCLE
5
104
100
AcDbEntity
8
0
100
AcDbCircle
10
195.64170902323661
20
-14.211642595148298
30
0
40
2.2500000000000604
0
CIRCLE
5
105
100
AcDbEntity
8
0
100
AcDbCircle
10
350.64170902323644
20
-14.211642595137279
30
0
40
2.2500000000000604
0
CIRCLE
5
106
100
AcDbEntity
8
0
100
AcDbCircle
10
20.641709023236672
20
-14.211642595160736
30
0
40
2.2500000000000626
0
LWPOLYLINE
5
107
100
AcDbEntity
8
0
100
AcDbPolyline
90
13
70
1
43
0.0
10
4.3062954891574048
20
-215.38916197462828
42
-0.41421356237310053
10
2.8062954891574119
20
-213.88916197462834
10
2.8062954891578071
20
-56.889161974628436
42
-0.41421356237308443
10
4.3062954891577476
20
-55.389161974628472
10
176.30629548915732
20
-55.389161974629062
42
-0.41421356237312457
10
177.80629548915729
20
-56.889161974629054
10
177.80629548915704
20
-170.38916197462896
10
322.46650032290205
20
-170.38916197462942
42
-0.17632698070848893
10
323.43068173743183
20
-170.7400953099509
10
352.2704769036863
20
-194.93955679718351
42
-0.22169466264297108
10
352.80629548915647
20
-196.088623461862
10
352.80629548915647
20
-213.88916197462945
42
-0.41421356237311585
10
351.30629548915641
20
-215.38916197462947
0
LWPOLYLINE
5
108
100
AcDbEntity
8
0
100
AcDbPolyline
90
6
70
1
43
0.0
10
157.80629548915729
20
-75.389161974628948
10
22.806295489157684
20
-75.389161974628522
10
22.806295489157506
20
-150.38916197462842
10
46.641367341041601
20
-170.38916197462851
10
133.97122363727308
20
-170.38916197462882
10
157.80629548915715
20
-150.38916197462888
0
CIRCLE
5
109
100
AcDbEntity
8
0
100
AcDbCircle
10
167.80629548915729
20
-65.38916197462899
30
0
40
2.2499999999999947
0
CIRCLE
5
110
100
AcDbEntity
8
0
100
AcDbCircle
10
12.806295489157733
20
-65.389161974628507
30
0
40
2.2499999999999947
0
CIRCLE
5
111
100
AcDbEntity
8
0
100
AcDbCircle
10
167.80629548915698
20
-205.38916197462885
30
0
40
2.2499999999999969
0
CIRCLE
5
112
100
AcDbEntity
8
0
100
AcDbCircle
10
12.806295489157405
20
-205.38916197462837
30
0
40
2.2499999999999969
0
CIRCLE
5
113
100
AcDbEntity
8
0
100
AcDbCircle
10
342.80629548915647
20
-205.38916197462942
30
0
40
2.2499999999999991
0
CIRCLE
5
114
100
AcDbEntity
8
0
100
AcDbCircle
10
18.86850611514361
20
-232.1899135443312
30
0
40
2.2499999999999547
0
CIRCLE
5
115
100
AcDbEntity
8
0
100
AcDbCircle
10
18.868506115148158
20
-282.18991354433018
30
0
40
2.2499999999999503
0
CIRCLE
5
116
100
AcDbEntity
8
0
100
AcDbCircle
10
159.86850611514771
20
-307.18991354431705
30
0
40
2.2499999999999591
0
CIRCLE
5
117
100
AcDbEntity
8
0
100
AcDbCircle
10
159.8685061151499
20
-331.18991354431665
30
0
40
2.2499999999999503
0
CIRCLE
5
118
100
AcDbEntity
8
0
100
AcDbCircle
10
117.86850611514848
20
-307.1899135443208
30
0
40
2.2499999999999503
0
CIRCLE
5
119
100
AcDbEntity
8
0
100
AcDbCircle
10
117.86850611515064
20
-331.1899135443204
30
0
40
2.2499999999999503
0
LWPOLYLINE
5
120
100
AcDbEntity
8
0
100
AcDbPolyline
90
14
70
1
43
0.0
10
43.78761314313288
20
-274.18991354432814
10
57.65149818011772
20
-274.18991354432683
10
91.020598772757197
20
-302.1899135443233
10
182.14272378179916
20
-302.18991354431523
10
192.86850611514723
20
-311.18991354431409
10
192.86850611514961
20
-336.18991354431358
10
84.868506115151646
20
-336.18991354432325
10
46.732391152134582
20
-304.18991354432728
10
32.868506115149856
20
-304.18991354432853
10
4.8685061151483113
20
-280.69512387136768
10
4.8685061151430498
20
-222.68991354433265
10
18.86850611514275
20
-222.68991354433143
10
32.868506115143518
20
-234.43730838081188
10
32.868506115146296
20
-265.02769486436102
0
CIRCLE
5
121
100
AcDbEntity
8
0
100
AcDbCircle
10
217.91497314142811
20
-326.07473959565363
30
0
40
2.24999999999998
0
CIRCLE
5
122
100
AcDbEntity
8
0
100
AcDbCircle
10
217.91497314142356
20
-276.07473959565402
30
0
40
2.2499999999999756
0
CIRCLE
5
123
100
AcDbEntity
8
0
100
AcDbCircle
10
76.914973141422649
20
-251.07473959566698
30
0
40
2.2499999999999845
0
CIRCLE
5
124
100
AcDbEntity
8
0
100
AcDbCircle
10
76.914973141420475
20
-227.07473959566713
30
0
40
2.2499999999999756
0
CIRCLE
5
125
100
AcDbEntity
8
0
100
AcDbCircle
10
118.91497314142227
20
-251.0747395956632
30
0
40
2.2499999999999756
0
CIRCLE
5
126
100
AcDbEntity
8
0
100
AcDbCircle
10
118.91497314142009
20
-227.07473959566335
30
0
40
2.2499999999999756
0
LWPOLYLINE
5
127
100
AcDbEntity
8
0
100
AcDbPolyline
90
14
70
1
43
0.0
10
192.99586611343855
20
-284.07473959565618
10
179.13198107645357
20
-284.07473959565749
10
145.7628804838138
20
-256.07473959566073
10
54.640755474770927
20
-256.07473959566886
10
43.91497314142277
20
-247.07473959566988
10
43.914973141420376
20
-222.07473959567011
10
151.91497314141941
20
-222.07473959566045
10
190.05108810443684
20
-254.07473959565675
10
203.91497314142171
20
-254.0747395956555
10
231.91497314142353
20
-277.56952926861658
10
231.91497314142879
20
-335.5747395956522
10
217.91497314142896
20
-335.57473959565351
10
203.91497314142805
20
-323.82734475917295
10
203.91497314142524
20
-293.23695827562341
0
LWPOLYLINE
5
128
100
AcDbEntity
8
0
100
AcDbPolyline
90
24
70
1
43
0.0
10
459.33811787770765
20
-305.5443817509323
42
-0.17632698070850161
10
458.37393646317787
20
-305.1934484156107
10
446.27874980406915
20
-295.04438175093225
10
306.27874980406966
20
-295.04438175093196
10
294.18356314496089
20
-305.19344841561042
42
-0.17632698070849018
10
293.21938173043117
20
-305.54438175093196
10
244.27874980406983
20
-305.54438175093185
10
244.27874980406983
20
-294.04438175093185
10
258.27874980406983
20
-294.0443817509319
10
258.27874980406989
20
-234.04438175093205
10
244.27874980406989
20
-234.04438175093202
10
244.27874980406986
20
-222.54438175093202
10
293.21938173043117
20
-222.54438175093208
42
-0.17632698070848216
10
294.183563144961
20
-222.89531508625362
10
306.27874980406972
20
-233.0443817509321
10
446.27874980406921
20
-233.04438175093239
10
458.37393646317787
20
-222.89531508625396
42
-0.17632698070851238
10
459.33811787770765
20
-222.54438175093242
10
489.27874980406904
20
-222.54438175093247
10
489.27874980406909
20
-234.04438175093247
10
475.27874980406915
20
-234.04438175093247
10
475.27874980406898
20
-294.0443817509323
10
489.27874980406898
20
-294.0443817509323
10
489.27874980406904
20
-305.5443817509323
0
CIRCLE
5
129
100
AcDbEntity
8
0
100
AcDbCircle
10
482.27874980406909
20
-228.04438175093247
30
0
40
2.249999999999996
0
CIRCLE
5
130
100
AcDbEntity
8
0
100
AcDbCircle
10
251.27874980406986
20
-228.04438175093202
30
0
40
2.2500000000000004
0
CIRCLE
5
131
100
AcDbEntity
8
0
100
AcDbCircle
10
459.27874980406921
20
-251.04438175093236
30
0
40
2.2499999999999916
0
CIRCLE
5
132
100
AcDbEntity
8
0
100
AcDbCircle
10
482.27874980406909
20
-300.0443817509323
30
0
40
2.249999999999996
0
CIRCLE
5
133
100
AcDbEntity
8
0
100
AcDbCircle
10
251.27874980406978
20
-300.0443817509319
30
0
40
2.2500000000000004
0
CIRCLE
5
134
100
AcDbEntity
8
0
100
AcDbCircle
10
459.27874980406909
20
-277.04438175093236
30
0
40
2.2499999999999916
0
CIRCLE
5
135
100
AcDbEntity
8
0
100
AcDbCircle
10
433.27874980406921
20
-277.04438175093225
30
0
40
2.2499999999999916
0
CIRCLE
5
136
100
AcDbEntity
8
0
100
AcDbCircle
10
433.27874980406926
20
-251.04438175093233
30
0
40
2.2499999999999916
0
CIRCLE
5
137
100
AcDbEntity
8
0
100
AcDbCircle
10
382.27874980406943
20
-251.04438175093222
30
0
40
2.249999999999996
0
CIRCLE
5
138
100
AcDbEntity
8
0
100
AcDbCircle
10
370.27874980406949
20
-251.04438175093222
30
0
40
2.249999999999996
0
CIRCLE
5
139
100
AcDbEntity
8
0
100
AcDbCircle
10
319.27874980406966
20
-251.0443817509321
30
0
40
2.2499999999999916
0
CIRCLE
5
140
100
AcDbEntity
8
0
100
AcDbCircle
10
319.27874980406961
20
-277.04438175093208
30
0
40
2.2499999999999916
0
CIRCLE
5
141
100
AcDbEntity
8
0
100
AcDbCircle
10
293.27874980406972
20
-277.04438175093202
30
0
40
2.2499999999999916
0
CIRCLE
5
142
100
AcDbEntity
8
0
100
AcDbCircle
10
293.27874980406978
20
-251.04438175093205
30
0
40
2.2499999999999916
0
LWPOLYLINE
5
143
100
AcDbEntity
8
0
100
AcDbPolyline
90
8
70
1
43
0.0
10
399.43920341525609
20
-332.71713338964139
42
-0.41421356237306733
10
397.93920341525615
20
-334.21713338964139
10
240.93920341525666
20
-334.21713338964054
42
-0.41421356237309503
10
239.43920341525669
20
-332.71713338964054
10
239.43920341525671
20
-315.71713338964059
42
-0.41421356237312279
10
240.93920341525674
20
-314.21713338964059
10
397.9392034152562
20
-314.21713338964145
42
-0.41421356237309503
10
399.4392034152562
20
-315.71713338964145
0
CIRCLE
5
144
100
AcDbEntity
8
0
100
AcDbCircle
10
249.43920341525669
20
-324.21713338964059
30
0
40
3.2499999999999933
0
CIRCLE
5
145
100
AcDbEntity
8
0
100
AcDbCircle
10
269.4392034152566
20
-324.21713338964076
30
0
40
3.2499999999999933
0
CIRCLE
5
146
100
AcDbEntity
8
0
100
AcDbCircle
10
369.43920341525626
20
-324.21713338964128
30
0
40
3.2499999999999933
0
CIRCLE
5
147
100
AcDbEntity
8
0
100
AcDbCircle
10
389.4392034152562
20
-324.21713338964139
30
0
40
3.2499999999999933
0
LWPOLYLINE
5
148
100
AcDbEntity
8
0
100
AcDbPolyline
90
8
70
1
43
0.0
10
568.18200898112286
20
-332.8857081421437
42
-0.41421356237309503
10
566.68200898112286
20
-334.38570814214364
10
409.68200898112633
20
-334.38570814214404
42
-0.41421356237308116
10
408.18200898112639
20
-332.8857081421441
10
408.18200898112627
20
-315.88570814214444
42
-0.41421356237309503
10
409.68200898112627
20
-314.38570814214444
10
566.68200898112286
20
-314.3857081421441
42
-0.41421356237306034
10
568.18200898112275
20
-315.88570814214404
0
CIRCLE
5
149
100
AcDbEntity
8
0
100
AcDbCircle
10
418.18200898112605
20
-324.38570814214421
30
0
40
3.2499999999999312
0
CIRCLE
5
150
100
AcDbEntity
8
0
100
AcDbCircle
10
438.18200898112565
20
-324.38570814214415
30
0
40
3.2499999999999312
0
CIRCLE
5
151
100
AcDbEntity
8
0
100
AcDbCircle
10
538.18200898112343
20
-324.38570814214393
30
0
40
3.2499999999999312
0
CIRCLE
5
152
100
AcDbEntity
8
0
100
AcDbCircle
10
558.18200898112298
20
-324.38570814214387
30
0
40
3.2499999999999312
0
LWPOLYLINE
5
153
100
AcDbEntity
8
0
100
AcDbPolyline
90
26
70
1
43
0.0
10
569.34240970447581
20
-299.05564389081547
42
-0.17632698070842859
10
568.37822828994592
20
-298.70471055549405
10
565.22119357529368
20
-296.05564389081576
10
546.7211935752938
20
-296.05564389081712
42
-0.41421356237312279
10
545.22119357529368
20
-294.55564389081718
10
545.22119357529243
20
-277.55564389081724
42
-0.41421356237306034
10
546.72119357529232
20
-276.05564389081718
10
703.72119357529141
20
-276.0556438908061
42
-0.41421356237307422
10
705.22119357529152
20
-277.55564389080575
10
705.22119357529277
20
-294.5556438908057
42
-0.41421356237308815
10
703.721193575293
20
-296.05564389080581
10
685.221193575293
20
-296.05564389080718
10
682.0641588606411
20
-298.7047105554858
42
-0.17632698070852876
10
681.09997744611132
20
-299.05564389080746
10
659.22119357529323
20
-299.05564389080899
10
650.22119357529391
20
-306.60754057140514
10
650.22119357529448
20
-313.69225989313048
42
-0.221694662642757
10
649.68537498982425
20
-314.841326557809
10
643.88941963842535
20
-319.70471055548848
42
-0.17632698070852085
10
642.92523822389569
20
-320.05564389081007
10
607.51714892669452
20
-320.05564389081258
42
-0.1763269807084232
10
606.55296751216474
20
-319.7047105554912
10
600.75701216076504
20
-314.84132655781247
42
-0.22169466264291784
10
600.22119357529471
20
-313.69225989313406
10
600.22119357529414
20
-306.60754057140872
10
591.22119357529368
20
-299.05564389081388
0
CIRCLE
5
154
100
AcDbEntity
8
0
100
AcDbCircle
10
643.47119357529391
20
-306.05564389081007
30
0
40
2.2499999999999911
0
CIRCLE
5
155
100
AcDbEntity
8
0
100
AcDbCircle
10
625.22119357529402
20
-306.05564389081144
30
0
40
4.9999999999999813
0
CIRCLE
5
156
100
AcDbEntity
8
0
100
AcDbCircle
10
575.22119357529289
20
-286.05564389081508
30
0
40
3.2499999999999876
0
CIRCLE
5
157
100
AcDbEntity
8
0
100
AcDbCircle
10
606.97119357529414
20
-306.05564389081275
30
0
40
2.2499999999999911
0
CIRCLE
5
158
100
AcDbEntity
8
0
100
AcDbCircle
10
555.221193575293
20
-286.05564389081655
30
0
40
3.2499999999999876
0
CIRCLE
5
159
100
AcDbEntity
8
0
100
AcDbCircle
10
675.22119357529232
20
-286.05564389080791
30
0
40
3.2499999999999876
0
CIRCLE
5
160
100
AcDbEntity
8
0
100
AcDbCircle
10
695.2211935752922
20
-286.05564389080649
30
0
40
3.2499999999999876
0
LWPOLYLINE
5
161
100
AcDbEntity
8
0
100
AcDbPolyline
90
26
70
1
43
0.0
10
652.24572620964091
20
-243.50859156020488
42
-0.17632698070848069
10
653.2099076241708
20
-243.85952489552648
10
656.3669423388227
20
-246.50859156020493
10
674.86694233882247
20
-246.50859156020474
42
-0.41421356237306733
10
676.36694233882258
20
-248.00859156020493
10
676.36694233882235
20
-265.00859156020471
42
-0.41421356237306034
10
674.86694233882247
20
-266.50859156020471
10
517.86694233882474
20
-266.50859156020442
42
-0.41421356237306034
10
516.36694233882486
20
-265.00859156020442
10
516.36694233882486
20
-248.00859156020465
42
-0.41421356237307422
10
517.86694233882474
20
-246.50859156020465
10
536.36694233882451
20
-246.50859156020471
10
539.52397705347653
20
-243.85952489552622
42
-0.17632698070850883
10
540.48815846800642
20
-243.50859156020474
10
562.36694233882417
20
-243.50859156020476
10
571.36694233882406
20
-235.95669487960944
10
571.36694233882406
20
-228.87197555788416
42
-0.22169466264296481
10
571.90276092429417
20
-227.7229088932057
10
577.69871627569341
20
-222.85952489552659
42
-0.17632698070845423
10
578.66289769022319
20
-222.5085915602051
10
614.07098698742413
20
-222.50859156020513
42
-0.17632698070848604
10
615.03516840195391
20
-222.85952489552668
10
620.83112375335315
20
-227.72290889320576
42
-0.22169466264296481
10
621.36694233882326
20
-228.87197555788421
10
621.36694233882326
20
-235.9566948796095
10
630.36694233882326
20
-243.50859156020491
0
CIRCLE
5
162
100
AcDbEntity
8
0
100
AcDbCircle
10
578.11694233882395
20
-236.50859156020491
30
0
40
2.2499999999999698
0
CIRCLE
5
163
100
AcDbEntity
8
0
100
AcDbCircle
10
596.36694233882372
20
-236.50859156020493
30
0
40
4.9999999999999352
0
CIRCLE
5
164
100
AcDbEntity
8
0
100
AcDbCircle
10
646.36694233882292
20
-256.50859156020476
30
0
40
3.2499999999999574
0
CIRCLE
5
165
100
AcDbEntity
8
0
100
AcDbCircle
10
614.61694233882338
20
-236.50859156020499
30
0
40
2.2499999999999698
0
CIRCLE
5
166
100
AcDbEntity
8
0
100
AcDbCircle
10
666.3669423388227
20
-256.50859156020482
30
0
40
3.2499999999999574
0
CIRCLE
5
167
100
AcDbEntity
8
0
100
AcDbCircle
10
546.3669423388244
20
-256.50859156020459
30
0
40
3.2499999999999574
0
CIRCLE
5
168
100
AcDbEntity
8
0
100
AcDbCircle
10
526.36694233882463
20
-256.50859156020454
30
0
40
3.2499999999999574
0
LWPOLYLINE
5
169
100
AcDbEntity
8
0
100
AcDbPolyline
90
13
70
1
43
0.0
10
368.30821861231345
20
-214.89583984548943
42
-0.41421356237310197
10
366.80821861231351
20
-213.39583984548949
10
366.80821861231317
20
-56.395839845489775
42
-0.41421356237309681
10
368.30821861231311
20
-54.895839845489789
10
540.30821861231198
20
-54.895839845489419
42
-0.41421356237307422
10
541.80821861231209
20
-56.395839845489434
10
541.80821861231243
20
-169.89583984548921
10
686.46842344605693
20
-169.89583984548892
42
-0.17632698070855096
10
687.43260486058671
20
-170.24677318081046
10
716.2724000268413
20
-194.44623466804276
42
-0.22169466264288362
10
716.80821861231141
20
-195.59530133272131
10
716.80821861231152
20
-213.39583984548878
42
-0.41421356237303952
10
715.30821861231152
20
-214.89583984548881
0
LWPOLYLINE
5
170
100
AcDbEntity
8
0
100
AcDbPolyline
90
6
70
1
43
0.0
10
521.8082186123122
20
-74.895839845489448
10
386.80821861231311
20
-74.895839845489718
10
386.80821861231328
20
-149.89583984548958
10
410.64329046419732
20
-169.89583984548946
10
497.97314676042851
20
-169.89583984548932
10
521.80821861231243
20
-149.89583984548929
0
CIRCLE
5
171
100
AcDbEntity
8
0
100
AcDbCircle
10
531.8082186123122
20
-64.895839845489434
30
0
40
2.2499999999999925
0
CIRCLE
5
172
100
AcDbEntity
8
0
100
AcDbCircle
10
376.80821861231311
20
-64.895839845489746
30
0
40
2.2499999999999925
0
CIRCLE
5
173
100
AcDbEntity
8
0
100
AcDbCircle
10
531.80821861231254
20
-204.89583984548918
30
0
40
2.2499999999999947
0
CIRCLE
5
174
100
AcDbEntity
8
0
100
AcDbCircle
10
376.80821861231345
20
-204.89583984548949
30
0
40
2.2499999999999947
0
CIRCLE
5
175
100
AcDbEntity
8
0
100
AcDbCircle
10
706.80821861231152
20
-204.89583984548884
30
0
40
2.2499999999999969
0
LWPOLYLINE
5
176
100
AcDbEntity
8
0
100
AcDbPolyline
90
13
70
1
43
0.0
10
722.04573910804572
20
-4.5676960795714363
42
-0.41421356237302198
10
723.54573910804606
20
-6.067696079571121
10
723.54573910806835
20
-163.06769607956932
42
-0.4142135623730257
10
722.04573910806857
20
-164.56769607956949
10
550.04573910807028
20
-164.56769607959404
42
-0.41421356237306034
10
548.54573910807005
20
-163.06769607959438
10
548.54573910805379
20
-49.567696079595756
10
403.88553427430986
20
-49.567696079616525
42
-0.17632698070847655
10
402.92135285977997
20
-49.216762744295096
10
374.0815576935222
20
-25.017301257067011
42
-0.22169466264296991
10
373.54573910805186
20
-23.868234592388653
10
373.54573910804936
20
-6.067696079621375
42
-0.41421356237309009
10
375.04573910804913
20
-4.567696079621177
0
LWPOLYLINE
5
177
100
AcDbEntity
8
0
100
AcDbPolyline
90
6
70
1
43
0.0
10
568.54573910806721
20
-144.56769607959174
10
703.54573910806596
20
-144.56769607957239
10
703.54573910805516
20
-69.567696079573295
10
679.71066725616834
20
-49.567696079576955
10
592.38081095993743
20
-49.567696079589467
10
568.54573910805652
20
-69.56769607959265
0
CIRCLE
5
178
100
AcDbEntity
8
0
100
AcDbCircle
10
558.54573910806869
20
-154.56769607959305
30
0
40
2.2499999999999751
0
CIRCLE
5
179
100
AcDbEntity
8
0
100
AcDbCircle
10
713.54573910806721
20
-154.56769607957082
30
0
40
2.2499999999999751
0
CIRCLE
5
180
100
AcDbEntity
8
0
100
AcDbCircle
10
558.54573910804879
20
-14.567696079594743
30
0
40
2.2499999999999778
0
CIRCLE
5
181
100
AcDbEntity
8
0
100
AcDbCircle
10
713.54573910804731
20
-14.567696079572517
30
0
40
2.2499999999999778
0
CIRCLE
5
182
100
AcDbEntity
8
0
100
AcDbCircle
10
383.54573910805044
20
-14.567696079619839
30
0
40
2.2499999999999796
0
LWPOLYLINE
5
183
100
AcDbEntity
8
0
100
AcDbPolyline
90
22
70
1
43
0.0
10
890.4389467025519
20
-308.09045019395865
42
-0.41421356237303952
10
888.93894670255179
20
-309.59045019395865
10
850.4389467025519
20
-309.59045019395853
10
850.43894670255213
20
-328.09045019395847
42
-0.41421356237315055
10
848.93894670255179
20
-329.59045019395842
10
771.93894670255213
20
-329.59045019395808
42
-0.41421356237303952
10
770.43894670255224
20
-328.09045019395819
10
770.43894670255224
20
-309.59045019395825
10
731.93894670255247
20
-309.59045019395813
42
-0.41421356237303952
10
730.43894670255236
20
-308.09045019395808
10
730.4389467025527
20
-171.09045019395842
42
-0.41421356237306034
10
731.93894670255293
20
-169.59045019395842
10
748.93894670255281
20
-169.59045019395862
42
-0.41421356237308815
10
750.4389467025527
20
-171.0904501939585
10
750.43894670255258
20
-252.80845757041266
10
770.43894670255224
20
-269.5904501939583
10
850.43894670255202
20
-269.59045019395859
10
870.4389467025519
20
-252.80845757041311
10
870.43894670255213
20
-171.0904501939589
42
-0.41421356237303952
10
871.93894670255213
20
-169.59045019395887
10
888.93894670255213
20
-169.59045019395904
42
-0.41421356237304652
10
890.43894670255202
20
-171.09045019395899
0
CIRCLE
5
184
100
AcDbEntity
8
0
100
AcDbCircle
10
833.93894670255213
20
-276.09045019395853
30
0
40
2.2499999999999911
0
CIRCLE
5
185
100
AcDbEntity
8
0
100
AcDbCircle
10
786.93894670255236
20
-276.09045019395836
30
0
40
2.2499999999999956
0
CIRCLE
5
186
100
AcDbEntity
8
0
100
AcDbCircle
10
880.4389467025519
20
-279.59045019395865
30
0
40
2.2499999999999956
0
CIRCLE
5
187
100
AcDbEntity
8
0
100
AcDbCircle
10
880.43894670255213
20
-179.5904501939589
30
0
40
2.2499999999999911
0
CIRCLE
5
188
100
AcDbEntity
8
0
100
AcDbCircle
10
833.9389467025519
20
-323.09045019395842
30
0
40
2.2499999999999911
0
CIRCLE
5
189
100
AcDbEntity
8
0
100
AcDbCircle
10
786.93894670255213
20
-323.09045019395825
30
0
40
2.2499999999999956
0
CIRCLE
5
190
100
AcDbEntity
8
0
100
AcDbCircle
10
740.4389467025527
20
-179.59045019395842
30
0
40
2.2499999999999911
0
CIRCLE
5
191
100
AcDbEntity
8
0
100
AcDbCircle
10
740.43894670255236
20
-279.59045019395819
30
0
40
2.2499999999999956
0
ARC
5
192
100
AcDbEntity
8
0
100
AcDbCircle
10
825.9389467025519
20
-315.09045019395836
30
0
40
2.0000000000000715
100
AcDbArc
50
-135
51
44.999999999998849
0
LINE
5
193
100
AcDbEntity
8
0
100
AcDbLine
10
824.5247331401788
20
-316.50466375633147
30
0
11
822.45622598349314
21
-314.43615659964564
31
0
0
ARC
5
194
100
AcDbEntity
8
0
100
AcDbCircle
10
810.43894670255224
20
-299.59045019395847
30
0
40
19.099999999999874
100
AcDbArc
50
231.01057632025598
51
308.98942367974331
0
LINE
5
195
100
AcDbEntity
8
0
100
AcDbLine
10
798.42166742161112
20
-314.43615659964553
30
0
11
796.35316026492535
21
-316.50466375633141
31
0
0
ARC
5
196
100
AcDbEntity
8
0
100
AcDbCircle
10
794.93894670255202
20
-315.09045019395836
30
0
40
1.9999999999998954
100
AcDbArc
50
134.99999999999426
51
315.00000000000574
0
LINE
5
197
100
AcDbEntity
8
0
100
AcDbLine
10
793.52473314017914
20
-313.6762366315852
30
0
11
795.59324029686491
21
-311.60772947489937
31
0
0
ARC
5
198
100
AcDbEntity
8
0
100
AcDbCircle
10
810.43894670255224
20
-299.59045019395847
30
0
40
19.100000000000072
100
AcDbArc
50
141.01057632025652
51
218.98942367974297
0
LINE
5
199
100
AcDbEntity
8
0
100
AcDbLine
10
795.59324029686491
20
-287.57317091301735
30
0
11
793.52473314017914
21
-285.50466375633147
31
0
0
ARC
5
200
100
AcDbEntity
8
0
100
AcDbCircle
10
794.93894670255236
20
-284.09045019395842
30
0
40
2.0000000000000715
100
AcDbArc
50
45.000000000001151
51
224.99999999999653
0
LINE
5
201
100
AcDbEntity
8
0
100
AcDbLine
10
796.35316026492546
20
-282.67623663158525
30
0
11
798.42166742161112
21
-284.74474378827108
31
0
0
ARC
5
202
100
AcDbEntity
8
0
100
AcDbCircle
10
810.43894670255224
20
-299.59045019395847
30
0
40
19.099999999999888
100
AcDbArc
50
51.010576320256924
51
128.98942367974342
0
LINE
5
203
100
AcDbEntity
8
0
100
AcDbLine
10
822.45622598349314
20
-284.74474378827119
30
0
11
824.52473314017891
21
-282.67623663158537
31
0
0
ARC
5
204
100
AcDbEntity
8
0
100
AcDbCircle
10
825.93894670255213
20
-284.09045019395847
30
0
40
1.9999999999999709
100
AcDbArc
50
-45.000000006934222
51
135.0000000000023
0
LINE
5
205
100
AcDbEntity
8
0
100
AcDbLine
10
827.35316026475402
20
-285.50466375650268
30
0
11
825.28465310823935
21
-287.57317091301741
31
0
0
ARC
5
206
100
AcDbEntity
8
0
100
AcDbCircle
10
810.43894670255224
20
-299.59045019395847
30
0
40
19.099999999999739
100
AcDbArc
50
-38.989423679743517
51
38.989423679743794
0
LINE
5
207
100
AcDbEntity
8
0
100
AcDbLine
10
825.28465310823935
20
-311.60772947489943
30
0
11
827.35316026492512
21
-313.6762366315852
31
0
0
CIRCLE
5
208
100
AcDbEntity
8
0
100
AcDbCircle
10
796.05752108726949
20
-130.73462994249823
30
0
40
2.2499999999999893
0
CIRCLE
5
209
100
AcDbEntity
8
0
100
AcDbCircle
10
776.05752108726938
20
-245.73462994249783
30
0
40
2.2500000000000071
0
CIRCLE
5
210
100
AcDbEntity
8
0
100
AcDbCircle
10
796.05752108726938
20
-205.73462994249803
30
0
40
2.2499999999999893
0
CIRCLE
5
211
100
AcDbEntity
8
0
100
AcDbCircle
10
796.05752108726961
20
-90.734629942498358
30
0
40
2.2499999999999916
0
CIRCLE
5
212
100
AcDbEntity
8
0
100
AcDbCircle
10
776.05752108726972
20
-90.734629942498302
30
0
40
2.2499999999999916
0
CIRCLE
5
213
100
AcDbEntity
8
0
100
AcDbCircle
10
796.05752108726938
20
-245.73462994249786
30
0
40
2.2500000000000071
0
LWPOLYLINE
5
214
100
AcDbEntity
8
0
100
AcDbPolyline
90
8
70
1
43
0.0
10
767.55752108726938
20
-255.73462994249783
42
-0.41421356237303952
10
766.05752108726938
20
-254.23462994249775
10
766.05752108726972
20
-82.234629942498302
42
-0.41421356237306034
10
767.55752108726961
20
-80.734629942498302
10
804.55752108726961
20
-80.734629942498543
42
-0.4142135623730257
10
806.05752108726949
20
-82.234629942498401
10
806.05752108726938
20
-254.23462994249789
42
-0.41421356237303258
10
804.55752108726927
20
-255.73462994249786
0
CIRCLE
5
215
100
AcDbEntity
8
0
100
AcDbCircle
10
844.89028693790578
20
-128.61138141069912
30
0
40
2.2499999999999893
0
CIRCLE
5
216
100
AcDbEntity
8
0
100
AcDbCircle
10
824.89028693790556
20
-243.61138141069875
30
0
40
2.2500000000000071
0
CIRCLE
5
217
100
AcDbEntity
8
0
100
AcDbCircle
10
844.89028693790556
20
-203.61138141069887
30
0
40
2.2499999999999893
0
CIRCLE
5
218
100
AcDbEntity
8
0
100
AcDbCircle
10
844.89028693790578
20
-88.611381410699238
30
0
40
2.2499999999999916
0
CIRCLE
5
219
100
AcDbEntity
8
0
100
AcDbCircle
10
824.8902869379059
20
-88.611381410699209
30
0
40
2.2499999999999916
0
CIRCLE
5
220
100
AcDbEntity
8
0
100
AcDbCircle
10
844.89028693790556
20
-243.61138141069881
30
0
40
2.2500000000000071
0
LWPOLYLINE
5
221
100
AcDbEntity
8
0
100
AcDbPolyline
90
8
70
1
43
0.0
10
816.39028693790567
20
-253.61138141069861
42
-0.41421356237312279
10
814.89028693790556
20
-252.1113814106987
10
814.8902869379059
20
-80.111381410699209
42
-0.41421356237306034
10
816.39028693790578
20
-78.611381410699224
10
853.39028693790567
20
-78.611381410699366
42
-0.41421356237303952
10
854.89028693790556
20
-80.111381410699281
10
854.89028693790578
20
-252.11138141069878
42
-0.41421356237312279
10
853.39028693790556
20
-253.61138141069875
0
LWPOLYLINE
5
222
100
AcDbEntity
8
0
100
AcDbPolyline
90
22
70
1
43
0.0
10
730.19781670633233
20
-26.08210409260122
42
-0.41421356237312978
10
731.69781670633245
20
-24.582104092601025
10
770.19781670633211
20
-24.582104092595792
10
770.19781670632926
20
-6.0821040925959213
42
-0.4142135623731022
10
771.69781670632915
20
-4.5821040925957215
10
848.69781670632869
20
-4.5821040925853946
42
-0.41421356237301532
10
850.19781670632881
20
-6.0821040925850429
10
850.19781670633142
20
-24.58210409258492
10
888.6978167063312
20
-24.582104092579907
42
-0.41421356237305951
10
890.1978167063312
20
-26.082104092579499
10
890.19781670635007
20
-163.08210409257862
42
-0.41421356237313667
10
888.69781670635018
20
-164.58210409257876
10
871.6978167063503
20
-164.58210409258089
42
-0.41421356237306034
10
870.1978167063503
20
-163.08210409258129
10
870.19781670633904
20
-81.36409671612742
10
850.19781670633688
20
-64.582104092584657
10
770.19781670633745
20
-64.582104092595515
10
750.19781670633984
20
-81.364096716143763
10
750.19781670635109
20
-163.0821040925976
42
-0.41421356237306733
10
748.69781670635132
20
-164.5821040925978
10
731.69781670635143
20
-164.58210409260008
42
-0.41421356237306733
10
730.1978167063512
20
-163.0821040926003
0
CIRCLE
5
223
100
AcDbEntity
8
0
100
AcDbCircle
10
786.69781670633643
20
-58.082104092593326
30
0
40
2.2499999999999813
0
CIRCLE
5
224
100
AcDbEntity
8
0
100
AcDbCircle
10
833.6978167063362
20
-58.082104092586953
30
0
40
2.2499999999999862
0
CIRCLE
5
225
100
AcDbEntity
8
0
100
AcDbCircle
10
740.19781670633631
20
-54.582104092599678
30
0
40
2.2499999999999862
0
CIRCLE
5
226
100
AcDbEntity
8
0
100
AcDbCircle
10
740.19781670634995
20
-154.58210409259902
30
0
40
2.2499999999999813
0
CIRCLE
5
227
100
AcDbEntity
8
0
100
AcDbCircle
10
786.69781670633006
20
-11.082104092593639
30
0
40
2.2499999999999813
0
CIRCLE
5
228
100
AcDbEntity
8
0
100
AcDbCircle
10
833.69781670632972
20
-11.082104092587258
30
0
40
2.2499999999999862
0
CIRCLE
5
229
100
AcDbEntity
8
0
100
AcDbCircle
10
880.19781670634893
20
-154.58210409258001
30
0
40
2.2499999999999813
0
CIRCLE
5
230
100
AcDbEntity
8
0
100
AcDbCircle
10
880.19781670633529
20
-54.58210409258065
30
0
40
2.2499999999999862
0
ARC
5
231
100
AcDbEntity
8
0
100
AcDbCircle
10
794.69781670633108
20
-19.082104092592481
30
0
40
1.9999999999999756
100
AcDbArc
50
45.000000000007979
51
225.0000000000081
0
LINE
5
232
100
AcDbEntity
8
0
100
AcDbLine
10
796.11203026870396
20
-17.667890530219207
30
0
11
798.18053742539007
21
-19.736397686904748
31
0
0
ARC
5
233
100
AcDbEntity
8
0
100
AcDbCircle
10
810.19781670633301
20
-34.582104092590235
30
0
40
19.099999999999749
100
AcDbArc
50
51.010576320264185
51
128.98942367975121
0
LINE
5
234
100
AcDbEntity
8
0
100
AcDbLine
10
822.21509598727198
20
-19.736397686901498
30
0
11
824.28360314395763
21
-17.667890530215388
31
0
0
ARC
5
235
100
AcDbEntity
8
0
100
AcDbCircle
10
825.69781670633074
20
-19.082104092588288
30
0
40
1.9999999999999929
100
AcDbArc
50
-44.999999999990692
51
135.00000000000418
0
LINE
5
236
100
AcDbEntity
8
0
100
AcDbLine
10
827.11203026870407
20
-20.496317654961164
30
0
11
825.04352311201853
21
-22.564824811647281
31
0
0
ARC
5
237
100
AcDbEntity
8
0
100
AcDbCircle
10
810.19781670633301
20
-34.582104092590235
30
0
40
19.099999999999852
100
AcDbArc
50
-38.989423679735786
51
38.989423679751198
0
LINE
5
238
100
AcDbEntity
8
0
100
AcDbLine
10
825.04352311202183
20
-46.59938337352925
30
0
11
827.11203026870794
21
-48.667890530214819
31
0
0
ARC
5
239
100
AcDbEntity
8
0
100
AcDbCircle
10
825.69781670633506
20
-50.082104092588096
30
0
40
1.9999999999999709
100
AcDbArc
50
-134.99999999999196
51
45.000000000008065
0
LINE
5
240
100
AcDbEntity
8
0
100
AcDbLine
10
824.28360314396218
20
-51.496317654961373
30
0
11
822.21509598727607
21
-49.427810498275839
31
0
0
ARC
5
241
100
AcDbEntity
8
0
100
AcDbCircle
10
810.19781670633301
20
-34.582104092590235
30
0
40
19.099999999999845
100
AcDbArc
50
231.01057632026462
51
308.98942367975127
0
LINE
5
242
100
AcDbEntity
8
0
100
AcDbLine
10
798.18053742539416
20
-49.427810498279086
30
0
11
796.11203026870851
21
-51.496317654965196
31
0
0
ARC
5
243
100
AcDbEntity
8
0
100
AcDbCircle
10
794.69781670633552
20
-50.082104092592267
30
0
40
2.000000000000103
100
AcDbArc
50
134.99999999307946
51
315.00000000000131
0
LINE
5
244
100
AcDbEntity
8
0
100
AcDbLine
10
793.28360314413317
20
-48.667890530048282
30
0
11
795.35211030064761
21
-46.599383373533307
31
0
0
ARC
5
245
100
AcDbEntity
8
0
100
AcDbCircle
10
810.19781670633301
20
-34.582104092590235
30
0
40
19.099999999999781
100
AcDbArc
50
141.01057632026428
51
218.9894236797517
0
LINE
5
246
100
AcDbEntity
8
0
100
AcDbLine
10
795.35211030064431
20
-22.564824811651334
30
0
11
793.2836031439582
21
-20.496317654965761
31
0
0
LWPOLYLINE
5
247
100
AcDbEntity
8
0
100
AcDbPolyline
90
24
70
1
43
0.0
10
919.69842943237745
20
-162.8223322290826
42
-0.41421356237312279
10
918.19842943237734
20
-164.32233222908263
10
901.19842943237722
20
-164.32233222908326
42
-0.4142135623730257
10
899.69842943237722
20
-162.82233222908329
10
899.69842943237165
20
-5.8223322290832886
42
-0.41421356237306622
10
901.19842943237154
20
-4.3223322290832353
10
923.69842943237177
20
-4.3223322290824502
10
923.698429432372
20
-14.32233222908245
42
0.99999999999999989
10
935.69842943237188
20
-14.322332229082043
10
935.69842943237154
20
-4.3223322290820363
10
1023.6984294323714
20
-4.3223322290789934
10
1023.6984294323718
20
-14.322332229078995
42
0.99999999999999989
10
1035.6984294323715
20
-14.322332229078585
10
1035.6984294323711
20
-4.3223322290785813
10
1058.1984294323713
20
-4.3223322290777801
42
-0.41421356237308055
10
1059.6984294323713
20
-5.8223322290777624
10
1059.698429432377
20
-162.82233222907774
42
-0.41421356237303952
10
1058.198429432377
20
-164.32233222907774
10
1041.198429432377
20
-164.32233222907843
42
-0.41421356237303258
10
1039.698429432377
20
-162.82233222907843
10
1039.6984294323736
20
-69.322332229078441
10
1015.8633575804889
20
-49.322332229079258
10
943.53350128425734
20
-49.322332229081809
10
919.69842943237393
20
-69.322332229082591
0
CIRCLE
5
248
100
AcDbEntity
8
0
100
AcDbCircle
10
909.69842943237336
20
-54.322332229082946
30
0
40
2.2500000000000009
0
CIRCLE
5
249
100
AcDbEntity
8
0
100
AcDbCircle
10
909.698429432377
20
-154.32233222908292
30
0
40
2.2499999999999964
0
CIRCLE
5
250
100
AcDbEntity
8
0
100
AcDbCircle
10
1049.6984294323765
20
-154.32233222907809
30
0
40
2.2499999999999964
0
CIRCLE
5
251
100
AcDbEntity
8
0
100
AcDbCircle
10
1049.6984294323731
20
-54.3223322290781
30
0
40
2.2500000000000009
0
CIRCLE
5
252
100
AcDbEntity
8
0
100
AcDbCircle
10
1049.6984294323718
20
-14.3223322290781
30
0
40
3.2499999999999996
0
CIRCLE
5
253
100
AcDbEntity
8
0
100
AcDbCircle
10
909.698429432372
20
-14.322332229082939
30
0
40
3.2499999999999996
0
LWPOLYLINE
5
254
100
AcDbEntity
8
0
100
AcDbPolyline
90
24
70
1
43
0.0
10
1038.7319111357456
20
-173.24780462813337
42
-0.41421356237308815
10
1040.2319111357456
20
-171.74780462813339
10
1057.2319111357453
20
-171.74780462813334
42
-0.41421356237308815
10
1058.7319111357456
20
-173.24780462813337
10
1058.731911135746
20
-330.24780462813305
42
-0.41421356237312279
10
1057.2319111357458
20
-331.74780462813305
10
1034.7319111357458
20
-331.74780462813311
10
1034.7319111357458
20
-321.74780462813311
42
0.99999999999999989
10
1022.731911135746
20
-321.74780462813311
10
1022.731911135746
20
-331.74780462813311
10
934.73191113574626
20
-331.74780462813317
10
934.73191113574626
20
-321.74780462813317
42
0.99999999999999989
10
922.73191113574637
20
-321.74780462813317
10
922.73191113574626
20
-331.74780462813317
10
900.23191113574637
20
-331.74780462813294
42
-0.41421356237312279
10
898.73191113574649
20
-330.24780462813317
10
898.73191113574603
20
-173.24780462813351
42
-0.41421356237311585
10
900.23191113574626
20
-171.74780462813348
10
917.23191113574615
20
-171.74780462813362
42
-0.41421356237303258
10
918.73191113574603
20
-173.24780462813351
10
918.73191113574626
20
-266.74780462813328
10
942.56698298763024
20
-286.74780462813322
10
1014.8968392838618
20
-286.74780462813311
10
1038.7319111357458
20
-266.74780462813317
0
CIRCLE
5
255
100
AcDbEntity
8
0
100
AcDbCircle
10
1048.7319111357458
20
-281.74780462813311
30
0
40
2.2500000000000027
0
CIRCLE
5
256
100
AcDbEntity
8
0
100
AcDbCircle
10
1048.7319111357456
20
-181.74780462813334
30
0
40
2.2499999999999982
0
CIRCLE
5
257
100
AcDbEntity
8
0
100
AcDbCircle
10
908.73191113574626
20
-181.74780462813348
30
0
40
2.2499999999999982
0
CIRCLE
5
258
100
AcDbEntity
8
0
100
AcDbCircle
10
908.73191113574637
20
-281.74780462813328
30
0
40
2.2500000000000027
0
CIRCLE
5
259
100
AcDbEntity
8
0
100
AcDbCircle
10
908.73191113574637
20
-321.74780462813317
30
0
40
3.2500000000000022
0
CIRCLE
5
260
100
AcDbEntity
8
0
100
AcDbCircle
10
1048.7319111357458
20
-321.74780462813305
30
0
40
3.2500000000000022
0
CIRCLE
5
261
100
AcDbEntity
8
0
100
AcDbCircle
10
960.70798377590916
20
-133.41665828151193
30
0
40
2.2499999999999925
0
CIRCLE
5
262
100
AcDbEntity
8
0
100
AcDbCircle
10
940.70798377590893
20
-248.41665828151167
30
0
40
2.2500000000000102
0
CIRCLE
5
263
100
AcDbEntity
8
0
100
AcDbCircle
10
960.70798377590893
20
-208.41665828151179
30
0
40
2.2499999999999925
0
CIRCLE
5
264
100
AcDbEntity
8
0
100
AcDbCircle
10
960.70798377590916
20
-93.416658281511999
30
0
40
2.2499999999999947
0
CIRCLE
5
265
100
AcDbEntity
8
0
100
AcDbCircle
10
940.70798377590927
20
-93.416658281511943
30
0
40
2.2499999999999947
0
CIRCLE
5
266
100
AcDbEntity
8
0
100
AcDbCircle
10
960.70798377590893
20
-248.41665828151173
30
0
40
2.2500000000000102
0
LWPOLYLINE
5
267
100
AcDbEntity
8
0
100
AcDbPolyline
90
8
70
1
43
0.0
10
932.20798377590893
20
-258.41665828151156
42
-0.41421356237312279
10
930.70798377590893
20
-256.91665828151156
10
930.70798377590927
20
-84.916658281511928
42
-0.41421356237303258
10
932.20798377590938
20
-83.416658281511928
10
969.20798377590904
20
-83.4166582815119
42
-0.41421356237310897
10
970.70798377590927
20
-84.916658281512014
10
970.70798377590893
20
-256.91665828151173
42
-0.41421356237308815
10
969.20798377590882
20
-258.41665828151173
0
CIRCLE
5
268
100
AcDbEntity
8
0
100
AcDbCircle
10
1015.6709561974498
20
-133.24416055351452
30
0
40
2.2499999999999964
0
CIRCLE
5
269
100
AcDbEntity
8
0
100
AcDbCircle
10
995.6709561974501
20
-248.24416055351458
30
0
40
2.2500000000000142
0
CIRCLE
5
270
100
AcDbEntity
8
0
100
AcDbCircle
10
1015.6709561974499
20
-208.24416055351452
30
0
40
2.2499999999999964
0
CIRCLE
5
271
100
AcDbEntity
8
0
100
AcDbCircle
10
1015.6709561974496
20
-93.244160553514519
30
0
40
2.2499999999999987
0
CIRCLE
5
272
100
AcDbEntity
8
0
100
AcDbCircle
10
995.67095619744964
20
-93.244160553514561
30
0
40
2.2499999999999987
0
CIRCLE
5
273
100
AcDbEntity
8
0
100
AcDbCircle
10
1015.6709561974501
20
-248.24416055351452
30
0
40
2.2500000000000142
0
LWPOLYLINE
5
274
100
AcDbEntity
8
0
100
AcDbPolyline
90
8
70
1
43
0.0
10
987.1709561974501
20
-258.24416055351469
42
-0.41421356237303952
10
985.6709561974501
20
-256.74416055351463
10
985.67095619744964
20
-84.744160553514575
42
-0.41421356237308815
10
987.17095619744964
20
-83.244160553514604
10
1024.1709561974496
20
-83.244160553514604
42
-0.41421356237311585
10
1025.6709561974496
20
-84.744160553514476
10
1025.6709561974501
20
-256.74416055351452
42
-0.41421356237303258
10
1024.1709561974499
20
-258.24416055351452
0
CIRCLE
5
275
100
AcDbEntity
8
0
100
AcDbCircle
10
1119.8036584615161
20
-249.90857218796864
30
0
40
2.2499999999999978
0
CIRCLE
5
276
100
AcDbEntity
8
0
100
AcDbCircle
10
1076.3036584615181
20
-296.40857218797021
30
0
40
3.2499999999999951
0
CIRCLE
5
277
100
AcDbEntity
8
0
100
AcDbCircle
10
1076.3036584615174
20
-276.40857218797026
30
0
40
3.2499999999999951
0
LWPOLYLINE
5
278
100
AcDbEntity
8
0
100
AcDbPolyline
90
16
70
1
43
0.0
10
1111.1493648672019
20
-214.391292907028
10
1113.2178720238878
20
-212.32278575034212
42
0.99999999999999989
10
1110.3894448991414
20
-209.49435862559608
10
1108.3209377424557
20
-211.56286578228196
42
0.35401470622887793
10
1084.2863791805735
20
-211.56286578228293
10
1082.2178720238876
20
-209.49435862559716
42
0.99999999999999989
10
1079.3894448991414
20
-212.32278575034348
10
1081.4579520558275
20
-214.39129290702925
42
0.35401470622887576
10
1081.4579520558284
20
-238.42585146891133
10
1079.3894448991427
20
-240.49435862559721
42
0.99999999999999989
10
1082.217872023889
20
-243.32278575034326
10
1084.2863791805748
20
-241.25427859365738
42
0.35401470622887793
10
1108.3209377424569
20
-241.25427859365641
10
1110.3894448991427
20
-243.32278575034218
42
0.99999999999999989
10
1113.217872023889
20
-240.49435862559585
10
1111.1493648672031
20
-238.42585146891008
42
0.35401470622887576
0
CIRCLE
5
279
100
AcDbEntity
8
0
100
AcDbCircle
10
1076.3036584615124
20
-156.40857218797072
30
0
40
3.2499999999999951
0
CIRCLE
5
280
100
AcDbEntity
8
0
100
AcDbCircle
10
1170.303658461507
20
-27.408572187967479
30
0
40
2.2500000000000022
0
CIRCLE
5
281
100
AcDbEntity
8
0
100
AcDbCircle
10
1170.3036584615095
20
-84.408572187967238
30
0
40
2.2499999999999929
0
CIRCLE
5
282
100
AcDbEntity
8
0
100
AcDbCircle
10
1170.3036584615083
20
-58.408572187967351
30
0
40
2.2499999999999929
0
CIRCLE
5
283
100
AcDbEntity
8
0
100
AcDbCircle
10
1144.3036584615083
20
-58.408572187968382
30
0
40
2.2499999999999929
0
CIRCLE
5
284
100
AcDbEntity
8
0
100
AcDbCircle
10
1144.3036584615095
20
-84.408572187968289
30
0
40
2.2499999999999929
0
CIRCLE
5
285
100
AcDbEntity
8
0
100
AcDbCircle
10
1170.3036584615065
20
-15.408572187967557
30
0
40
2.2500000000000022
0
CIRCLE
5
286
100
AcDbEntity
8
0
100
AcDbCircle
10
1076.3036584615131
20
-176.40857218797066
30
0
40
3.2499999999999951
0
CIRCLE
5
287
100
AcDbEntity
8
0
100
AcDbCircle
10
1119.8036584615143
20
-202.90857218796879
30
0
40
2.2499999999999929
0
CIRCLE
5
288
100
AcDbEntity
8
0
100
AcDbCircle
10
1072.8036584615143
20
-202.90857218797072
30
0
40
2.2499999999999929
0
CIRCLE
5
289
100
AcDbEntity
8
0
100
AcDbCircle
10
1072.8036584615163
20
-249.90857218797055
30
0
40
2.2499999999999978
0
LWPOLYLINE
5
290
100
AcDbEntity
8
0
100
AcDbPolyline
90
19
70
1
43
0.0
10
1126.3036584615068
20
-21.954527539368549
42
-0.17632698070839722
10
1126.6545917968283
20
-20.990346124838709
10
1140.5382968296628
20
-4.4443907734388812
42
-0.22169466264294102
10
1141.6873634943413
20
-3.9085721879687041
10
1186.8036584615061
20
-3.9085721879669535
42
-0.41421356237302154
10
1188.3036584615061
20
-5.4085721879667759
10
1188.3036584615113
20
-125.31732370735064
42
-0.17632698070841257
10
1187.9527251261898
20
-126.28150512188046
10
1126.303658461514
20
-199.7520017995933
10
1126.303658461517
20
-270.11000905874266
42
-0.17632698070841257
10
1125.9527251261954
20
-271.07419047327249
10
1096.7532636389644
20
-305.87275360249913
42
-0.22169466264296037
10
1095.604196974286
20
-306.40857218796941
10
1067.8036584615186
20
-306.40857218797055
42
-0.4142135623730257
10
1066.3036584615184
20
-304.90857218797055
10
1066.303658461512
20
-147.90857218797117
42
-0.41421356237300833
10
1067.8036584615118
20
-146.40857218797112
10
1092.7396732144209
20
-146.40857218797012
10
1126.3036584615104
20
-106.40857218796893
0
CIRCLE
5
291
100
AcDbEntity
8
0
100
AcDbCircle
10
1267.6567481556617
20
-40.099980895802041
30
0
40
2.2499999999999947
0
CIRCLE
5
292
100
AcDbEntity
8
0
100
AcDbCircle
10
1267.6567481556644
20
-109.09998089580159
30
0
40
2.2499999999999858
0
CIRCLE
5
293
100
AcDbEntity
8
0
100
AcDbCircle
10
1267.6567481556622
20
-52.099980895801927
30
0
40
2.2499999999999947
0
CIRCLE
5
294
100
AcDbEntity
8
0
100
AcDbCircle
10
1267.6567481556635
20
-83.099980895801735
30
0
40
2.2499999999999858
0
CIRCLE
5
295
100
AcDbEntity
8
0
100
AcDbCircle
10
1173.6567481556674
20
-181.09998089580478
30
0
40
3.249999999999984
0
CIRCLE
5
296
100
AcDbEntity
8
0
100
AcDbCircle
10
1173.6567481556683
20
-201.09998089580469
30
0
40
3.249999999999984
0
CIRCLE
5
297
100
AcDbEntity
8
0
100
AcDbCircle
10
1241.6567481556635
20
-83.099980895802688
30
0
40
2.2499999999999858
0
CIRCLE
5
298
100
AcDbEntity
8
0
100
AcDbCircle
10
1241.6567481556644
20
-109.09998089580259
30
0
40
2.2499999999999858
0
CIRCLE
5
299
100
AcDbEntity
8
0
100
AcDbCircle
10
1193.6567481556708
20
-269.34998089580353
30
0
40
2.2499999999999885
0
CIRCLE
5
300
100
AcDbEntity
8
0
100
AcDbCircle
10
1193.6567481556694
20
-232.84998089580375
30
0
40
2.2499999999999885
0
CIRCLE
5
301
100
AcDbEntity
8
0
100
AcDbCircle
10
1173.6567481556722
20
-301.09998089580415
30
0
40
3.249999999999984
0
CIRCLE
5
302
100
AcDbEntity
8
0
100
AcDbCircle
10
1173.6567481556731
20
-321.09998089580404
30
0
40
3.249999999999984
0
CIRCLE
5
303
100
AcDbEntity
8
0
100
AcDbCircle
10
1193.6567481556701
20
-251.09998089580364
30
0
40
4.999999999999976
0
LWPOLYLINE
5
304
100
AcDbEntity
8
0
100
AcDbPolyline
90
19
70
1
43
0.0
10
1223.6567481556622
20
-46.645936247202904
42
-0.1763269807083947
10
1224.0076814909837
20
-45.681754832673079
10
1237.891386523818
20
-29.135799481273274
42
-0.22169466264296153
10
1239.0404531884967
20
-28.599980895803103
10
1284.1567481556613
20
-28.599980895801288
42
-0.41421356237297452
10
1285.6567481556613
20
-30.099980895801295
10
1285.656748155666
20
-150.00873241518497
42
-0.17632698070839242
10
1285.3058148203445
20
-150.97291382971477
10
1223.656748155669
20
-224.44341050742742
10
1223.6567481556719
20
-294.80141776657666
42
-0.17632698070841257
10
1223.3058148203504
20
-295.7655991811065
10
1194.1063533331192
20
-330.56416231033302
42
-0.22169466264285692
10
1192.9572866684409
20
-331.09998089580324
10
1165.1567481556733
20
-331.09998089580438
42
-0.4142135623730257
10
1163.6567481556733
20
-329.59998089580438
10
1163.6567481556672
20
-172.59998089580523
42
-0.41421356237309503
10
1165.1567481556672
20
-171.09998089580517
10
1190.0927629085759
20
-171.09998089580421
10
1223.6567481556656
20
-131.09998089580316
0
ENDSEC
0
SECTION
2
OBJECTS
0
DICTIONARY
5
C
100
AcDbDictionary
3
ACAD_GROUP
350
D
3
ACAD_MLINESTYLE
350
17
0
DICTIONARY
5
D
100
AcDbDictionary
0
DICTIONARY
5
1A
330
C
100
AcDbDictionary
0
DICTIONARY
5
17
100
AcDbDictionary
0
ENDSEC
0
EOF
